<?xml version="1.0" encoding="utf-8" standalone="no"?>
<!DOCTYPE svg PUBLIC "-//W3C//DTD SVG 1.1//EN"
  "http://www.w3.org/Graphics/SVG/1.1/DTD/svg11.dtd">
<svg xmlns:xlink="http://www.w3.org/1999/xlink" width="469.19952pt" height="353.99952pt" viewBox="0 0 469.19952 353.99952" xmlns="http://www.w3.org/2000/svg" version="1.1">
 <metadata>
  <rdf:RDF xmlns:dc="http://purl.org/dc/elements/1.1/" xmlns:cc="http://creativecommons.org/ns#" xmlns:rdf="http://www.w3.org/1999/02/22-rdf-syntax-ns#">
   <cc:Work>
    <dc:type rdf:resource="http://purl.org/dc/dcmitype/StillImage"/>
    <dc:date>2025-08-02T12:11:17.554473</dc:date>
    <dc:format>image/svg+xml</dc:format>
    <dc:creator>
     <cc:Agent>
      <dc:title>Matplotlib v3.10.3, https://matplotlib.org/</dc:title>
     </cc:Agent>
    </dc:creator>
   </cc:Work>
  </rdf:RDF>
 </metadata>
 <defs>
  <style type="text/css">*{stroke-linejoin: round; stroke-linecap: butt}</style>
 </defs>
 <g id="figure_1">
  <g id="patch_1">
   <path d="M 0 353.99952 
L 469.19952 353.99952 
L 469.19952 0 
L 0 0 
z
" style="fill: #ffffff"/>
  </g>
  <g id="axes_1">
   <g id="patch_2">
    <path d="M 36.160158 334.501336 
L 461.99952 334.501336 
L 461.99952 7.2 
L 36.160158 7.2 
z
" style="fill: #ffffff"/>
   </g>
   <g id="matplotlib.axis_1">
    <g id="xtick_1">
     <g id="line2d_1">
      <path d="M 94.229162 334.501336 
L 94.229162 7.2 
" clip-path="url(#p99d875338d)" style="fill: none; stroke-dasharray: 1.85,0.8; stroke-dashoffset: 0; stroke: #b0b0b0; stroke-width: 0.5"/>
     </g>
     <g id="line2d_2">
      <defs>
       <path id="mb696349673" d="M 0 0 
L 0 -3.5 
" style="stroke: #000000; stroke-width: 0.8"/>
      </defs>
      <g>
       <use xlink:href="#mb696349673" x="94.229162" y="334.501336" style="stroke: #000000; stroke-width: 0.8"/>
      </g>
     </g>
     <g id="line2d_3">
      <defs>
       <path id="mcf72f5746d" d="M 0 0 
L 0 3.5 
" style="stroke: #000000; stroke-width: 0.8"/>
      </defs>
      <g>
       <use xlink:href="#mcf72f5746d" x="94.229162" y="7.2" style="stroke: #000000; stroke-width: 0.8"/>
      </g>
     </g>
     <g id="text_1">
      <!-- $\mathdefault{−4}$ -->
      <g transform="translate(87.864122 344.862813) scale(0.1 -0.1)">
       <defs>
        <path id="CMSY10-0" d="M 4218 1472 
C 4326 1472 4442 1472 4442 1600 
C 4442 1728 4326 1728 4218 1728 
L 755 1728 
C 646 1728 531 1728 531 1600 
C 531 1472 646 1472 755 1472 
L 4218 1472 
z
" transform="scale(0.015625)"/>
        <path id="CMR17-34" d="M 2150 4147 
C 2150 4281 2144 4288 2029 4288 
L 128 1254 
L 128 1088 
L 1779 1088 
L 1779 460 
C 1779 230 1766 166 1318 166 
L 1197 166 
L 1197 0 
C 1402 12 1747 12 1965 12 
C 2182 12 2528 12 2733 0 
L 2733 166 
L 2611 166 
C 2163 166 2150 230 2150 460 
L 2150 1088 
L 2803 1088 
L 2803 1254 
L 2150 1254 
L 2150 4147 
z
M 1798 3723 
L 1798 1254 
L 256 1254 
L 1798 3723 
z
" transform="scale(0.015625)"/>
       </defs>
       <use xlink:href="#CMSY10-0" transform="scale(0.996264)"/>
       <use xlink:href="#CMR17-34" transform="translate(77.487468 0) scale(0.996264)"/>
      </g>
     </g>
    </g>
    <g id="xtick_2">
     <g id="line2d_4">
      <path d="M 171.6545 334.501336 
L 171.6545 7.2 
" clip-path="url(#p99d875338d)" style="fill: none; stroke-dasharray: 1.85,0.8; stroke-dashoffset: 0; stroke: #b0b0b0; stroke-width: 0.5"/>
     </g>
     <g id="line2d_5">
      <g>
       <use xlink:href="#mb696349673" x="171.6545" y="334.501336" style="stroke: #000000; stroke-width: 0.8"/>
      </g>
     </g>
     <g id="line2d_6">
      <g>
       <use xlink:href="#mcf72f5746d" x="171.6545" y="7.2" style="stroke: #000000; stroke-width: 0.8"/>
      </g>
     </g>
     <g id="text_2">
      <!-- $\mathdefault{−2}$ -->
      <g transform="translate(165.289461 344.862813) scale(0.1 -0.1)">
       <defs>
        <path id="CMR17-32" d="M 2669 990 
L 2554 990 
C 2490 537 2438 460 2413 422 
C 2381 371 1920 371 1830 371 
L 602 371 
C 832 620 1280 1073 1824 1596 
C 2214 1966 2669 2400 2669 3033 
C 2669 3788 2067 4224 1395 4224 
C 691 4224 262 3603 262 3027 
C 262 2777 448 2745 525 2745 
C 589 2745 781 2783 781 3007 
C 781 3206 614 3264 525 3264 
C 486 3264 448 3257 422 3244 
C 544 3788 915 4057 1306 4057 
C 1862 4057 2227 3616 2227 3033 
C 2227 2477 1901 1998 1536 1583 
L 262 147 
L 262 0 
L 2515 0 
L 2669 990 
z
" transform="scale(0.015625)"/>
       </defs>
       <use xlink:href="#CMSY10-0" transform="scale(0.996264)"/>
       <use xlink:href="#CMR17-32" transform="translate(77.487468 0) scale(0.996264)"/>
      </g>
     </g>
    </g>
    <g id="xtick_3">
     <g id="line2d_7">
      <path d="M 249.079839 334.501336 
L 249.079839 7.2 
" clip-path="url(#p99d875338d)" style="fill: none; stroke-dasharray: 1.85,0.8; stroke-dashoffset: 0; stroke: #b0b0b0; stroke-width: 0.5"/>
     </g>
     <g id="line2d_8">
      <g>
       <use xlink:href="#mb696349673" x="249.079839" y="334.501336" style="stroke: #000000; stroke-width: 0.8"/>
      </g>
     </g>
     <g id="line2d_9">
      <g>
       <use xlink:href="#mcf72f5746d" x="249.079839" y="7.2" style="stroke: #000000; stroke-width: 0.8"/>
      </g>
     </g>
     <g id="text_3">
      <!-- $\mathdefault{0}$ -->
      <g transform="translate(246.589171 344.862813) scale(0.1 -0.1)">
       <defs>
        <path id="CMR17-30" d="M 2688 2038 
C 2688 2430 2682 3099 2413 3613 
C 2176 4063 1798 4224 1466 4224 
C 1158 4224 768 4082 525 3620 
C 269 3137 243 2539 243 2038 
C 243 1671 250 1112 448 623 
C 723 -39 1216 -128 1466 -128 
C 1760 -128 2208 -7 2470 604 
C 2662 1048 2688 1568 2688 2038 
z
M 1466 -26 
C 1056 -26 813 328 723 816 
C 653 1196 653 1749 653 2109 
C 653 2604 653 3015 736 3407 
C 858 3954 1216 4121 1466 4121 
C 1728 4121 2067 3947 2189 3420 
C 2272 3054 2278 2623 2278 2109 
C 2278 1691 2278 1176 2202 797 
C 2067 96 1690 -26 1466 -26 
z
" transform="scale(0.015625)"/>
       </defs>
       <use xlink:href="#CMR17-30" transform="scale(0.996264)"/>
      </g>
     </g>
    </g>
    <g id="xtick_4">
     <g id="line2d_10">
      <path d="M 326.505178 334.501336 
L 326.505178 7.2 
" clip-path="url(#p99d875338d)" style="fill: none; stroke-dasharray: 1.85,0.8; stroke-dashoffset: 0; stroke: #b0b0b0; stroke-width: 0.5"/>
     </g>
     <g id="line2d_11">
      <g>
       <use xlink:href="#mb696349673" x="326.505178" y="334.501336" style="stroke: #000000; stroke-width: 0.8"/>
      </g>
     </g>
     <g id="line2d_12">
      <g>
       <use xlink:href="#mcf72f5746d" x="326.505178" y="7.2" style="stroke: #000000; stroke-width: 0.8"/>
      </g>
     </g>
     <g id="text_4">
      <!-- $\mathdefault{2}$ -->
      <g transform="translate(324.01451 344.862813) scale(0.1 -0.1)">
       <use xlink:href="#CMR17-32" transform="scale(0.996264)"/>
      </g>
     </g>
    </g>
    <g id="xtick_5">
     <g id="line2d_13">
      <path d="M 403.930516 334.501336 
L 403.930516 7.2 
" clip-path="url(#p99d875338d)" style="fill: none; stroke-dasharray: 1.85,0.8; stroke-dashoffset: 0; stroke: #b0b0b0; stroke-width: 0.5"/>
     </g>
     <g id="line2d_14">
      <g>
       <use xlink:href="#mb696349673" x="403.930516" y="334.501336" style="stroke: #000000; stroke-width: 0.8"/>
      </g>
     </g>
     <g id="line2d_15">
      <g>
       <use xlink:href="#mcf72f5746d" x="403.930516" y="7.2" style="stroke: #000000; stroke-width: 0.8"/>
      </g>
     </g>
     <g id="text_5">
      <!-- $\mathdefault{4}$ -->
      <g transform="translate(401.439848 344.862813) scale(0.1 -0.1)">
       <use xlink:href="#CMR17-34" transform="scale(0.996264)"/>
      </g>
     </g>
    </g>
   </g>
   <g id="matplotlib.axis_2">
    <g id="ytick_1">
     <g id="line2d_16">
      <path d="M 36.160158 332.519983 
L 461.99952 332.519983 
" clip-path="url(#p99d875338d)" style="fill: none; stroke-dasharray: 1.85,0.8; stroke-dashoffset: 0; stroke: #b0b0b0; stroke-width: 0.5"/>
     </g>
     <g id="line2d_17">
      <defs>
       <path id="ma769ed8a6b" d="M 0 0 
L 3.5 0 
" style="stroke: #000000; stroke-width: 0.8"/>
      </defs>
      <g>
       <use xlink:href="#ma769ed8a6b" x="36.160158" y="332.519983" style="stroke: #000000; stroke-width: 0.8"/>
      </g>
     </g>
     <g id="line2d_18">
      <defs>
       <path id="mbe277b124a" d="M 0 0 
L -3.5 0 
" style="stroke: #000000; stroke-width: 0.8"/>
      </defs>
      <g>
       <use xlink:href="#mbe277b124a" x="461.99952" y="332.519983" style="stroke: #000000; stroke-width: 0.8"/>
      </g>
     </g>
     <g id="text_6">
      <!-- $\mathdefault{−1.00}$ -->
      <g transform="translate(7.2 335.950721) scale(0.1 -0.1)">
       <defs>
        <path id="CMR17-31" d="M 1702 4083 
C 1702 4217 1696 4224 1606 4224 
C 1357 3927 979 3833 621 3820 
C 602 3820 570 3820 563 3808 
C 557 3795 557 3782 557 3648 
C 755 3648 1088 3686 1344 3839 
L 1344 467 
C 1344 243 1331 166 781 166 
L 589 166 
L 589 0 
C 896 6 1216 12 1523 12 
C 1830 12 2150 6 2458 0 
L 2458 166 
L 2266 166 
C 1715 166 1702 236 1702 467 
L 1702 4083 
z
" transform="scale(0.015625)"/>
        <path id="CMMI12-3a" d="M 1178 307 
C 1178 492 1024 620 870 620 
C 685 620 557 467 557 313 
C 557 128 710 0 864 0 
C 1050 0 1178 153 1178 307 
z
" transform="scale(0.015625)"/>
       </defs>
       <use xlink:href="#CMSY10-0" transform="scale(0.996264)"/>
       <use xlink:href="#CMR17-31" transform="translate(77.487468 0) scale(0.996264)"/>
       <use xlink:href="#CMMI12-3a" transform="translate(123.177945 0) scale(0.996264)"/>
       <use xlink:href="#CMR17-30" transform="translate(150.275122 0) scale(0.996264)"/>
       <use xlink:href="#CMR17-30" transform="translate(195.965599 0) scale(0.996264)"/>
      </g>
     </g>
    </g>
    <g id="ytick_2">
     <g id="line2d_19">
      <path d="M 36.160158 293.689858 
L 461.99952 293.689858 
" clip-path="url(#p99d875338d)" style="fill: none; stroke-dasharray: 1.85,0.8; stroke-dashoffset: 0; stroke: #b0b0b0; stroke-width: 0.5"/>
     </g>
     <g id="line2d_20">
      <g>
       <use xlink:href="#ma769ed8a6b" x="36.160158" y="293.689858" style="stroke: #000000; stroke-width: 0.8"/>
      </g>
     </g>
     <g id="line2d_21">
      <g>
       <use xlink:href="#mbe277b124a" x="461.99952" y="293.689858" style="stroke: #000000; stroke-width: 0.8"/>
      </g>
     </g>
     <g id="text_7">
      <!-- $\mathdefault{−0.75}$ -->
      <g transform="translate(7.2 297.120596) scale(0.1 -0.1)">
       <defs>
        <path id="CMR17-37" d="M 2886 3955 
L 2886 4096 
L 1382 4096 
C 634 4096 621 4166 595 4288 
L 480 4288 
L 294 3104 
L 410 3104 
C 429 3226 474 3552 550 3673 
C 589 3724 1062 3724 1171 3724 
L 2579 3724 
L 1869 2670 
C 1395 1961 1069 1003 1069 166 
C 1069 89 1069 -128 1299 -128 
C 1530 -128 1530 89 1530 172 
L 1530 466 
C 1530 1514 1709 2204 2003 2644 
L 2886 3955 
z
" transform="scale(0.015625)"/>
        <path id="CMR17-35" d="M 730 3750 
C 794 3724 1056 3641 1325 3641 
C 1920 3641 2246 3961 2432 4140 
C 2432 4191 2432 4224 2394 4224 
C 2387 4224 2374 4224 2323 4198 
C 2099 4102 1837 4032 1517 4032 
C 1325 4032 1037 4055 723 4191 
C 653 4224 640 4224 634 4224 
C 602 4224 595 4217 595 4090 
L 595 2231 
C 595 2113 595 2080 659 2080 
C 691 2080 704 2093 736 2139 
C 941 2435 1222 2560 1542 2560 
C 1766 2560 2246 2415 2246 1293 
C 2246 1087 2246 716 2054 422 
C 1894 159 1645 25 1370 25 
C 947 25 518 319 403 812 
C 429 806 480 793 506 793 
C 589 793 749 838 749 1036 
C 749 1209 627 1280 506 1280 
C 358 1280 262 1190 262 1011 
C 262 454 704 -128 1382 -128 
C 2042 -128 2669 441 2669 1267 
C 2669 2054 2170 2662 1549 2662 
C 1222 2662 947 2540 730 2304 
L 730 3750 
z
" transform="scale(0.015625)"/>
       </defs>
       <use xlink:href="#CMSY10-0" transform="scale(0.996264)"/>
       <use xlink:href="#CMR17-30" transform="translate(77.487468 0) scale(0.996264)"/>
       <use xlink:href="#CMMI12-3a" transform="translate(123.177945 0) scale(0.996264)"/>
       <use xlink:href="#CMR17-37" transform="translate(150.275122 0) scale(0.996264)"/>
       <use xlink:href="#CMR17-35" transform="translate(195.965599 0) scale(0.996264)"/>
      </g>
     </g>
    </g>
    <g id="ytick_3">
     <g id="line2d_22">
      <path d="M 36.160158 254.859733 
L 461.99952 254.859733 
" clip-path="url(#p99d875338d)" style="fill: none; stroke-dasharray: 1.85,0.8; stroke-dashoffset: 0; stroke: #b0b0b0; stroke-width: 0.5"/>
     </g>
     <g id="line2d_23">
      <g>
       <use xlink:href="#ma769ed8a6b" x="36.160158" y="254.859733" style="stroke: #000000; stroke-width: 0.8"/>
      </g>
     </g>
     <g id="line2d_24">
      <g>
       <use xlink:href="#mbe277b124a" x="461.99952" y="254.859733" style="stroke: #000000; stroke-width: 0.8"/>
      </g>
     </g>
     <g id="text_8">
      <!-- $\mathdefault{−0.50}$ -->
      <g transform="translate(7.2 258.290471) scale(0.1 -0.1)">
       <use xlink:href="#CMSY10-0" transform="scale(0.996264)"/>
       <use xlink:href="#CMR17-30" transform="translate(77.487468 0) scale(0.996264)"/>
       <use xlink:href="#CMMI12-3a" transform="translate(123.177945 0) scale(0.996264)"/>
       <use xlink:href="#CMR17-35" transform="translate(150.275122 0) scale(0.996264)"/>
       <use xlink:href="#CMR17-30" transform="translate(195.965599 0) scale(0.996264)"/>
      </g>
     </g>
    </g>
    <g id="ytick_4">
     <g id="line2d_25">
      <path d="M 36.160158 216.029608 
L 461.99952 216.029608 
" clip-path="url(#p99d875338d)" style="fill: none; stroke-dasharray: 1.85,0.8; stroke-dashoffset: 0; stroke: #b0b0b0; stroke-width: 0.5"/>
     </g>
     <g id="line2d_26">
      <g>
       <use xlink:href="#ma769ed8a6b" x="36.160158" y="216.029608" style="stroke: #000000; stroke-width: 0.8"/>
      </g>
     </g>
     <g id="line2d_27">
      <g>
       <use xlink:href="#mbe277b124a" x="461.99952" y="216.029608" style="stroke: #000000; stroke-width: 0.8"/>
      </g>
     </g>
     <g id="text_9">
      <!-- $\mathdefault{−0.25}$ -->
      <g transform="translate(7.2 219.460346) scale(0.1 -0.1)">
       <use xlink:href="#CMSY10-0" transform="scale(0.996264)"/>
       <use xlink:href="#CMR17-30" transform="translate(77.487468 0) scale(0.996264)"/>
       <use xlink:href="#CMMI12-3a" transform="translate(123.177945 0) scale(0.996264)"/>
       <use xlink:href="#CMR17-32" transform="translate(150.275122 0) scale(0.996264)"/>
       <use xlink:href="#CMR17-35" transform="translate(195.965599 0) scale(0.996264)"/>
      </g>
     </g>
    </g>
    <g id="ytick_5">
     <g id="line2d_28">
      <path d="M 36.160158 177.199483 
L 461.99952 177.199483 
" clip-path="url(#p99d875338d)" style="fill: none; stroke-dasharray: 1.85,0.8; stroke-dashoffset: 0; stroke: #b0b0b0; stroke-width: 0.5"/>
     </g>
     <g id="line2d_29">
      <g>
       <use xlink:href="#ma769ed8a6b" x="36.160158" y="177.199483" style="stroke: #000000; stroke-width: 0.8"/>
      </g>
     </g>
     <g id="line2d_30">
      <g>
       <use xlink:href="#mbe277b124a" x="461.99952" y="177.199483" style="stroke: #000000; stroke-width: 0.8"/>
      </g>
     </g>
     <g id="text_10">
      <!-- $\mathdefault{0.00}$ -->
      <g transform="translate(14.948744 180.630222) scale(0.1 -0.1)">
       <use xlink:href="#CMR17-30" transform="scale(0.996264)"/>
       <use xlink:href="#CMMI12-3a" transform="translate(45.690477 0) scale(0.996264)"/>
       <use xlink:href="#CMR17-30" transform="translate(72.787654 0) scale(0.996264)"/>
       <use xlink:href="#CMR17-30" transform="translate(118.478131 0) scale(0.996264)"/>
      </g>
     </g>
    </g>
    <g id="ytick_6">
     <g id="line2d_31">
      <path d="M 36.160158 138.369358 
L 461.99952 138.369358 
" clip-path="url(#p99d875338d)" style="fill: none; stroke-dasharray: 1.85,0.8; stroke-dashoffset: 0; stroke: #b0b0b0; stroke-width: 0.5"/>
     </g>
     <g id="line2d_32">
      <g>
       <use xlink:href="#ma769ed8a6b" x="36.160158" y="138.369358" style="stroke: #000000; stroke-width: 0.8"/>
      </g>
     </g>
     <g id="line2d_33">
      <g>
       <use xlink:href="#mbe277b124a" x="461.99952" y="138.369358" style="stroke: #000000; stroke-width: 0.8"/>
      </g>
     </g>
     <g id="text_11">
      <!-- $\mathdefault{0.25}$ -->
      <g transform="translate(14.948744 141.800097) scale(0.1 -0.1)">
       <use xlink:href="#CMR17-30" transform="scale(0.996264)"/>
       <use xlink:href="#CMMI12-3a" transform="translate(45.690477 0) scale(0.996264)"/>
       <use xlink:href="#CMR17-32" transform="translate(72.787654 0) scale(0.996264)"/>
       <use xlink:href="#CMR17-35" transform="translate(118.478131 0) scale(0.996264)"/>
      </g>
     </g>
    </g>
    <g id="ytick_7">
     <g id="line2d_34">
      <path d="M 36.160158 99.539233 
L 461.99952 99.539233 
" clip-path="url(#p99d875338d)" style="fill: none; stroke-dasharray: 1.85,0.8; stroke-dashoffset: 0; stroke: #b0b0b0; stroke-width: 0.5"/>
     </g>
     <g id="line2d_35">
      <g>
       <use xlink:href="#ma769ed8a6b" x="36.160158" y="99.539233" style="stroke: #000000; stroke-width: 0.8"/>
      </g>
     </g>
     <g id="line2d_36">
      <g>
       <use xlink:href="#mbe277b124a" x="461.99952" y="99.539233" style="stroke: #000000; stroke-width: 0.8"/>
      </g>
     </g>
     <g id="text_12">
      <!-- $\mathdefault{0.50}$ -->
      <g transform="translate(14.948744 102.969972) scale(0.1 -0.1)">
       <use xlink:href="#CMR17-30" transform="scale(0.996264)"/>
       <use xlink:href="#CMMI12-3a" transform="translate(45.690477 0) scale(0.996264)"/>
       <use xlink:href="#CMR17-35" transform="translate(72.787654 0) scale(0.996264)"/>
       <use xlink:href="#CMR17-30" transform="translate(118.478131 0) scale(0.996264)"/>
      </g>
     </g>
    </g>
    <g id="ytick_8">
     <g id="line2d_37">
      <path d="M 36.160158 60.709109 
L 461.99952 60.709109 
" clip-path="url(#p99d875338d)" style="fill: none; stroke-dasharray: 1.85,0.8; stroke-dashoffset: 0; stroke: #b0b0b0; stroke-width: 0.5"/>
     </g>
     <g id="line2d_38">
      <g>
       <use xlink:href="#ma769ed8a6b" x="36.160158" y="60.709109" style="stroke: #000000; stroke-width: 0.8"/>
      </g>
     </g>
     <g id="line2d_39">
      <g>
       <use xlink:href="#mbe277b124a" x="461.99952" y="60.709109" style="stroke: #000000; stroke-width: 0.8"/>
      </g>
     </g>
     <g id="text_13">
      <!-- $\mathdefault{0.75}$ -->
      <g transform="translate(14.948744 64.139847) scale(0.1 -0.1)">
       <use xlink:href="#CMR17-30" transform="scale(0.996264)"/>
       <use xlink:href="#CMMI12-3a" transform="translate(45.690477 0) scale(0.996264)"/>
       <use xlink:href="#CMR17-37" transform="translate(72.787654 0) scale(0.996264)"/>
       <use xlink:href="#CMR17-35" transform="translate(118.478131 0) scale(0.996264)"/>
      </g>
     </g>
    </g>
    <g id="ytick_9">
     <g id="line2d_40">
      <path d="M 36.160158 21.878984 
L 461.99952 21.878984 
" clip-path="url(#p99d875338d)" style="fill: none; stroke-dasharray: 1.85,0.8; stroke-dashoffset: 0; stroke: #b0b0b0; stroke-width: 0.5"/>
     </g>
     <g id="line2d_41">
      <g>
       <use xlink:href="#ma769ed8a6b" x="36.160158" y="21.878984" style="stroke: #000000; stroke-width: 0.8"/>
      </g>
     </g>
     <g id="line2d_42">
      <g>
       <use xlink:href="#mbe277b124a" x="461.99952" y="21.878984" style="stroke: #000000; stroke-width: 0.8"/>
      </g>
     </g>
     <g id="text_14">
      <!-- $\mathdefault{1.00}$ -->
      <g transform="translate(14.948744 25.309722) scale(0.1 -0.1)">
       <use xlink:href="#CMR17-31" transform="scale(0.996264)"/>
       <use xlink:href="#CMMI12-3a" transform="translate(45.690477 0) scale(0.996264)"/>
       <use xlink:href="#CMR17-30" transform="translate(72.787654 0) scale(0.996264)"/>
       <use xlink:href="#CMR17-30" transform="translate(118.478131 0) scale(0.996264)"/>
      </g>
     </g>
    </g>
   </g>
   <g id="line2d_43">
    <path d="M 55.516493 176.604309 
L 60.171323 176.61892 
L 64.050348 176.879969 
L 67.929373 177.396234 
L 73.360007 178.415184 
L 78.014837 179.215318 
L 80.342252 179.433892 
L 82.669667 179.446716 
L 84.997082 179.199626 
L 87.324497 178.656638 
L 89.651912 177.808857 
L 91.979327 176.682076 
L 95.082547 174.864856 
L 99.737377 172.050743 
L 102.064792 170.95904 
L 103.616402 170.473144 
L 105.168012 170.242779 
L 106.719622 170.315112 
L 108.271232 170.728475 
L 109.822842 171.509201 
L 111.374452 172.668672 
L 112.926062 174.200778 
L 114.477672 176.079959 
L 116.029282 178.260028 
L 118.356697 181.942059 
L 123.011527 189.551185 
L 124.563137 191.70883 
L 126.114747 193.452242 
L 126.890552 194.126878 
L 127.666357 194.649026 
L 128.442162 195.003979 
L 129.217967 195.178203 
L 129.993772 195.159568 
L 130.769577 194.937572 
L 131.545382 194.503559 
L 132.321187 193.850921 
L 133.096992 192.975288 
L 133.872797 191.874701 
L 134.648602 190.54976 
L 136.200212 187.242745 
L 137.751822 183.11434 
L 139.303432 178.270648 
L 141.630847 170.007406 
L 146.285677 152.619739 
L 147.837287 147.544595 
L 149.388897 143.306613 
L 150.164702 141.588516 
L 150.940507 140.181213 
L 151.716312 139.114768 
L 152.492117 138.41663 
L 153.267922 138.111189 
L 154.043727 138.219359 
L 154.819532 138.758169 
L 155.595337 139.740404 
L 156.371142 141.174265 
L 157.146947 143.063083 
L 157.922752 145.405073 
L 158.698557 148.19315 
L 160.250167 155.051946 
L 161.801777 163.473156 
L 163.353387 173.203645 
L 165.680802 189.501931 
L 169.559827 217.530326 
L 171.111437 227.577079 
L 172.663047 236.177384 
L 173.438852 239.780026 
L 174.214657 242.840862 
L 174.990462 245.307367 
L 175.766267 247.131991 
L 176.542072 248.272876 
L 177.317877 248.694532 
L 178.093682 248.368464 
L 178.869487 247.273724 
L 179.645292 245.397395 
L 180.421097 242.735 
L 181.196902 239.29081 
L 181.972707 235.078068 
L 183.524317 224.445356 
L 185.075927 211.124066 
L 186.627537 195.541348 
L 188.954952 169.172216 
L 193.609782 114.577757 
L 195.161392 98.767363 
L 196.713002 85.476605 
L 197.488807 80.000458 
L 198.264612 75.410798 
L 199.040417 71.778046 
L 199.816222 69.163555 
L 200.592027 67.618703 
L 201.367832 67.184081 
L 202.143637 67.888793 
L 202.919442 69.74988 
L 203.695247 72.771867 
L 204.471052 76.946457 
L 205.246857 82.252364 
L 206.022662 88.655299 
L 207.574272 104.551063 
L 209.125882 124.108469 
L 210.677492 146.618938 
L 213.004907 183.992622 
L 216.883932 247.27879 
L 218.435542 269.751433 
L 219.987152 289.025418 
L 221.538762 304.18652 
L 222.314567 309.981151 
L 223.090372 314.478541 
L 223.866177 317.61517 
L 224.641982 319.341762 
L 225.417787 319.624003 
L 226.193592 318.443096 
L 226.969397 315.796138 
L 227.745202 311.696315 
L 228.521007 306.172913 
L 229.296812 299.271139 
L 230.072617 291.051758 
L 231.624227 270.977534 
L 233.175837 246.722144 
L 235.503252 204.659689 
L 240.933887 100.954073 
L 242.485497 75.547061 
L 244.037107 54.138788 
L 244.812912 45.231263 
L 245.588716 37.654987 
L 246.364521 31.492419 
L 247.140326 26.810701 
L 247.916131 23.660884 
L 248.691936 22.077333 
L 249.467741 22.077333 
L 250.243546 23.660884 
L 251.019351 26.810701 
L 251.795156 31.492419 
L 252.570961 37.654987 
L 253.346766 45.231263 
L 254.898376 64.280742 
L 256.449986 87.815707 
L 258.001596 114.820508 
L 261.104816 174.510272 
L 264.208036 233.322312 
L 265.759646 259.316158 
L 267.311256 281.590541 
L 268.862866 299.271139 
L 269.638671 306.172913 
L 270.414476 311.696315 
L 271.190281 315.796138 
L 271.966086 318.443096 
L 272.741891 319.624003 
L 273.517696 319.341762 
L 274.293501 317.61517 
L 275.069306 314.478541 
L 275.845111 309.981151 
L 276.620916 304.18652 
L 277.396721 297.171532 
L 278.948331 279.848601 
L 280.499941 258.852821 
L 282.827356 222.635013 
L 287.482186 146.618938 
L 289.033796 124.108469 
L 290.585406 104.551063 
L 292.137016 88.655299 
L 292.912821 82.252364 
L 293.688626 76.946457 
L 294.464431 72.771867 
L 295.240236 69.74988 
L 296.016041 67.888793 
L 296.791846 67.184081 
L 297.567651 67.618703 
L 298.343456 69.163555 
L 299.119261 71.778046 
L 299.895066 75.410798 
L 300.670871 80.000458 
L 301.446676 85.476605 
L 302.998286 98.767363 
L 304.549896 114.577757 
L 306.877311 141.298756 
L 310.756336 187.070928 
L 312.307946 203.583499 
L 313.859556 218.097262 
L 315.411166 230.119105 
L 316.186971 235.078068 
L 316.962776 239.29081 
L 317.738581 242.735 
L 318.514386 245.397395 
L 319.290191 247.273724 
L 320.065996 248.368464 
L 320.841801 248.694532 
L 321.617606 248.272876 
L 322.393411 247.131991 
L 323.169216 245.307367 
L 323.945021 242.840862 
L 324.720826 239.780026 
L 326.272436 232.089676 
L 327.824046 222.70241 
L 330.151461 206.556993 
L 334.806291 173.203645 
L 336.357901 163.473156 
L 337.909511 155.051946 
L 339.461121 148.19315 
L 340.236926 145.405073 
L 341.012731 143.063083 
L 341.788536 141.174265 
L 342.564341 139.740404 
L 343.340146 138.758169 
L 344.115951 138.219359 
L 344.891756 138.111189 
L 345.667561 138.41663 
L 346.443366 139.114768 
L 347.219171 140.181213 
L 347.994976 141.588516 
L 348.770781 143.306613 
L 350.322391 147.544595 
L 351.874001 152.619739 
L 354.201416 161.172107 
L 358.080441 175.626233 
L 359.632051 180.773474 
L 361.183661 185.275668 
L 362.735271 189.00375 
L 364.286881 191.874701 
L 365.062686 192.975288 
L 365.838491 193.850921 
L 366.614296 194.503559 
L 367.390101 194.937572 
L 368.165906 195.159568 
L 368.941711 195.178203 
L 369.717516 195.003979 
L 370.493321 194.649026 
L 371.269126 194.126878 
L 372.820736 192.640772 
L 374.372346 190.673265 
L 376.699761 187.115977 
L 382.130396 178.260028 
L 383.682006 176.079959 
L 385.233616 174.200778 
L 386.785226 172.668672 
L 388.336836 171.509201 
L 389.888446 170.728475 
L 391.440056 170.315112 
L 392.991666 170.242779 
L 394.543276 170.473144 
L 396.094886 170.95904 
L 397.646496 171.647673 
L 399.973911 172.939721 
L 406.956156 177.085475 
L 409.283571 178.124507 
L 411.610986 178.87171 
L 413.938401 179.313565 
L 416.265816 179.468932 
L 418.59323 179.380873 
L 421.69645 178.986446 
L 427.127085 177.956551 
L 431.781915 177.160694 
L 435.66094 176.744748 
L 439.539965 176.582558 
L 442.643185 176.604309 
L 442.643185 176.604309 
" clip-path="url(#p99d875338d)" style="fill: none; stroke: #ff0000; stroke-width: 1.5; stroke-linecap: square"/>
   </g>
   <g id="line2d_44">
    <path d="M 55.516493 177.199483 
L 174.990462 177.101431 
L 179.645292 177.047099 
L 181.972707 177.178179 
L 184.300122 177.497329 
L 189.730757 178.512035 
L 191.282367 178.481129 
L 192.833977 178.069816 
L 193.609782 177.686355 
L 195.161392 176.532812 
L 196.713002 174.908623 
L 199.816222 171.185774 
L 200.592027 170.465956 
L 201.367832 169.970868 
L 202.143637 169.777502 
L 202.919442 169.960236 
L 203.695247 170.585649 
L 204.471052 171.706837 
L 205.246857 173.357558 
L 206.022662 175.546536 
L 206.798467 178.252347 
L 208.350077 184.954985 
L 211.453297 199.667329 
L 212.229102 202.448821 
L 213.004907 204.396497 
L 213.780712 205.275265 
L 214.556517 204.874405 
L 215.332322 203.023379 
L 216.108127 199.607399 
L 216.883932 194.581733 
L 217.659737 187.983696 
L 218.435542 179.94125 
L 219.987152 160.50869 
L 222.314567 128.976168 
L 223.090372 119.886336 
L 223.866177 112.454819 
L 224.641982 107.229065 
L 225.417787 104.697102 
L 226.193592 105.254835 
L 226.969397 109.175594 
L 227.745202 116.583954 
L 228.521007 127.435802 
L 229.296812 141.506364 
L 230.848422 177.495533 
L 233.951642 259.659108 
L 234.727447 276.799757 
L 235.503252 290.631117 
L 236.279057 300.316931 
L 237.054862 305.181991 
L 237.830667 304.75582 
L 238.606472 298.807101 
L 239.382277 287.366468 
L 240.158082 270.735807 
L 240.933887 249.48302 
L 242.485497 196.578426 
L 245.588716 82.424429 
L 246.364521 59.706056 
L 247.140326 41.649782 
L 247.916131 29.111634 
L 248.691936 22.689079 
L 249.467741 22.689079 
L 250.243546 29.111634 
L 251.019351 41.649782 
L 251.795156 59.706056 
L 252.570961 82.424429 
L 254.122571 137.414758 
L 256.449986 224.421989 
L 257.225791 249.48302 
L 258.001596 270.735807 
L 258.777401 287.366468 
L 259.553206 298.807101 
L 260.329011 304.75582 
L 261.104816 305.181991 
L 261.880621 300.316931 
L 262.656426 290.631117 
L 263.432231 276.799757 
L 264.983841 240.156432 
L 268.087061 158.387551 
L 268.862866 141.506364 
L 269.638671 127.435802 
L 270.414476 116.583954 
L 271.190281 109.175594 
L 271.966086 105.254835 
L 272.741891 104.697102 
L 273.517696 107.229065 
L 274.293501 112.454819 
L 275.069306 119.886336 
L 276.620916 139.150388 
L 278.948331 170.677273 
L 280.499941 187.983696 
L 281.275746 194.581733 
L 282.051551 199.607399 
L 282.827356 203.023379 
L 283.603161 204.874405 
L 284.378966 205.275265 
L 285.154771 204.396497 
L 285.930576 202.448821 
L 286.706381 199.667329 
L 288.257991 192.575731 
L 290.585406 181.419335 
L 292.137016 175.546536 
L 292.912821 173.357558 
L 293.688626 171.706837 
L 294.464431 170.585649 
L 295.240236 169.960236 
L 296.016041 169.777502 
L 296.791846 169.970868 
L 297.567651 170.465956 
L 299.119261 172.055216 
L 302.222481 175.771599 
L 303.774091 177.173936 
L 305.325701 178.069816 
L 306.877311 178.481129 
L 308.428921 178.512035 
L 309.980531 178.299842 
L 315.411166 177.26251 
L 317.738581 177.072559 
L 320.841801 177.046375 
L 334.030486 177.209674 
L 387.561031 177.199483 
L 442.643185 177.199483 
L 442.643185 177.199483 
" clip-path="url(#p99d875338d)" style="fill: none; stroke: #0000ff; stroke-width: 1.5; stroke-linecap: square"/>
   </g>
   <g id="patch_3">
    <path d="M 36.160158 334.501336 
L 36.160158 7.2 
" style="fill: none; stroke: #000000; stroke-width: 0.8; stroke-linejoin: miter; stroke-linecap: square"/>
   </g>
   <g id="patch_4">
    <path d="M 461.99952 334.501336 
L 461.99952 7.2 
" style="fill: none; stroke: #000000; stroke-width: 0.8; stroke-linejoin: miter; stroke-linecap: square"/>
   </g>
   <g id="patch_5">
    <path d="M 36.160158 334.501336 
L 461.99952 334.501336 
" style="fill: none; stroke: #000000; stroke-width: 0.8; stroke-linejoin: miter; stroke-linecap: square"/>
   </g>
   <g id="patch_6">
    <path d="M 36.160158 7.2 
L 461.99952 7.2 
" style="fill: none; stroke: #000000; stroke-width: 0.8; stroke-linejoin: miter; stroke-linecap: square"/>
   </g>
   <g id="legend_1">
    <g id="patch_7">
     <path d="M 43.160158 45.12528 
L 170.61332 45.12528 
Q 172.61332 45.12528 172.61332 43.12528 
L 172.61332 14.2 
Q 172.61332 12.2 170.61332 12.2 
L 43.160158 12.2 
Q 41.160158 12.2 41.160158 14.2 
L 41.160158 43.12528 
Q 41.160158 45.12528 43.160158 45.12528 
z
" style="fill: #ffffff; opacity: 0.8; stroke: #cccccc; stroke-linejoin: miter"/>
    </g>
    <g id="line2d_45">
     <path d="M 45.160158 20.17198 
L 55.160158 20.17198 
L 65.160158 20.17198 
" style="fill: none; stroke: #ff0000; stroke-width: 1.5; stroke-linecap: square"/>
    </g>
    <g id="text_15">
     <!-- $f(t),\,\sigma=1.5,\,\omega_0=5$ -->
     <g transform="translate(73.160158 23.67198) scale(0.1 -0.1)">
      <defs>
       <path id="CMMI12-66" d="M 2854 2566 
C 2982 2566 3034 2566 3034 2687 
C 3034 2752 2982 2752 2867 2752 
L 2349 2752 
C 2470 3398 2560 3846 2611 4051 
C 2650 4204 2784 4351 2950 4351 
C 3085 4351 3219 4294 3283 4236 
C 3034 4211 2957 4025 2957 3916 
C 2957 3788 3053 3712 3174 3712 
C 3302 3712 3494 3820 3494 4064 
C 3494 4332 3226 4480 2944 4480 
C 2669 4480 2400 4275 2272 4025 
C 2157 3801 2093 3573 1946 2752 
L 1517 2752 
C 1395 2752 1331 2752 1331 2636 
C 1331 2566 1370 2566 1498 2566 
L 1907 2566 
C 1792 1977 1530 545 1382 -132 
C 1274 -685 1178 -1152 858 -1152 
C 838 -1152 653 -1152 538 -1031 
C 864 -1005 864 -724 864 -717 
C 864 -589 768 -512 646 -512 
C 518 -512 326 -621 326 -865 
C 326 -1140 608 -1280 858 -1280 
C 1510 -1280 1779 -113 1850 203 
C 1965 691 2278 2376 2310 2566 
L 2854 2566 
z
" transform="scale(0.015625)"/>
       <path id="CMR17-28" d="M 1958 -1562 
C 1958 -1556 1958 -1543 1939 -1524 
C 1645 -1223 858 -403 858 1596 
C 858 3595 1632 4408 1946 4729 
C 1946 4735 1958 4748 1958 4767 
C 1958 4787 1939 4800 1914 4800 
C 1843 4800 1299 4325 986 3620 
C 666 2909 576 2218 576 1603 
C 576 1141 621 360 1005 -467 
C 1312 -1133 1837 -1600 1914 -1600 
C 1946 -1600 1958 -1588 1958 -1562 
z
" transform="scale(0.015625)"/>
       <path id="CMMI12-74" d="M 1286 2566 
L 1875 2566 
C 1997 2566 2061 2566 2061 2681 
C 2061 2752 2022 2752 1894 2752 
L 1331 2752 
L 1568 3664 
C 1594 3752 1594 3764 1594 3808 
C 1594 3910 1510 3968 1427 3968 
C 1376 3968 1229 3948 1178 3746 
L 928 2752 
L 326 2752 
C 198 2752 141 2752 141 2630 
C 141 2566 186 2566 307 2566 
L 877 2566 
L 454 881 
C 403 657 384 593 384 510 
C 384 210 595 -64 954 -64 
C 1600 -64 1946 868 1946 913 
C 1946 951 1920 970 1882 970 
C 1869 970 1843 970 1830 944 
C 1824 938 1818 932 1773 830 
C 1638 510 1344 64 973 64 
C 781 64 768 223 768 364 
C 768 370 768 491 787 568 
L 1286 2566 
z
" transform="scale(0.015625)"/>
       <path id="CMR17-29" d="M 1683 1596 
C 1683 2057 1638 2839 1254 3665 
C 947 4332 422 4800 346 4800 
C 326 4800 301 4793 301 4761 
C 301 4748 307 4742 314 4729 
C 621 4408 1402 3595 1402 1603 
C 1402 -396 627 -1210 314 -1530 
C 307 -1543 301 -1549 301 -1562 
C 301 -1594 326 -1600 346 -1600 
C 416 -1600 960 -1127 1274 -422 
C 1594 289 1683 981 1683 1596 
z
" transform="scale(0.015625)"/>
       <path id="CMMI12-3b" d="M 1248 -26 
C 1248 345 1126 620 864 620 
C 659 620 557 454 557 313 
C 557 172 653 0 870 0 
C 954 0 1024 25 1082 83 
C 1094 96 1101 96 1107 96 
C 1120 96 1120 6 1120 -26 
C 1120 -233 1082 -642 710 -1051 
C 640 -1127 640 -1140 640 -1152 
C 640 -1184 672 -1216 704 -1216 
C 755 -1216 1248 -749 1248 -26 
z
" transform="scale(0.015625)"/>
       <path id="CMMI12-1b" d="M 3251 2406 
C 3334 2406 3546 2406 3546 2611 
C 3546 2752 3424 2752 3309 2752 
L 1894 2752 
C 934 2752 243 1685 243 932 
C 243 389 595 -64 1171 -64 
C 1926 -64 2752 746 2752 1704 
C 2752 1953 2694 2195 2541 2406 
L 3251 2406 
z
M 1178 64 
C 851 64 614 312 614 753 
C 614 1136 845 2406 1786 2406 
C 2061 2406 2368 2272 2368 1780 
C 2368 1557 2266 1021 2042 651 
C 1811 274 1466 64 1178 64 
z
" transform="scale(0.015625)"/>
       <path id="CMR17-3d" d="M 4115 2048 
C 4211 2048 4307 2048 4307 2156 
C 4307 2272 4198 2272 4090 2272 
L 512 2272 
C 403 2272 294 2272 294 2156 
C 294 2048 390 2048 486 2048 
L 4115 2048 
z
M 4090 927 
C 4198 927 4307 927 4307 1043 
C 4307 1152 4211 1152 4115 1152 
L 486 1152 
C 390 1152 294 1152 294 1043 
C 294 927 403 927 512 927 
L 4090 927 
z
" transform="scale(0.015625)"/>
       <path id="CMMI12-21" d="M 3802 2406 
C 3802 2592 3750 2828 3526 2828 
C 3398 2828 3251 2668 3251 2540 
C 3251 2483 3277 2444 3328 2387 
C 3424 2278 3546 2105 3546 1804 
C 3546 1574 3405 1209 3302 1011 
C 3123 659 2829 358 2496 358 
C 2093 358 1939 614 1869 972 
C 1939 1139 2086 1555 2086 1721 
C 2086 1792 2061 1849 1978 1849 
C 1933 1849 1882 1824 1850 1772 
C 1760 1632 1677 1126 1683 992 
C 1562 755 1216 358 806 358 
C 378 358 262 736 262 1100 
C 262 1766 678 2348 794 2508 
C 858 2604 902 2668 902 2681 
C 902 2726 877 2796 819 2796 
C 717 2796 685 2713 634 2636 
C 307 2131 77 1420 77 806 
C 77 409 224 -64 704 -64 
C 1235 -64 1568 390 1702 633 
C 1754 275 1946 -64 2413 -64 
C 2899 -64 3206 364 3437 883 
C 3603 1254 3802 2054 3802 2406 
z
" transform="scale(0.015625)"/>
      </defs>
      <use xlink:href="#CMMI12-66" transform="scale(0.996264)"/>
      <use xlink:href="#CMR17-28" transform="translate(58.720305 0) scale(0.996264)"/>
      <use xlink:href="#CMMI12-74" transform="translate(94.001073 0) scale(0.996264)"/>
      <use xlink:href="#CMR17-29" transform="translate(129.227403 0) scale(0.996264)"/>
      <use xlink:href="#CMMI12-3b" transform="translate(164.508171 0) scale(0.996264)"/>
      <use xlink:href="#CMMI12-1b" transform="translate(224.814158 0) scale(0.996264)"/>
      <use xlink:href="#CMR17-3d" transform="translate(311.508221 0) scale(0.996264)"/>
      <use xlink:href="#CMR17-31" transform="translate(410.897018 0) scale(0.996264)"/>
      <use xlink:href="#CMMI12-3a" transform="translate(456.587495 0) scale(0.996264)"/>
      <use xlink:href="#CMR17-35" transform="translate(483.684672 0) scale(0.996264)"/>
      <use xlink:href="#CMMI12-3b" transform="translate(529.375149 0) scale(0.996264)"/>
      <use xlink:href="#CMMI12-21" transform="translate(589.681137 0) scale(0.996264)"/>
      <use xlink:href="#CMR17-30" transform="translate(650.42489 -14.943915) scale(0.697382)"/>
      <use xlink:href="#CMR17-3d" transform="translate(710.580213 0) scale(0.996264)"/>
      <use xlink:href="#CMR17-35" transform="translate(809.96901 0) scale(0.996264)"/>
     </g>
    </g>
    <g id="line2d_46">
     <path d="M 45.160158 35.13462 
L 55.160158 35.13462 
L 65.160158 35.13462 
" style="fill: none; stroke: #0000ff; stroke-width: 1.5; stroke-linecap: square"/>
    </g>
    <g id="text_16">
     <!-- $f(t),\,\sigma=0.5,\,\omega_0=10$ -->
     <g transform="translate(73.160158 38.63462) scale(0.1 -0.1)">
      <use xlink:href="#CMMI12-66" transform="scale(0.996264)"/>
      <use xlink:href="#CMR17-28" transform="translate(58.720305 0) scale(0.996264)"/>
      <use xlink:href="#CMMI12-74" transform="translate(94.001073 0) scale(0.996264)"/>
      <use xlink:href="#CMR17-29" transform="translate(129.227403 0) scale(0.996264)"/>
      <use xlink:href="#CMMI12-3b" transform="translate(164.508171 0) scale(0.996264)"/>
      <use xlink:href="#CMMI12-1b" transform="translate(224.814158 0) scale(0.996264)"/>
      <use xlink:href="#CMR17-3d" transform="translate(311.508221 0) scale(0.996264)"/>
      <use xlink:href="#CMR17-30" transform="translate(410.897018 0) scale(0.996264)"/>
      <use xlink:href="#CMMI12-3a" transform="translate(456.587495 0) scale(0.996264)"/>
      <use xlink:href="#CMR17-35" transform="translate(483.684672 0) scale(0.996264)"/>
      <use xlink:href="#CMMI12-3b" transform="translate(529.375149 0) scale(0.996264)"/>
      <use xlink:href="#CMMI12-21" transform="translate(589.681137 0) scale(0.996264)"/>
      <use xlink:href="#CMR17-30" transform="translate(650.42489 -14.943915) scale(0.697382)"/>
      <use xlink:href="#CMR17-3d" transform="translate(710.580213 0) scale(0.996264)"/>
      <use xlink:href="#CMR17-31" transform="translate(809.96901 0) scale(0.996264)"/>
      <use xlink:href="#CMR17-30" transform="translate(855.659487 0) scale(0.996264)"/>
     </g>
    </g>
   </g>
  </g>
 </g>
 <defs>
  <clipPath id="p99d875338d">
   <rect x="36.160158" y="7.2" width="425.839362" height="327.301336"/>
  </clipPath>
 </defs>
</svg>
