<?xml version="1.0" encoding="utf-8" standalone="no"?>
<!DOCTYPE svg PUBLIC "-//W3C//DTD SVG 1.1//EN"
  "http://www.w3.org/Graphics/SVG/1.1/DTD/svg11.dtd">
<svg xmlns:xlink="http://www.w3.org/1999/xlink" width="469.19952pt" height="353.99952pt" viewBox="0 0 469.19952 353.99952" xmlns="http://www.w3.org/2000/svg" version="1.1">
 <metadata>
  <rdf:RDF xmlns:dc="http://purl.org/dc/elements/1.1/" xmlns:cc="http://creativecommons.org/ns#" xmlns:rdf="http://www.w3.org/1999/02/22-rdf-syntax-ns#">
   <cc:Work>
    <dc:type rdf:resource="http://purl.org/dc/dcmitype/StillImage"/>
    <dc:date>2025-08-01T18:34:00.015256</dc:date>
    <dc:format>image/svg+xml</dc:format>
    <dc:creator>
     <cc:Agent>
      <dc:title>Matplotlib v3.10.3, https://matplotlib.org/</dc:title>
     </cc:Agent>
    </dc:creator>
   </cc:Work>
  </rdf:RDF>
 </metadata>
 <defs>
  <style type="text/css">*{stroke-linejoin: round; stroke-linecap: butt}</style>
 </defs>
 <g id="figure_1">
  <g id="patch_1">
   <path d="M 0 353.99952 
L 469.19952 353.99952 
L 469.19952 0 
L 0 0 
z
" style="fill: #ffffff"/>
  </g>
  <g id="axes_1">
   <g id="patch_2">
    <path d="M 23.430079 334.501336 
L 461.99952 334.501336 
L 461.99952 7.2 
L 23.430079 7.2 
z
" style="fill: #ffffff"/>
   </g>
   <g id="matplotlib.axis_1">
    <g id="xtick_1">
     <g id="line2d_1">
      <path d="M 43.365054 334.501336 
L 43.365054 7.2 
" clip-path="url(#pc66060f5ff)" style="fill: none; stroke-dasharray: 1.85,0.8; stroke-dashoffset: 0; stroke: #b0b0b0; stroke-width: 0.5"/>
     </g>
     <g id="line2d_2">
      <defs>
       <path id="mf5faeffa26" d="M 0 0 
L 0 -3.5 
" style="stroke: #000000; stroke-width: 0.8"/>
      </defs>
      <g>
       <use xlink:href="#mf5faeffa26" x="43.365054" y="334.501336" style="stroke: #000000; stroke-width: 0.8"/>
      </g>
     </g>
     <g id="line2d_3">
      <defs>
       <path id="m828f2d2193" d="M 0 0 
L 0 3.5 
" style="stroke: #000000; stroke-width: 0.8"/>
      </defs>
      <g>
       <use xlink:href="#m828f2d2193" x="43.365054" y="7.2" style="stroke: #000000; stroke-width: 0.8"/>
      </g>
     </g>
     <g id="text_1">
      <!-- $\mathdefault{−1.5}$ -->
      <g transform="translate(33.125642 344.862813) scale(0.1 -0.1)">
       <defs>
        <path id="CMSY10-0" d="M 4218 1472 
C 4326 1472 4442 1472 4442 1600 
C 4442 1728 4326 1728 4218 1728 
L 755 1728 
C 646 1728 531 1728 531 1600 
C 531 1472 646 1472 755 1472 
L 4218 1472 
z
" transform="scale(0.015625)"/>
        <path id="CMR17-31" d="M 1702 4083 
C 1702 4217 1696 4224 1606 4224 
C 1357 3927 979 3833 621 3820 
C 602 3820 570 3820 563 3808 
C 557 3795 557 3782 557 3648 
C 755 3648 1088 3686 1344 3839 
L 1344 467 
C 1344 243 1331 166 781 166 
L 589 166 
L 589 0 
C 896 6 1216 12 1523 12 
C 1830 12 2150 6 2458 0 
L 2458 166 
L 2266 166 
C 1715 166 1702 236 1702 467 
L 1702 4083 
z
" transform="scale(0.015625)"/>
        <path id="CMMI12-3a" d="M 1178 307 
C 1178 492 1024 620 870 620 
C 685 620 557 467 557 313 
C 557 128 710 0 864 0 
C 1050 0 1178 153 1178 307 
z
" transform="scale(0.015625)"/>
        <path id="CMR17-35" d="M 730 3750 
C 794 3724 1056 3641 1325 3641 
C 1920 3641 2246 3961 2432 4140 
C 2432 4191 2432 4224 2394 4224 
C 2387 4224 2374 4224 2323 4198 
C 2099 4102 1837 4032 1517 4032 
C 1325 4032 1037 4055 723 4191 
C 653 4224 640 4224 634 4224 
C 602 4224 595 4217 595 4090 
L 595 2231 
C 595 2113 595 2080 659 2080 
C 691 2080 704 2093 736 2139 
C 941 2435 1222 2560 1542 2560 
C 1766 2560 2246 2415 2246 1293 
C 2246 1087 2246 716 2054 422 
C 1894 159 1645 25 1370 25 
C 947 25 518 319 403 812 
C 429 806 480 793 506 793 
C 589 793 749 838 749 1036 
C 749 1209 627 1280 506 1280 
C 358 1280 262 1190 262 1011 
C 262 454 704 -128 1382 -128 
C 2042 -128 2669 441 2669 1267 
C 2669 2054 2170 2662 1549 2662 
C 1222 2662 947 2540 730 2304 
L 730 3750 
z
" transform="scale(0.015625)"/>
       </defs>
       <use xlink:href="#CMSY10-0" transform="scale(0.996264)"/>
       <use xlink:href="#CMR17-31" transform="translate(77.487468 0) scale(0.996264)"/>
       <use xlink:href="#CMMI12-3a" transform="translate(123.177945 0) scale(0.996264)"/>
       <use xlink:href="#CMR17-35" transform="translate(150.275122 0) scale(0.996264)"/>
      </g>
     </g>
    </g>
    <g id="xtick_2">
     <g id="line2d_4">
      <path d="M 109.925904 334.501336 
L 109.925904 7.2 
" clip-path="url(#pc66060f5ff)" style="fill: none; stroke-dasharray: 1.85,0.8; stroke-dashoffset: 0; stroke: #b0b0b0; stroke-width: 0.5"/>
     </g>
     <g id="line2d_5">
      <g>
       <use xlink:href="#mf5faeffa26" x="109.925904" y="334.501336" style="stroke: #000000; stroke-width: 0.8"/>
      </g>
     </g>
     <g id="line2d_6">
      <g>
       <use xlink:href="#m828f2d2193" x="109.925904" y="7.2" style="stroke: #000000; stroke-width: 0.8"/>
      </g>
     </g>
     <g id="text_2">
      <!-- $\mathdefault{−1.0}$ -->
      <g transform="translate(99.686492 344.862813) scale(0.1 -0.1)">
       <defs>
        <path id="CMR17-30" d="M 2688 2038 
C 2688 2430 2682 3099 2413 3613 
C 2176 4063 1798 4224 1466 4224 
C 1158 4224 768 4082 525 3620 
C 269 3137 243 2539 243 2038 
C 243 1671 250 1112 448 623 
C 723 -39 1216 -128 1466 -128 
C 1760 -128 2208 -7 2470 604 
C 2662 1048 2688 1568 2688 2038 
z
M 1466 -26 
C 1056 -26 813 328 723 816 
C 653 1196 653 1749 653 2109 
C 653 2604 653 3015 736 3407 
C 858 3954 1216 4121 1466 4121 
C 1728 4121 2067 3947 2189 3420 
C 2272 3054 2278 2623 2278 2109 
C 2278 1691 2278 1176 2202 797 
C 2067 96 1690 -26 1466 -26 
z
" transform="scale(0.015625)"/>
       </defs>
       <use xlink:href="#CMSY10-0" transform="scale(0.996264)"/>
       <use xlink:href="#CMR17-31" transform="translate(77.487468 0) scale(0.996264)"/>
       <use xlink:href="#CMMI12-3a" transform="translate(123.177945 0) scale(0.996264)"/>
       <use xlink:href="#CMR17-30" transform="translate(150.275122 0) scale(0.996264)"/>
      </g>
     </g>
    </g>
    <g id="xtick_3">
     <g id="line2d_7">
      <path d="M 176.486754 334.501336 
L 176.486754 7.2 
" clip-path="url(#pc66060f5ff)" style="fill: none; stroke-dasharray: 1.85,0.8; stroke-dashoffset: 0; stroke: #b0b0b0; stroke-width: 0.5"/>
     </g>
     <g id="line2d_8">
      <g>
       <use xlink:href="#mf5faeffa26" x="176.486754" y="334.501336" style="stroke: #000000; stroke-width: 0.8"/>
      </g>
     </g>
     <g id="line2d_9">
      <g>
       <use xlink:href="#m828f2d2193" x="176.486754" y="7.2" style="stroke: #000000; stroke-width: 0.8"/>
      </g>
     </g>
     <g id="text_3">
      <!-- $\mathdefault{−0.5}$ -->
      <g transform="translate(166.247342 344.862813) scale(0.1 -0.1)">
       <use xlink:href="#CMSY10-0" transform="scale(0.996264)"/>
       <use xlink:href="#CMR17-30" transform="translate(77.487468 0) scale(0.996264)"/>
       <use xlink:href="#CMMI12-3a" transform="translate(123.177945 0) scale(0.996264)"/>
       <use xlink:href="#CMR17-35" transform="translate(150.275122 0) scale(0.996264)"/>
      </g>
     </g>
    </g>
    <g id="xtick_4">
     <g id="line2d_10">
      <path d="M 243.047604 334.501336 
L 243.047604 7.2 
" clip-path="url(#pc66060f5ff)" style="fill: none; stroke-dasharray: 1.85,0.8; stroke-dashoffset: 0; stroke: #b0b0b0; stroke-width: 0.5"/>
     </g>
     <g id="line2d_11">
      <g>
       <use xlink:href="#mf5faeffa26" x="243.047604" y="334.501336" style="stroke: #000000; stroke-width: 0.8"/>
      </g>
     </g>
     <g id="line2d_12">
      <g>
       <use xlink:href="#m828f2d2193" x="243.047604" y="7.2" style="stroke: #000000; stroke-width: 0.8"/>
      </g>
     </g>
     <g id="text_4">
      <!-- $\mathdefault{0.0}$ -->
      <g transform="translate(236.682564 344.862813) scale(0.1 -0.1)">
       <use xlink:href="#CMR17-30" transform="scale(0.996264)"/>
       <use xlink:href="#CMMI12-3a" transform="translate(45.690477 0) scale(0.996264)"/>
       <use xlink:href="#CMR17-30" transform="translate(72.787654 0) scale(0.996264)"/>
      </g>
     </g>
    </g>
    <g id="xtick_5">
     <g id="line2d_13">
      <path d="M 309.608454 334.501336 
L 309.608454 7.2 
" clip-path="url(#pc66060f5ff)" style="fill: none; stroke-dasharray: 1.85,0.8; stroke-dashoffset: 0; stroke: #b0b0b0; stroke-width: 0.5"/>
     </g>
     <g id="line2d_14">
      <g>
       <use xlink:href="#mf5faeffa26" x="309.608454" y="334.501336" style="stroke: #000000; stroke-width: 0.8"/>
      </g>
     </g>
     <g id="line2d_15">
      <g>
       <use xlink:href="#m828f2d2193" x="309.608454" y="7.2" style="stroke: #000000; stroke-width: 0.8"/>
      </g>
     </g>
     <g id="text_5">
      <!-- $\mathdefault{0.5}$ -->
      <g transform="translate(303.243414 344.862813) scale(0.1 -0.1)">
       <use xlink:href="#CMR17-30" transform="scale(0.996264)"/>
       <use xlink:href="#CMMI12-3a" transform="translate(45.690477 0) scale(0.996264)"/>
       <use xlink:href="#CMR17-35" transform="translate(72.787654 0) scale(0.996264)"/>
      </g>
     </g>
    </g>
    <g id="xtick_6">
     <g id="line2d_16">
      <path d="M 376.169304 334.501336 
L 376.169304 7.2 
" clip-path="url(#pc66060f5ff)" style="fill: none; stroke-dasharray: 1.85,0.8; stroke-dashoffset: 0; stroke: #b0b0b0; stroke-width: 0.5"/>
     </g>
     <g id="line2d_17">
      <g>
       <use xlink:href="#mf5faeffa26" x="376.169304" y="334.501336" style="stroke: #000000; stroke-width: 0.8"/>
      </g>
     </g>
     <g id="line2d_18">
      <g>
       <use xlink:href="#m828f2d2193" x="376.169304" y="7.2" style="stroke: #000000; stroke-width: 0.8"/>
      </g>
     </g>
     <g id="text_6">
      <!-- $\mathdefault{1.0}$ -->
      <g transform="translate(369.804264 344.862813) scale(0.1 -0.1)">
       <use xlink:href="#CMR17-31" transform="scale(0.996264)"/>
       <use xlink:href="#CMMI12-3a" transform="translate(45.690477 0) scale(0.996264)"/>
       <use xlink:href="#CMR17-30" transform="translate(72.787654 0) scale(0.996264)"/>
      </g>
     </g>
    </g>
    <g id="xtick_7">
     <g id="line2d_19">
      <path d="M 442.730154 334.501336 
L 442.730154 7.2 
" clip-path="url(#pc66060f5ff)" style="fill: none; stroke-dasharray: 1.85,0.8; stroke-dashoffset: 0; stroke: #b0b0b0; stroke-width: 0.5"/>
     </g>
     <g id="line2d_20">
      <g>
       <use xlink:href="#mf5faeffa26" x="442.730154" y="334.501336" style="stroke: #000000; stroke-width: 0.8"/>
      </g>
     </g>
     <g id="line2d_21">
      <g>
       <use xlink:href="#m828f2d2193" x="442.730154" y="7.2" style="stroke: #000000; stroke-width: 0.8"/>
      </g>
     </g>
     <g id="text_7">
      <!-- $\mathdefault{1.5}$ -->
      <g transform="translate(436.365114 344.862813) scale(0.1 -0.1)">
       <use xlink:href="#CMR17-31" transform="scale(0.996264)"/>
       <use xlink:href="#CMMI12-3a" transform="translate(45.690477 0) scale(0.996264)"/>
       <use xlink:href="#CMR17-35" transform="translate(72.787654 0) scale(0.996264)"/>
      </g>
     </g>
    </g>
   </g>
   <g id="matplotlib.axis_2">
    <g id="ytick_1">
     <g id="line2d_22">
      <path d="M 23.430079 294.781168 
L 461.99952 294.781168 
" clip-path="url(#pc66060f5ff)" style="fill: none; stroke-dasharray: 1.85,0.8; stroke-dashoffset: 0; stroke: #b0b0b0; stroke-width: 0.5"/>
     </g>
     <g id="line2d_23">
      <defs>
       <path id="md9f5c24641" d="M 0 0 
L 3.5 0 
" style="stroke: #000000; stroke-width: 0.8"/>
      </defs>
      <g>
       <use xlink:href="#md9f5c24641" x="23.430079" y="294.781168" style="stroke: #000000; stroke-width: 0.8"/>
      </g>
     </g>
     <g id="line2d_24">
      <defs>
       <path id="m4aa6cb8236" d="M 0 0 
L -3.5 0 
" style="stroke: #000000; stroke-width: 0.8"/>
      </defs>
      <g>
       <use xlink:href="#m4aa6cb8236" x="461.99952" y="294.781168" style="stroke: #000000; stroke-width: 0.8"/>
      </g>
     </g>
     <g id="text_8">
      <!-- $\mathdefault{0.0}$ -->
      <g transform="translate(7.2 298.211906) scale(0.1 -0.1)">
       <use xlink:href="#CMR17-30" transform="scale(0.996264)"/>
       <use xlink:href="#CMMI12-3a" transform="translate(45.690477 0) scale(0.996264)"/>
       <use xlink:href="#CMR17-30" transform="translate(72.787654 0) scale(0.996264)"/>
      </g>
     </g>
    </g>
    <g id="ytick_2">
     <g id="line2d_25">
      <path d="M 23.430079 245.209017 
L 461.99952 245.209017 
" clip-path="url(#pc66060f5ff)" style="fill: none; stroke-dasharray: 1.85,0.8; stroke-dashoffset: 0; stroke: #b0b0b0; stroke-width: 0.5"/>
     </g>
     <g id="line2d_26">
      <g>
       <use xlink:href="#md9f5c24641" x="23.430079" y="245.209017" style="stroke: #000000; stroke-width: 0.8"/>
      </g>
     </g>
     <g id="line2d_27">
      <g>
       <use xlink:href="#m4aa6cb8236" x="461.99952" y="245.209017" style="stroke: #000000; stroke-width: 0.8"/>
      </g>
     </g>
     <g id="text_9">
      <!-- $\mathdefault{0.2}$ -->
      <g transform="translate(7.2 248.639756) scale(0.1 -0.1)">
       <defs>
        <path id="CMR17-32" d="M 2669 990 
L 2554 990 
C 2490 537 2438 460 2413 422 
C 2381 371 1920 371 1830 371 
L 602 371 
C 832 620 1280 1073 1824 1596 
C 2214 1966 2669 2400 2669 3033 
C 2669 3788 2067 4224 1395 4224 
C 691 4224 262 3603 262 3027 
C 262 2777 448 2745 525 2745 
C 589 2745 781 2783 781 3007 
C 781 3206 614 3264 525 3264 
C 486 3264 448 3257 422 3244 
C 544 3788 915 4057 1306 4057 
C 1862 4057 2227 3616 2227 3033 
C 2227 2477 1901 1998 1536 1583 
L 262 147 
L 262 0 
L 2515 0 
L 2669 990 
z
" transform="scale(0.015625)"/>
       </defs>
       <use xlink:href="#CMR17-30" transform="scale(0.996264)"/>
       <use xlink:href="#CMMI12-3a" transform="translate(45.690477 0) scale(0.996264)"/>
       <use xlink:href="#CMR17-32" transform="translate(72.787654 0) scale(0.996264)"/>
      </g>
     </g>
    </g>
    <g id="ytick_3">
     <g id="line2d_28">
      <path d="M 23.430079 195.636867 
L 461.99952 195.636867 
" clip-path="url(#pc66060f5ff)" style="fill: none; stroke-dasharray: 1.85,0.8; stroke-dashoffset: 0; stroke: #b0b0b0; stroke-width: 0.5"/>
     </g>
     <g id="line2d_29">
      <g>
       <use xlink:href="#md9f5c24641" x="23.430079" y="195.636867" style="stroke: #000000; stroke-width: 0.8"/>
      </g>
     </g>
     <g id="line2d_30">
      <g>
       <use xlink:href="#m4aa6cb8236" x="461.99952" y="195.636867" style="stroke: #000000; stroke-width: 0.8"/>
      </g>
     </g>
     <g id="text_10">
      <!-- $\mathdefault{0.4}$ -->
      <g transform="translate(7.2 199.067606) scale(0.1 -0.1)">
       <defs>
        <path id="CMR17-34" d="M 2150 4147 
C 2150 4281 2144 4288 2029 4288 
L 128 1254 
L 128 1088 
L 1779 1088 
L 1779 460 
C 1779 230 1766 166 1318 166 
L 1197 166 
L 1197 0 
C 1402 12 1747 12 1965 12 
C 2182 12 2528 12 2733 0 
L 2733 166 
L 2611 166 
C 2163 166 2150 230 2150 460 
L 2150 1088 
L 2803 1088 
L 2803 1254 
L 2150 1254 
L 2150 4147 
z
M 1798 3723 
L 1798 1254 
L 256 1254 
L 1798 3723 
z
" transform="scale(0.015625)"/>
       </defs>
       <use xlink:href="#CMR17-30" transform="scale(0.996264)"/>
       <use xlink:href="#CMMI12-3a" transform="translate(45.690477 0) scale(0.996264)"/>
       <use xlink:href="#CMR17-34" transform="translate(72.787654 0) scale(0.996264)"/>
      </g>
     </g>
    </g>
    <g id="ytick_4">
     <g id="line2d_31">
      <path d="M 23.430079 146.064717 
L 461.99952 146.064717 
" clip-path="url(#pc66060f5ff)" style="fill: none; stroke-dasharray: 1.85,0.8; stroke-dashoffset: 0; stroke: #b0b0b0; stroke-width: 0.5"/>
     </g>
     <g id="line2d_32">
      <g>
       <use xlink:href="#md9f5c24641" x="23.430079" y="146.064717" style="stroke: #000000; stroke-width: 0.8"/>
      </g>
     </g>
     <g id="line2d_33">
      <g>
       <use xlink:href="#m4aa6cb8236" x="461.99952" y="146.064717" style="stroke: #000000; stroke-width: 0.8"/>
      </g>
     </g>
     <g id="text_11">
      <!-- $\mathdefault{0.6}$ -->
      <g transform="translate(7.2 149.495455) scale(0.1 -0.1)">
       <defs>
        <path id="CMR17-36" d="M 678 2198 
C 678 3712 1395 4076 1811 4076 
C 1946 4076 2272 4049 2400 3782 
C 2298 3782 2106 3782 2106 3558 
C 2106 3385 2246 3328 2336 3328 
C 2394 3328 2566 3353 2566 3571 
C 2566 3987 2246 4224 1805 4224 
C 1043 4224 243 3411 243 2011 
C 243 257 966 -128 1478 -128 
C 2099 -128 2688 431 2688 1295 
C 2688 2101 2170 2688 1517 2688 
C 1126 2688 838 2430 678 1979 
L 678 2198 
z
M 1478 25 
C 691 25 691 1212 691 1450 
C 691 1914 909 2585 1504 2585 
C 1613 2585 1926 2585 2138 2140 
C 2253 1889 2253 1624 2253 1302 
C 2253 954 2253 696 2118 438 
C 1978 173 1773 25 1478 25 
z
" transform="scale(0.015625)"/>
       </defs>
       <use xlink:href="#CMR17-30" transform="scale(0.996264)"/>
       <use xlink:href="#CMMI12-3a" transform="translate(45.690477 0) scale(0.996264)"/>
       <use xlink:href="#CMR17-36" transform="translate(72.787654 0) scale(0.996264)"/>
      </g>
     </g>
    </g>
    <g id="ytick_5">
     <g id="line2d_34">
      <path d="M 23.430079 96.492567 
L 461.99952 96.492567 
" clip-path="url(#pc66060f5ff)" style="fill: none; stroke-dasharray: 1.85,0.8; stroke-dashoffset: 0; stroke: #b0b0b0; stroke-width: 0.5"/>
     </g>
     <g id="line2d_35">
      <g>
       <use xlink:href="#md9f5c24641" x="23.430079" y="96.492567" style="stroke: #000000; stroke-width: 0.8"/>
      </g>
     </g>
     <g id="line2d_36">
      <g>
       <use xlink:href="#m4aa6cb8236" x="461.99952" y="96.492567" style="stroke: #000000; stroke-width: 0.8"/>
      </g>
     </g>
     <g id="text_12">
      <!-- $\mathdefault{0.8}$ -->
      <g transform="translate(7.2 99.923305) scale(0.1 -0.1)">
       <defs>
        <path id="CMR17-38" d="M 1741 2289 
C 2144 2494 2554 2803 2554 3298 
C 2554 3884 1990 4224 1472 4224 
C 890 4224 378 3800 378 3215 
C 378 3054 416 2777 666 2533 
C 730 2469 998 2276 1171 2154 
C 883 2006 211 1652 211 945 
C 211 282 838 -128 1459 -128 
C 2144 -128 2720 366 2720 1022 
C 2720 1607 2330 1877 2074 2051 
L 1741 2289 
z
M 902 2855 
C 851 2887 595 3086 595 3388 
C 595 3781 998 4076 1459 4076 
C 1965 4076 2336 3716 2336 3298 
C 2336 2700 1670 2359 1638 2359 
C 1632 2359 1626 2359 1574 2398 
L 902 2855 
z
M 2080 1536 
C 2176 1466 2483 1253 2483 861 
C 2483 385 2010 25 1472 25 
C 890 25 448 443 448 951 
C 448 1459 838 1884 1280 2083 
L 2080 1536 
z
" transform="scale(0.015625)"/>
       </defs>
       <use xlink:href="#CMR17-30" transform="scale(0.996264)"/>
       <use xlink:href="#CMMI12-3a" transform="translate(45.690477 0) scale(0.996264)"/>
       <use xlink:href="#CMR17-38" transform="translate(72.787654 0) scale(0.996264)"/>
      </g>
     </g>
    </g>
    <g id="ytick_6">
     <g id="line2d_37">
      <path d="M 23.430079 46.920417 
L 461.99952 46.920417 
" clip-path="url(#pc66060f5ff)" style="fill: none; stroke-dasharray: 1.85,0.8; stroke-dashoffset: 0; stroke: #b0b0b0; stroke-width: 0.5"/>
     </g>
     <g id="line2d_38">
      <g>
       <use xlink:href="#md9f5c24641" x="23.430079" y="46.920417" style="stroke: #000000; stroke-width: 0.8"/>
      </g>
     </g>
     <g id="line2d_39">
      <g>
       <use xlink:href="#m4aa6cb8236" x="461.99952" y="46.920417" style="stroke: #000000; stroke-width: 0.8"/>
      </g>
     </g>
     <g id="text_13">
      <!-- $\mathdefault{1.0}$ -->
      <g transform="translate(7.2 50.351155) scale(0.1 -0.1)">
       <use xlink:href="#CMR17-31" transform="scale(0.996264)"/>
       <use xlink:href="#CMMI12-3a" transform="translate(45.690477 0) scale(0.996264)"/>
       <use xlink:href="#CMR17-30" transform="translate(72.787654 0) scale(0.996264)"/>
      </g>
     </g>
    </g>
   </g>
   <g id="line2d_40">
    <path d="M 43.365054 46.920417 
L 44.030662 294.781168 
L 109.260295 294.781168 
L 109.925904 46.920417 
L 176.486754 46.920417 
L 177.152362 294.781168 
L 242.381995 294.781168 
L 243.047604 46.920417 
L 309.608454 46.920417 
L 310.274062 294.781168 
L 375.503695 294.781168 
L 376.169304 46.920417 
L 442.064545 46.920417 
L 442.064545 46.920417 
" clip-path="url(#pc66060f5ff)" style="fill: none; stroke: #ff0000; stroke-width: 1.5; stroke-linecap: square"/>
   </g>
   <g id="line2d_41">
    <path d="M 43.365054 170.938783 
L 46.693096 219.496191 
L 48.689922 246.172452 
L 50.686747 269.638421 
L 52.017964 283.062212 
L 53.349181 294.484783 
L 54.680398 303.783966 
L 56.011615 310.903741 
L 56.677224 313.647238 
L 57.342832 315.855305 
L 58.008441 317.539568 
L 58.674049 318.715668 
L 59.339658 319.402787 
L 60.005266 319.623755 
L 60.670875 319.404919 
L 61.336483 318.77508 
L 62.002092 317.766386 
L 62.6677 316.412967 
L 63.998917 312.820052 
L 65.330134 308.306879 
L 67.32696 300.528563 
L 69.989394 289.989201 
L 71.320611 285.331303 
L 72.651828 281.42938 
L 73.983045 278.489652 
L 74.648653 277.430593 
L 75.314262 276.664976 
L 75.97987 276.202517 
L 76.645479 276.049265 
L 77.311087 276.207127 
L 77.976696 276.674097 
L 78.642304 277.444151 
L 79.307913 278.507449 
L 79.973521 279.85016 
L 81.304738 283.300704 
L 82.635955 287.615042 
L 84.632781 295.190453 
L 87.960823 308.342819 
L 89.29204 312.850415 
L 90.623257 316.435374 
L 91.288866 317.783959 
L 91.954474 318.787299 
L 92.620083 319.411314 
L 93.285691 319.624003 
L 93.9513 319.396169 
L 94.616908 318.702011 
L 95.282517 317.518525 
L 95.948125 315.826652 
L 96.613734 313.610728 
L 97.279342 310.859275 
L 98.610559 303.723339 
L 99.941776 294.408199 
L 101.272993 282.97033 
L 102.60421 269.532584 
L 103.935427 254.280721 
L 105.932253 228.548066 
L 108.594687 190.556465 
L 113.919555 113.046443 
L 115.91638 87.32618 
L 117.913206 65.131242 
L 119.244423 52.685658 
L 120.57564 42.310207 
L 121.906857 34.096101 
L 123.238074 28.060692 
L 123.903682 25.852253 
L 124.569291 24.1668 
L 125.234899 22.989461 
L 125.900508 22.300408 
L 126.566116 22.077333 
L 127.231725 22.295451 
L 127.897333 22.925017 
L 128.562942 23.931332 
L 129.22855 25.284652 
L 130.559767 28.876154 
L 131.890984 33.38722 
L 133.88781 41.16509 
L 136.550244 51.705121 
L 137.881461 56.363911 
L 139.212678 60.266974 
L 140.543895 63.208338 
L 141.209503 64.268191 
L 141.875112 65.034824 
L 142.54072 65.498076 
L 143.206329 65.652245 
L 143.871937 65.495349 
L 144.537546 65.029371 
L 145.203154 64.260011 
L 145.868763 63.19768 
L 146.534371 61.855762 
L 147.865588 58.406532 
L 149.196805 54.093507 
L 151.193631 46.518882 
L 154.521673 33.364912 
L 155.85289 28.856325 
L 157.184107 25.26978 
L 157.849716 23.921417 
L 158.515324 22.917581 
L 159.180933 22.290494 
L 159.846541 22.077333 
L 160.51215 22.302887 
L 161.177758 22.996897 
L 161.843367 24.179193 
L 162.508975 25.869603 
L 163.174584 28.082999 
L 163.840192 30.834254 
L 165.171409 37.965208 
L 166.502626 47.27808 
L 167.833843 58.712888 
L 169.16506 72.147932 
L 170.496277 87.397317 
L 172.493103 113.12675 
L 175.155537 151.115871 
L 180.480405 228.628373 
L 182.47723 254.351857 
L 184.474056 276.550563 
L 185.805273 288.998948 
L 187.13649 299.377324 
L 188.467707 307.596139 
L 189.798924 313.632663 
L 190.464532 315.843854 
L 191.130141 317.531191 
L 191.795749 318.710215 
L 192.461358 319.400185 
L 193.126966 319.624003 
L 193.792575 319.407422 
L 194.458183 318.779963 
L 195.123792 317.773351 
L 195.7894 316.421915 
L 197.120617 312.832197 
L 198.451834 308.32128 
L 200.44866 300.544451 
L 203.111094 290.003924 
L 204.442311 285.344117 
L 205.773528 281.439592 
L 207.104745 278.496766 
L 207.770353 277.436021 
L 208.435962 276.668595 
L 209.10157 276.204351 
L 209.767179 276.049265 
L 210.432787 276.205269 
L 211.098396 276.670429 
L 211.764004 277.438748 
L 212.429613 278.50031 
L 213.095221 279.841435 
L 214.426438 283.289129 
L 215.757655 287.601237 
L 217.754481 295.174676 
L 221.082523 308.328418 
L 222.41374 312.83827 
L 223.744957 316.426426 
L 224.410566 317.77687 
L 225.076174 318.782417 
L 225.741783 319.408711 
L 226.407391 319.624003 
L 227.073 319.398846 
L 227.738608 318.707463 
L 228.404217 317.526977 
L 229.069825 315.838103 
L 229.735434 313.625351 
L 230.401042 310.877071 
L 231.732259 303.747605 
L 233.063476 294.438855 
L 234.39468 283.007113 
L 235.725897 269.574969 
L 237.057114 254.32831 
L 239.053939 228.601851 
L 241.716388 190.614465 
L 247.041255 113.099981 
L 249.03808 87.373522 
L 251.034892 65.170899 
L 252.366109 52.719367 
L 253.697326 42.337471 
L 255.028543 34.11593 
L 256.35976 28.075564 
L 257.025382 25.864646 
L 257.690991 24.174235 
L 258.356599 22.994418 
L 259.022208 22.302887 
L 259.687816 22.077333 
L 260.353425 22.292972 
L 261.019033 22.92006 
L 261.684642 23.923896 
L 262.35025 25.274737 
L 263.681467 28.863761 
L 265.012684 33.372348 
L 267.00951 41.150218 
L 269.671944 51.690249 
L 271.003161 56.351022 
L 272.334378 60.256812 
L 273.665595 63.201398 
L 274.331203 64.262738 
L 274.996812 65.031106 
L 275.66242 65.496341 
L 276.328029 65.652245 
L 276.993637 65.497332 
L 277.659246 65.033089 
L 278.324854 64.265464 
L 278.990463 63.204868 
L 279.656071 61.864437 
L 280.987288 58.418181 
L 282.318505 54.107139 
L 284.315331 46.533754 
L 287.643373 33.379784 
L 288.97459 28.868718 
L 290.305807 25.279694 
L 290.971416 23.928853 
L 291.637024 22.922539 
L 292.302633 22.292972 
L 292.968241 22.077333 
L 293.63385 22.300408 
L 294.299458 22.99194 
L 294.965067 24.169278 
L 295.630675 25.85721 
L 296.296284 28.068128 
L 296.961892 30.814425 
L 298.293109 37.9429 
L 299.624326 47.247345 
L 300.955543 58.676204 
L 302.28676 72.1053 
L 303.617977 87.349727 
L 305.614803 113.072964 
L 308.277237 151.05812 
L 313.602105 228.574835 
L 315.59893 254.30402 
L 317.595756 276.510906 
L 318.926973 288.965214 
L 320.25819 299.349861 
L 321.589407 307.575046 
L 322.920624 313.61799 
L 323.586232 315.832378 
L 324.251841 317.522739 
L 324.917449 318.704737 
L 325.583058 319.397483 
L 326.248666 319.624003 
L 326.914275 319.409975 
L 327.579883 318.784846 
L 328.245492 317.780439 
L 328.9111 316.430912 
L 330.242317 312.844342 
L 331.573534 308.335631 
L 333.57036 300.560314 
L 336.232794 290.018499 
L 337.564011 285.356882 
L 338.895228 281.449829 
L 340.226445 278.50388 
L 340.892053 277.441474 
L 341.557662 276.672263 
L 342.22327 276.20621 
L 342.888879 276.049265 
L 343.554487 276.203434 
L 344.220096 276.666785 
L 344.885704 277.433295 
L 345.551313 278.493197 
L 346.216921 279.832661 
L 347.548138 283.277504 
L 348.879355 287.587356 
L 350.876181 295.158925 
L 354.204223 308.314043 
L 355.53544 312.826124 
L 356.866657 316.417453 
L 357.532266 317.769757 
L 358.197874 318.777534 
L 358.863483 319.406109 
L 359.529091 319.623755 
L 360.1947 319.401449 
L 360.860308 318.712941 
L 361.525917 317.53538 
L 362.191525 315.849579 
L 362.857134 313.639975 
L 363.522742 310.894868 
L 364.853959 303.771846 
L 366.185176 294.469475 
L 367.516393 283.043846 
L 368.84761 269.617353 
L 370.178827 254.375652 
L 372.175653 228.655142 
L 374.838087 190.672464 
L 380.162955 113.153519 
L 382.15978 87.421111 
L 384.156606 65.210557 
L 385.487823 52.753324 
L 386.81904 42.364736 
L 388.150257 34.138238 
L 389.481474 28.090435 
L 390.147082 25.87456 
L 390.812691 24.18415 
L 391.478299 22.999375 
L 392.143908 22.305365 
L 392.809516 22.077333 
L 393.475125 22.290494 
L 394.140733 22.915103 
L 394.806342 23.91646 
L 395.47195 25.267301 
L 396.803167 28.851368 
L 398.134384 33.359955 
L 400.13121 41.132868 
L 402.793644 51.675625 
L 404.124861 56.338382 
L 405.456078 60.24665 
L 406.787295 63.19421 
L 407.452903 64.257285 
L 408.118512 65.027388 
L 408.78412 65.494358 
L 409.449729 65.652245 
L 410.115337 65.499067 
L 410.780946 65.036559 
L 411.446554 64.270917 
L 412.112163 63.212056 
L 412.777771 61.87336 
L 414.108988 58.429831 
L 415.440205 54.121019 
L 417.437031 46.551104 
L 420.765073 33.394655 
L 422.09629 28.881111 
L 423.427507 25.289609 
L 424.093116 23.936289 
L 424.758724 22.927496 
L 425.424333 22.29793 
L 426.089941 22.077333 
L 426.75555 22.29793 
L 427.421158 22.986982 
L 428.086767 24.161842 
L 428.752375 25.847295 
L 429.417984 28.053256 
L 430.083592 30.797075 
L 431.414809 37.918114 
L 432.746026 47.216858 
L 434.077243 58.639273 
L 435.40846 72.062915 
L 436.739677 87.302138 
L 438.736503 113.019922 
L 441.398937 151.00012 
L 442.064545 160.856799 
L 442.064545 160.856799 
" clip-path="url(#pc66060f5ff)" style="fill: none; stroke: #008000; stroke-width: 1.5; stroke-linecap: square"/>
   </g>
   <g id="line2d_42">
    <path d="M 43.365054 171.245634 
L 44.696271 254.31096 
L 45.361879 285.336161 
L 46.027488 305.95535 
L 46.693096 315.812871 
L 47.358705 316.311765 
L 48.024313 310.19253 
L 49.35553 291.631452 
L 50.021139 285.059127 
L 50.686747 282.504823 
L 51.352356 284.019822 
L 52.017964 288.544049 
L 53.349181 299.571746 
L 54.01479 302.766621 
L 54.680398 303.220628 
L 55.346007 301.086423 
L 57.342832 289.634686 
L 58.008441 288.091456 
L 58.674049 288.691254 
L 59.339658 291.102171 
L 60.670875 297.746524 
L 61.336483 299.925047 
L 62.002092 300.417819 
L 62.6677 299.163643 
L 63.333309 296.628709 
L 64.664526 291.127527 
L 65.330134 289.834685 
L 65.995743 290.109662 
L 66.661351 291.813481 
L 67.992568 296.995625 
L 68.658177 298.860435 
L 69.323785 299.420873 
L 69.989394 298.535837 
L 70.655002 296.507909 
L 71.986219 291.746286 
L 72.651828 290.48356 
L 73.317436 290.571327 
L 73.983045 291.96837 
L 75.97987 298.482026 
L 76.645479 299.15472 
L 77.311087 298.46242 
L 77.976696 296.618857 
L 79.307913 291.940089 
L 79.973521 290.560273 
L 80.63913 290.493028 
L 81.304738 291.773873 
L 83.301564 298.558789 
L 83.967172 299.4236 
L 84.632781 298.841746 
L 85.298389 296.960845 
L 86.629606 291.780218 
L 87.295215 290.094195 
L 87.960823 289.842542 
L 88.626432 291.157171 
L 89.29204 293.683717 
L 90.623257 299.193312 
L 91.288866 300.423941 
L 91.954474 299.904524 
L 92.620083 297.704338 
L 93.9513 291.056986 
L 94.616908 288.667633 
L 95.282517 288.098619 
L 95.948125 289.672634 
L 96.613734 293.056067 
L 97.944951 301.133145 
L 98.610559 303.234136 
L 99.276168 302.738737 
L 99.941776 299.506707 
L 101.938602 283.97206 
L 102.60421 282.51159 
L 103.269819 285.128454 
L 103.935427 291.752904 
L 105.266644 310.314601 
L 105.932253 316.360396 
L 106.597861 315.740843 
L 107.26347 305.730887 
L 107.929078 284.950986 
L 108.594687 253.784504 
L 109.925904 170.587564 
L 111.257121 87.495469 
L 111.922729 56.442235 
L 112.588338 35.791469 
L 113.253946 25.901825 
L 113.919555 25.378839 
L 114.585163 31.483649 
L 115.91638 50.045941 
L 116.581989 56.628874 
L 117.247597 59.195472 
L 117.913206 57.691206 
L 118.578814 53.173695 
L 119.910031 42.14414 
L 120.57564 38.9393 
L 121.241248 38.478279 
L 121.906857 40.604925 
L 123.903682 52.059314 
L 124.569291 53.608691 
L 125.234899 53.015065 
L 125.900508 50.608337 
L 127.231725 43.963438 
L 127.897333 41.779785 
L 128.562942 41.281584 
L 129.22855 42.533281 
L 129.894159 45.06394 
L 131.225376 50.568183 
L 131.890984 51.865486 
L 132.556593 51.59507 
L 133.222201 49.894746 
L 134.553418 44.711977 
L 135.219027 42.845586 
L 135.884635 42.280463 
L 136.550244 43.160369 
L 137.215852 45.185391 
L 138.547069 49.949771 
L 139.212678 51.216091 
L 139.878286 51.132314 
L 140.543895 49.738841 
L 142.54072 43.222334 
L 143.206329 42.545674 
L 143.871937 43.234727 
L 144.537546 45.076333 
L 145.868763 49.755944 
L 146.534371 51.139007 
L 147.19998 51.210638 
L 147.865588 49.933164 
L 149.862414 43.147976 
L 150.528022 42.277985 
L 151.193631 42.8555 
L 151.859239 44.734285 
L 153.190456 49.914574 
L 153.856065 51.604241 
L 154.521673 51.860777 
L 155.187282 50.550337 
L 155.85289 48.026619 
L 157.184107 42.513452 
L 157.849716 41.279106 
L 158.515324 41.792178 
L 159.180933 43.988224 
L 160.51215 50.635601 
L 161.177758 53.029193 
L 161.843367 53.604477 
L 162.508975 52.03651 
L 163.174584 48.657425 
L 164.505801 40.57766 
L 165.171409 38.470844 
L 165.837018 38.956651 
L 166.502626 42.181319 
L 168.499452 57.719957 
L 169.16506 59.191259 
L 169.830669 56.586986 
L 170.496277 49.972822 
L 171.827494 31.411769 
L 172.493103 25.351574 
L 173.158711 25.94644 
L 173.82432 35.925314 
L 174.489928 56.672994 
L 175.155537 87.811244 
L 176.486754 170.982406 
L 177.817971 254.100774 
L 178.483579 285.182413 
L 179.149188 305.865897 
L 179.814796 315.784392 
L 180.480405 316.331545 
L 181.146013 310.241457 
L 182.47723 291.680108 
L 183.142839 285.086739 
L 183.808447 282.507475 
L 184.474056 284.000737 
L 185.139664 288.511604 
L 186.470881 299.545572 
L 187.13649 302.755468 
L 187.802098 303.226131 
L 188.467707 301.105137 
L 190.464532 289.649905 
L 191.130141 288.094306 
L 191.795749 288.681761 
L 192.461358 291.084151 
L 193.792575 297.72967 
L 194.458183 299.916867 
L 195.123792 300.420173 
L 195.7894 299.17559 
L 196.455009 296.645886 
L 197.786226 291.139424 
L 198.451834 289.837659 
L 199.117443 290.103366 
L 199.783051 291.800246 
L 201.114268 296.981715 
L 201.779877 298.852851 
L 202.445485 299.422038 
L 203.111094 298.545156 
L 203.776702 296.52239 
L 205.107919 291.75739 
L 205.773528 290.487253 
L 206.439136 290.566915 
L 207.104745 291.956993 
L 209.10157 298.474243 
L 209.767179 299.154745 
L 210.432787 298.470302 
L 211.098396 296.632219 
L 212.429613 291.951342 
L 213.095221 290.564685 
L 213.76083 290.489186 
L 214.426438 291.762843 
L 216.423264 298.549692 
L 217.088872 299.422608 
L 217.754481 298.849133 
L 218.420089 296.974812 
L 219.751306 291.793653 
L 220.416915 290.100342 
L 221.082523 289.83927 
L 221.748132 291.145298 
L 222.41374 293.666501 
L 223.744957 299.181514 
L 224.410566 300.421437 
L 225.076174 299.912728 
L 225.741783 297.721242 
L 227.073 291.075104 
L 227.738608 288.677051 
L 228.404217 288.095694 
L 229.069825 289.65744 
L 229.735434 293.032443 
L 231.066651 301.114506 
L 231.732259 303.228807 
L 232.397868 302.74994 
L 233.063476 299.532683 
L 235.060288 283.991244 
L 235.725897 282.508814 
L 236.391505 285.100495 
L 237.057114 291.704274 
L 238.388331 310.265649 
L 239.053939 316.341137 
L 239.719561 315.769942 
L 240.38517 305.82096 
L 241.050778 285.105378 
L 241.716388 253.995433 
L 243.047604 170.850792 
L 244.378819 87.706151 
L 245.044429 56.596157 
L 245.710038 35.880699 
L 246.375646 25.931568 
L 247.041255 25.361488 
L 247.706863 31.436555 
L 249.03808 49.997112 
L 249.703689 56.601114 
L 250.369284 59.192746 
L 251.034892 57.710291 
L 251.700501 53.206165 
L 253.031718 42.168926 
L 253.697326 38.951693 
L 254.362935 38.473322 
L 255.028543 40.587574 
L 257.025382 52.044194 
L 257.690991 53.605965 
L 258.356599 53.024483 
L 259.022208 50.626431 
L 260.353425 43.980788 
L 261.019033 41.789699 
L 261.684642 41.279106 
L 262.35025 42.520888 
L 263.015859 45.046589 
L 264.347076 50.556286 
L 265.012684 51.862264 
L 265.678293 51.601267 
L 266.343901 49.907882 
L 267.675118 44.726849 
L 268.340727 42.853022 
L 269.006335 42.277985 
L 269.671944 43.152933 
L 270.337552 45.172998 
L 271.668769 49.938617 
L 272.334378 51.212373 
L 272.999986 51.137024 
L 273.665595 49.750243 
L 275.66242 43.232249 
L 276.328029 42.545674 
L 276.993637 43.227291 
L 277.659246 45.06394 
L 278.990463 49.744542 
L 279.656071 51.134793 
L 280.32168 51.214356 
L 280.987288 49.944318 
L 282.984114 43.155412 
L 283.649722 42.280463 
L 284.315331 42.848064 
L 284.980939 44.719413 
L 286.312156 49.901438 
L 286.977765 51.598293 
L 287.643373 51.863999 
L 288.308982 50.562235 
L 288.97459 48.043721 
L 290.305807 42.525845 
L 290.971416 41.281584 
L 291.637024 41.784742 
L 292.302633 43.970874 
L 293.63385 50.617508 
L 294.299458 53.019774 
L 294.965067 53.607204 
L 295.630675 52.05163 
L 296.296284 48.680971 
L 297.627501 40.597489 
L 298.293109 38.475801 
L 298.958718 38.946736 
L 299.624326 42.156533 
L 301.621152 57.700872 
L 302.28676 59.193985 
L 302.952369 56.614994 
L 303.617977 50.02165 
L 304.949194 31.461342 
L 305.614803 25.368924 
L 306.280411 25.916697 
L 306.94602 35.836084 
L 307.611628 56.51932 
L 308.277237 87.60081 
L 309.608454 170.719178 
L 310.939671 253.890092 
L 311.605279 285.027599 
L 312.270888 305.775973 
L 312.936496 315.755293 
L 313.602105 316.350927 
L 314.267713 310.290385 
L 315.59893 291.729035 
L 316.264539 285.114499 
L 316.930147 282.510152 
L 317.595756 283.981602 
L 318.261364 288.479531 
L 319.592581 299.519695 
L 320.25819 302.744314 
L 320.923798 303.231484 
L 321.589407 301.123949 
L 323.586232 289.665074 
L 324.251841 288.097132 
L 324.917449 288.672342 
L 325.583058 291.066033 
L 326.914275 297.712691 
L 327.579883 299.908638 
L 328.245492 300.422627 
L 328.9111 299.187463 
L 329.576709 296.663226 
L 330.907926 291.151371 
L 331.573534 289.840832 
L 332.239143 290.097244 
L 332.904751 291.786985 
L 334.235968 296.967803 
L 334.901577 298.84534 
L 335.567185 299.423104 
L 336.232794 298.554228 
L 336.898402 296.536671 
L 338.229619 291.76842 
L 338.895228 290.49107 
L 339.560836 290.562379 
L 340.226445 291.94569 
L 342.22327 298.466361 
L 342.888879 299.154745 
L 343.554487 298.478209 
L 344.220096 296.645499 
L 345.551313 291.962545 
L 346.216921 290.569196 
L 346.88253 290.485443 
L 347.548138 291.751814 
L 349.544964 298.540397 
L 350.210572 299.421542 
L 350.876181 298.856618 
L 351.541789 296.988643 
L 352.873006 291.806888 
L 353.538615 290.10644 
L 354.204223 289.836048 
L 354.869832 291.1335 
L 355.53544 293.649369 
L 356.866657 299.169592 
L 357.532266 300.418909 
L 358.197874 299.921007 
L 358.863483 297.738097 
L 360.1947 291.093173 
L 360.860308 288.68647 
L 361.525917 288.092794 
L 362.191525 289.642296 
L 362.857134 293.008686 
L 364.188351 301.095718 
L 364.853959 303.223305 
L 365.519568 302.761144 
L 366.185176 299.558733 
L 368.182002 284.010354 
L 368.84761 282.506211 
L 369.513219 285.072908 
L 370.178827 291.655545 
L 371.510044 310.216671 
L 372.175653 316.321705 
L 372.841261 315.798793 
L 373.50687 305.910735 
L 374.172478 285.260018 
L 374.838087 254.205867 
L 376.169304 171.11402 
L 377.500521 87.917081 
L 378.166129 56.751318 
L 378.831738 35.969929 
L 379.497346 25.961311 
L 380.162955 25.34166 
L 380.828563 31.386983 
L 382.15978 49.948283 
L 382.825389 56.573106 
L 383.490997 59.190019 
L 384.156606 57.729376 
L 384.822214 53.238139 
L 386.153431 42.193712 
L 386.81904 38.964086 
L 387.484648 38.468365 
L 388.150257 40.567746 
L 390.147082 52.028827 
L 390.812691 53.60299 
L 391.478299 53.033902 
L 392.143908 50.644524 
L 393.475125 43.998138 
L 394.140733 41.797135 
L 394.806342 41.276627 
L 395.47195 42.508495 
L 396.137559 45.029239 
L 397.468776 50.544389 
L 398.134384 51.859042 
L 398.799993 51.607463 
L 399.465601 49.921267 
L 400.796818 44.741721 
L 401.462427 42.860457 
L 402.128035 42.277985 
L 402.793644 43.143019 
L 403.459252 45.158127 
L 404.790469 49.927711 
L 405.456078 51.208655 
L 406.121686 51.141237 
L 406.787295 49.761644 
L 408.78412 43.239684 
L 409.449729 42.545674 
L 410.115337 43.219856 
L 410.780946 45.049068 
L 412.112163 49.73314 
L 412.777771 51.130084 
L 413.44338 51.218074 
L 414.108988 49.955224 
L 416.105814 43.165326 
L 416.771422 42.280463 
L 417.437031 42.840629 
L 418.102639 44.70702 
L 419.433856 49.888053 
L 420.099465 51.591848 
L 420.765073 51.866974 
L 421.430682 50.573884 
L 422.09629 48.060824 
L 423.427507 42.538238 
L 424.093116 41.284063 
L 424.758724 41.777306 
L 425.424333 43.956002 
L 426.75555 50.599414 
L 427.421158 53.010355 
L 428.086767 53.610178 
L 428.752375 52.066997 
L 429.417984 48.704766 
L 430.749201 40.614839 
L 431.414809 38.480758 
L 432.080418 38.934343 
L 432.746026 42.129268 
L 434.742852 57.681291 
L 435.40846 59.196712 
L 436.074069 56.642507 
L 436.739677 50.070231 
L 438.070894 31.508435 
L 438.736503 25.388753 
L 439.402111 25.889432 
L 440.06772 35.746854 
L 440.733328 56.364655 
L 441.398937 87.390624 
L 442.064545 126.643588 
L 442.064545 126.643588 
" clip-path="url(#pc66060f5ff)" style="fill: none; stroke: #0000ff; stroke-width: 1.5; stroke-linecap: square"/>
   </g>
   <g id="patch_3">
    <path d="M 23.430079 334.501336 
L 23.430079 7.2 
" style="fill: none; stroke: #000000; stroke-width: 0.8; stroke-linejoin: miter; stroke-linecap: square"/>
   </g>
   <g id="patch_4">
    <path d="M 461.99952 334.501336 
L 461.99952 7.2 
" style="fill: none; stroke: #000000; stroke-width: 0.8; stroke-linejoin: miter; stroke-linecap: square"/>
   </g>
   <g id="patch_5">
    <path d="M 23.430079 334.501336 
L 461.99952 334.501336 
" style="fill: none; stroke: #000000; stroke-width: 0.8; stroke-linejoin: miter; stroke-linecap: square"/>
   </g>
   <g id="patch_6">
    <path d="M 23.430079 7.2 
L 461.99952 7.2 
" style="fill: none; stroke: #000000; stroke-width: 0.8; stroke-linejoin: miter; stroke-linecap: square"/>
   </g>
   <g id="legend_1">
    <g id="patch_7">
     <path d="M 30.430079 58.036054 
L 113.365475 58.036054 
Q 115.365475 58.036054 115.365475 56.036054 
L 115.365475 14.2 
Q 115.365475 12.2 113.365475 12.2 
L 30.430079 12.2 
Q 28.430079 12.2 28.430079 14.2 
L 28.430079 56.036054 
Q 28.430079 58.036054 30.430079 58.036054 
z
" style="fill: #ffffff; opacity: 0.8; stroke: #cccccc; stroke-linejoin: miter"/>
    </g>
    <g id="line2d_43">
     <path d="M 32.430079 20.17198 
L 42.430079 20.17198 
L 52.430079 20.17198 
" style="fill: none; stroke: #ff0000; stroke-width: 1.5; stroke-linecap: square"/>
    </g>
    <g id="text_14">
     <!-- $f(t)$ -->
     <g transform="translate(60.430079 23.67198) scale(0.1 -0.1)">
      <defs>
       <path id="CMMI12-66" d="M 2854 2566 
C 2982 2566 3034 2566 3034 2687 
C 3034 2752 2982 2752 2867 2752 
L 2349 2752 
C 2470 3398 2560 3846 2611 4051 
C 2650 4204 2784 4351 2950 4351 
C 3085 4351 3219 4294 3283 4236 
C 3034 4211 2957 4025 2957 3916 
C 2957 3788 3053 3712 3174 3712 
C 3302 3712 3494 3820 3494 4064 
C 3494 4332 3226 4480 2944 4480 
C 2669 4480 2400 4275 2272 4025 
C 2157 3801 2093 3573 1946 2752 
L 1517 2752 
C 1395 2752 1331 2752 1331 2636 
C 1331 2566 1370 2566 1498 2566 
L 1907 2566 
C 1792 1977 1530 545 1382 -132 
C 1274 -685 1178 -1152 858 -1152 
C 838 -1152 653 -1152 538 -1031 
C 864 -1005 864 -724 864 -717 
C 864 -589 768 -512 646 -512 
C 518 -512 326 -621 326 -865 
C 326 -1140 608 -1280 858 -1280 
C 1510 -1280 1779 -113 1850 203 
C 1965 691 2278 2376 2310 2566 
L 2854 2566 
z
" transform="scale(0.015625)"/>
       <path id="CMR17-28" d="M 1958 -1562 
C 1958 -1556 1958 -1543 1939 -1524 
C 1645 -1223 858 -403 858 1596 
C 858 3595 1632 4408 1946 4729 
C 1946 4735 1958 4748 1958 4767 
C 1958 4787 1939 4800 1914 4800 
C 1843 4800 1299 4325 986 3620 
C 666 2909 576 2218 576 1603 
C 576 1141 621 360 1005 -467 
C 1312 -1133 1837 -1600 1914 -1600 
C 1946 -1600 1958 -1588 1958 -1562 
z
" transform="scale(0.015625)"/>
       <path id="CMMI12-74" d="M 1286 2566 
L 1875 2566 
C 1997 2566 2061 2566 2061 2681 
C 2061 2752 2022 2752 1894 2752 
L 1331 2752 
L 1568 3664 
C 1594 3752 1594 3764 1594 3808 
C 1594 3910 1510 3968 1427 3968 
C 1376 3968 1229 3948 1178 3746 
L 928 2752 
L 326 2752 
C 198 2752 141 2752 141 2630 
C 141 2566 186 2566 307 2566 
L 877 2566 
L 454 881 
C 403 657 384 593 384 510 
C 384 210 595 -64 954 -64 
C 1600 -64 1946 868 1946 913 
C 1946 951 1920 970 1882 970 
C 1869 970 1843 970 1830 944 
C 1824 938 1818 932 1773 830 
C 1638 510 1344 64 973 64 
C 781 64 768 223 768 364 
C 768 370 768 491 787 568 
L 1286 2566 
z
" transform="scale(0.015625)"/>
       <path id="CMR17-29" d="M 1683 1596 
C 1683 2057 1638 2839 1254 3665 
C 947 4332 422 4800 346 4800 
C 326 4800 301 4793 301 4761 
C 301 4748 307 4742 314 4729 
C 621 4408 1402 3595 1402 1603 
C 1402 -396 627 -1210 314 -1530 
C 307 -1543 301 -1549 301 -1562 
C 301 -1594 326 -1600 346 -1600 
C 416 -1600 960 -1127 1274 -422 
C 1594 289 1683 981 1683 1596 
z
" transform="scale(0.015625)"/>
      </defs>
      <use xlink:href="#CMMI12-66" transform="scale(0.996264)"/>
      <use xlink:href="#CMR17-28" transform="translate(58.720305 0) scale(0.996264)"/>
      <use xlink:href="#CMMI12-74" transform="translate(94.001073 0) scale(0.996264)"/>
      <use xlink:href="#CMR17-29" transform="translate(129.227403 0) scale(0.996264)"/>
     </g>
    </g>
    <g id="line2d_44">
     <path d="M 32.430079 34.66264 
L 42.430079 34.66264 
L 52.430079 34.66264 
" style="fill: none; stroke: #008000; stroke-width: 1.5; stroke-linecap: square"/>
    </g>
    <g id="text_15">
     <!-- 3 wyrazy -->
     <g transform="translate(60.430079 38.16264) scale(0.1 -0.1)">
      <defs>
       <path id="SFRM3583-33" d="M 506 3499 
C 659 3865 1018 4089 1434 4089 
C 1830 4089 2125 3801 2125 3371 
C 2125 2974 1933 2512 1549 2358 
C 1466 2326 1382 2320 1293 2307 
L 1024 2288 
C 998 2281 960 2275 960 2243 
L 960 2230 
C 960 2211 986 2204 1005 2204 
L 1344 2204 
C 2010 2204 2266 1685 2266 1147 
L 2266 1057 
C 2234 640 2048 76 1434 76 
C 979 76 429 384 352 846 
C 384 833 416 826 448 826 
C 576 826 666 916 666 1038 
C 666 1153 576 1249 454 1249 
C 333 1249 237 1172 237 1025 
C 237 378 864 -64 1453 -64 
C 2106 -64 2624 499 2624 1140 
C 2624 1730 2138 2230 1504 2256 
C 2010 2403 2464 2749 2464 3384 
C 2464 3910 1926 4224 1466 4224 
C 979 4224 397 3903 397 3352 
C 397 3211 467 3115 595 3115 
C 723 3115 800 3211 800 3320 
C 800 3435 704 3519 602 3519 
C 570 3519 538 3512 506 3499 
z
" transform="scale(0.015625)"/>
       <path id="SFRM3583-77" d="M 90 2752 
L 90 2611 
L 141 2611 
C 397 2611 429 2494 563 2081 
L 1216 91 
C 1235 39 1248 -64 1318 -64 
L 1325 -64 
C 1382 -52 1402 65 1421 116 
L 1792 1247 
C 1850 1428 1907 1609 1971 1790 
C 2003 1893 2048 1997 2067 2100 
L 2074 2100 
C 2093 1997 2138 1893 2170 1790 
C 2234 1609 2291 1428 2349 1247 
L 2720 116 
C 2739 65 2758 -52 2816 -64 
L 2822 -64 
C 2893 -64 2906 39 2925 91 
L 3098 614 
C 3264 1124 3430 1629 3597 2139 
C 3661 2346 3776 2611 4051 2611 
L 4051 2752 
L 3296 2752 
L 3296 2611 
C 3456 2611 3552 2462 3552 2346 
C 3552 2249 3514 2152 3482 2061 
C 3290 1486 3104 905 2912 330 
C 2835 511 2784 704 2726 892 
C 2579 1338 2426 1790 2278 2242 
C 2259 2307 2221 2385 2221 2456 
C 2221 2591 2387 2611 2490 2611 
L 2490 2752 
L 1600 2752 
L 1600 2611 
L 1645 2611 
C 1824 2611 1920 2572 1984 2352 
C 1997 2320 2016 2275 2016 2236 
L 2016 2223 
C 2010 2158 1984 2100 1965 2042 
L 1843 1687 
C 1690 1247 1536 795 1408 349 
L 1402 349 
C 1389 420 1357 491 1338 562 
L 1216 931 
C 1094 1299 973 1661 851 2029 
L 762 2313 
C 742 2359 723 2410 723 2456 
L 723 2475 
C 742 2591 896 2611 992 2611 
L 992 2752 
L 90 2752 
z
" transform="scale(0.015625)"/>
       <path id="SFRM3583-79" d="M 90 2752 
L 90 2611 
L 134 2611 
C 435 2611 442 2534 672 1965 
C 915 1371 1178 771 1395 170 
C 1421 119 1453 61 1453 4 
C 1453 -9 1453 -28 1446 -41 
C 1389 -201 1318 -360 1254 -520 
C 1139 -808 992 -1204 627 -1204 
C 493 -1204 352 -1146 256 -1057 
C 358 -1057 448 -999 448 -884 
C 448 -788 371 -718 275 -718 
C 186 -718 109 -782 109 -897 
C 109 -1146 390 -1280 614 -1280 
C 1043 -1280 1210 -852 1350 -501 
C 1651 247 1971 981 2253 1735 
L 2368 2023 
C 2464 2272 2573 2611 2931 2611 
L 2931 2752 
L 2189 2752 
L 2189 2611 
C 2304 2611 2394 2496 2394 2387 
C 2394 2272 2330 2151 2291 2055 
C 2138 1678 1984 1307 1837 930 
L 1683 553 
C 1658 483 1626 419 1606 349 
L 1600 349 
C 1581 419 1549 489 1523 553 
L 1382 905 
C 1235 1282 1082 1652 928 2029 
L 819 2298 
C 800 2349 774 2400 768 2451 
L 768 2464 
C 768 2592 922 2611 1018 2611 
L 1018 2752 
L 717 2752 
L 90 2752 
z
" transform="scale(0.015625)"/>
       <path id="SFRM3583-72" d="M 288 2744 
L 288 2602 
L 352 2602 
C 557 2602 666 2557 666 2273 
L 666 360 
C 666 153 512 140 288 140 
L 288 0 
L 1389 0 
L 1389 140 
L 1261 140 
C 1075 140 922 160 922 405 
L 922 1349 
C 922 1898 1037 2738 1658 2738 
C 1728 2738 1798 2719 1862 2693 
C 1786 2660 1722 2609 1722 2518 
C 1722 2428 1792 2337 1901 2337 
C 1997 2337 2074 2421 2074 2518 
C 2074 2732 1837 2816 1664 2816 
C 1274 2816 979 2434 922 2079 
L 915 2816 
L 288 2744 
z
" transform="scale(0.015625)"/>
       <path id="SFRM3583-61" d="M 576 2058 
C 659 2401 883 2738 1274 2738 
C 1619 2738 1869 2408 1920 2090 
C 1933 2006 1933 1915 1933 1831 
L 1933 1579 
C 1318 1579 474 1436 320 659 
C 314 620 314 575 314 536 
C 314 102 800 -64 1133 -64 
C 1446 -64 1856 141 1939 497 
L 1946 497 
C 1946 225 2125 -45 2394 -45 
C 2746 -45 2829 335 2829 614 
L 2829 905 
L 2746 905 
L 2746 575 
C 2746 368 2701 70 2470 70 
C 2208 70 2195 413 2195 588 
L 2195 1792 
C 2195 1954 2189 2123 2125 2278 
C 1990 2595 1638 2816 1293 2816 
C 800 2816 480 2375 480 1896 
C 480 1773 570 1702 672 1702 
C 774 1702 858 1786 858 1890 
C 858 1987 794 2077 672 2077 
C 640 2077 608 2071 576 2058 
z
M 1933 1507 
L 1933 873 
C 1933 445 1670 44 1229 12 
L 1190 12 
C 896 12 627 245 627 562 
C 627 1236 1363 1507 1933 1507 
z
" transform="scale(0.015625)"/>
       <path id="SFRM3583-7a" d="M 294 2752 
L 237 1785 
L 320 1785 
C 326 2009 339 2291 493 2470 
C 634 2649 902 2681 1152 2681 
C 1274 2681 1395 2675 1491 2675 
L 1978 2675 
C 1421 1836 819 1024 250 192 
C 218 140 166 96 166 38 
L 166 19 
C 179 0 211 0 237 0 
L 2227 0 
L 2310 1120 
L 2227 1120 
C 2214 857 2189 512 2029 313 
C 1856 96 1517 76 1235 76 
L 1043 76 
C 851 76 666 83 474 83 
L 2278 2681 
L 2278 2739 
L 2240 2752 
L 294 2752 
z
" transform="scale(0.015625)"/>
      </defs>
      <use xlink:href="#SFRM3583-33" transform="scale(0.996264)"/>
      <use xlink:href="#SFRM3583-77" transform="translate(74.27676 0) scale(0.996264)"/>
      <use xlink:href="#SFRM3583-79" transform="translate(138.695347 0) scale(0.996264)"/>
      <use xlink:href="#SFRM3583-72" transform="translate(185.753786 0) scale(0.996264)"/>
      <use xlink:href="#SFRM3583-61" transform="translate(220.412132 0) scale(0.996264)"/>
      <use xlink:href="#SFRM3583-7a" transform="translate(264.990599 0) scale(0.996264)"/>
      <use xlink:href="#SFRM3583-79" transform="translate(304.608998 0) scale(0.996264)"/>
     </g>
    </g>
    <g id="line2d_45">
     <path d="M 32.430079 48.599347 
L 42.430079 48.599347 
L 52.430079 48.599347 
" style="fill: none; stroke: #0000ff; stroke-width: 1.5; stroke-linecap: square"/>
    </g>
    <g id="text_16">
     <!-- 10 wyrazów -->
     <g transform="translate(60.430079 52.099347) scale(0.1 -0.1)">
      <defs>
       <path id="SFRM3583-31" d="M 608 3669 
C 698 3682 794 3682 883 3694 
C 1056 3727 1210 3785 1357 3875 
L 1357 418 
C 1357 173 1139 134 915 134 
C 819 134 723 140 640 140 
L 640 0 
L 2349 0 
L 2349 140 
C 2259 140 2163 134 2067 134 
C 1837 134 1632 173 1632 418 
L 1632 4172 
C 1632 4191 1626 4224 1606 4224 
C 1555 4224 1446 4088 1376 4036 
C 1184 3901 934 3817 710 3817 
L 672 3817 
C 634 3817 608 3811 608 3765 
L 608 3669 
z
" transform="scale(0.015625)"/>
       <path id="SFRM3583-30" d="M 1357 4224 
C 454 4121 301 2991 301 2060 
C 301 1495 333 821 653 366 
C 832 115 1114 -64 1421 -64 
C 1933 -64 2259 340 2406 796 
C 2541 1213 2560 1649 2560 2079 
C 2560 2657 2534 3376 2182 3832 
C 2003 4057 1728 4224 1434 4224 
C 1408 4230 1382 4224 1357 4224 
z
M 627 1714 
L 627 2304 
C 627 3062 666 4146 1434 4146 
C 1965 4146 2150 3537 2202 3087 
C 2227 2798 2234 2516 2234 2227 
L 2234 1771 
C 2234 1290 2208 783 2003 404 
C 1888 199 1677 19 1434 19 
L 1395 19 
C 659 109 698 1065 627 1714 
z
" transform="scale(0.015625)"/>
       <path id="SFRM3583-f3" d="M 1350 2788 
C 614 2698 237 2012 237 1346 
C 237 666 685 -64 1440 -64 
L 1504 -64 
C 2240 25 2624 705 2624 1352 
C 2624 2006 2182 2794 1440 2794 
C 1408 2794 1382 2788 1350 2788 
z
M 563 1243 
L 563 1346 
C 563 1826 621 2365 1114 2634 
C 1197 2673 1293 2705 1389 2711 
L 1434 2711 
C 2054 2711 2298 1987 2298 1468 
C 2298 961 2246 237 1606 44 
C 1549 32 1491 19 1434 19 
C 960 19 653 493 595 948 
C 576 1044 576 1147 563 1243 
z
M 979 3128 
C 1222 3269 1453 3448 1677 3615 
L 1869 3750 
C 1920 3782 1984 3826 1984 3897 
C 1984 3967 1920 4032 1850 4032 
C 1747 4032 1638 3884 1568 3814 
C 1421 3666 1267 3519 1114 3378 
L 986 3250 
C 973 3237 941 3218 941 3192 
C 941 3166 966 3147 979 3128 
z
" transform="scale(0.015625)"/>
      </defs>
      <use xlink:href="#SFRM3583-31" transform="scale(0.996264)"/>
      <use xlink:href="#SFRM3583-30" transform="translate(44.578467 0) scale(0.996264)"/>
      <use xlink:href="#SFRM3583-77" transform="translate(118.855227 0) scale(0.996264)"/>
      <use xlink:href="#SFRM3583-79" transform="translate(183.273813 0) scale(0.996264)"/>
      <use xlink:href="#SFRM3583-72" transform="translate(230.332253 0) scale(0.996264)"/>
      <use xlink:href="#SFRM3583-61" transform="translate(264.990599 0) scale(0.996264)"/>
      <use xlink:href="#SFRM3583-7a" transform="translate(309.569066 0) scale(0.996264)"/>
      <use xlink:href="#SFRM3583-f3" transform="translate(349.187465 0) scale(0.996264)"/>
      <use xlink:href="#SFRM3583-77" transform="translate(391.285943 0) scale(0.996264)"/>
     </g>
    </g>
   </g>
  </g>
 </g>
 <defs>
  <clipPath id="pc66060f5ff">
   <rect x="23.430079" y="7.2" width="438.569441" height="327.301336"/>
  </clipPath>
 </defs>
</svg>
