<?xml version="1.0" encoding="utf-8" standalone="no"?>
<!DOCTYPE svg PUBLIC "-//W3C//DTD SVG 1.1//EN"
  "http://www.w3.org/Graphics/SVG/1.1/DTD/svg11.dtd">
<svg xmlns:xlink="http://www.w3.org/1999/xlink" width="469.194986pt" height="353.99952pt" viewBox="0 0 469.194986 353.99952" xmlns="http://www.w3.org/2000/svg" version="1.1">
 <metadata>
  <rdf:RDF xmlns:dc="http://purl.org/dc/elements/1.1/" xmlns:cc="http://creativecommons.org/ns#" xmlns:rdf="http://www.w3.org/1999/02/22-rdf-syntax-ns#">
   <cc:Work>
    <dc:type rdf:resource="http://purl.org/dc/dcmitype/StillImage"/>
    <dc:date>2026-01-31T17:42:55.640392</dc:date>
    <dc:format>image/svg+xml</dc:format>
    <dc:creator>
     <cc:Agent>
      <dc:title>Matplotlib v3.10.8, https://matplotlib.org/</dc:title>
     </cc:Agent>
    </dc:creator>
   </cc:Work>
  </rdf:RDF>
 </metadata>
 <defs>
  <style type="text/css">*{stroke-linejoin: round; stroke-linecap: butt}</style>
 </defs>
 <g id="figure_1">
  <g id="patch_1">
   <path d="M 0 353.99952 
L 469.194986 353.99952 
L 469.194986 0 
L 0 0 
z
" style="fill: #ffffff"/>
  </g>
  <g id="axes_1">
   <g id="patch_2">
    <path d="M 41.209598 321.702682 
L 458.168225 321.702682 
L 458.168225 7.2 
L 41.209598 7.2 
z
" style="fill: #ffffff"/>
   </g>
   <g id="matplotlib.axis_1">
    <g id="xtick_1">
     <g id="line2d_1">
      <path d="M 91.296004 321.702682 
L 91.296004 7.2 
" clip-path="url(#pcb21ae5ca9)" style="fill: none; stroke-dasharray: 1.85,0.8; stroke-dashoffset: 0; stroke: #b0b0b0; stroke-width: 0.5"/>
     </g>
     <g id="line2d_2">
      <defs>
       <path id="m4eabb22aee" d="M 0 0 
L 0 -3.5 
" style="stroke: #000000; stroke-width: 0.8"/>
      </defs>
      <g>
       <use xlink:href="#m4eabb22aee" x="91.296004" y="321.702682" style="stroke: #000000; stroke-width: 0.8"/>
      </g>
     </g>
     <g id="line2d_3">
      <defs>
       <path id="m8d626f2c25" d="M 0 0 
L 0 3.5 
" style="stroke: #000000; stroke-width: 0.8"/>
      </defs>
      <g>
       <use xlink:href="#m8d626f2c25" x="91.296004" y="7.2" style="stroke: #000000; stroke-width: 0.8"/>
      </g>
     </g>
     <g id="text_1">
      <!-- $\mathdefault{−50}$ -->
      <g transform="translate(82.440297 332.064158) scale(0.1 -0.1)">
       <defs>
        <path id="CMSY10-0" d="M 4218 1472 
C 4326 1472 4442 1472 4442 1600 
C 4442 1728 4326 1728 4218 1728 
L 755 1728 
C 646 1728 531 1728 531 1600 
C 531 1472 646 1472 755 1472 
L 4218 1472 
z
" transform="scale(0.015625)"/>
        <path id="CMR17-35" d="M 730 3750 
C 794 3724 1056 3641 1325 3641 
C 1920 3641 2246 3961 2432 4140 
C 2432 4191 2432 4224 2394 4224 
C 2387 4224 2374 4224 2323 4198 
C 2099 4102 1837 4032 1517 4032 
C 1325 4032 1037 4055 723 4191 
C 653 4224 640 4224 634 4224 
C 602 4224 595 4217 595 4090 
L 595 2231 
C 595 2113 595 2080 659 2080 
C 691 2080 704 2093 736 2139 
C 941 2435 1222 2560 1542 2560 
C 1766 2560 2246 2415 2246 1293 
C 2246 1087 2246 716 2054 422 
C 1894 159 1645 25 1370 25 
C 947 25 518 319 403 812 
C 429 806 480 793 506 793 
C 589 793 749 838 749 1036 
C 749 1209 627 1280 506 1280 
C 358 1280 262 1190 262 1011 
C 262 454 704 -128 1382 -128 
C 2042 -128 2669 441 2669 1267 
C 2669 2054 2170 2662 1549 2662 
C 1222 2662 947 2540 730 2304 
L 730 3750 
z
" transform="scale(0.015625)"/>
        <path id="CMR17-30" d="M 2688 2038 
C 2688 2430 2682 3099 2413 3613 
C 2176 4063 1798 4224 1466 4224 
C 1158 4224 768 4082 525 3620 
C 269 3137 243 2539 243 2038 
C 243 1671 250 1112 448 623 
C 723 -39 1216 -128 1466 -128 
C 1760 -128 2208 -7 2470 604 
C 2662 1048 2688 1568 2688 2038 
z
M 1466 -26 
C 1056 -26 813 328 723 816 
C 653 1196 653 1749 653 2109 
C 653 2604 653 3015 736 3407 
C 858 3954 1216 4121 1466 4121 
C 1728 4121 2067 3947 2189 3420 
C 2272 3054 2278 2623 2278 2109 
C 2278 1691 2278 1176 2202 797 
C 2067 96 1690 -26 1466 -26 
z
" transform="scale(0.015625)"/>
       </defs>
       <use xlink:href="#CMSY10-0" transform="scale(0.996264)"/>
       <use xlink:href="#CMR17-35" transform="translate(77.487468 0) scale(0.996264)"/>
       <use xlink:href="#CMR17-30" transform="translate(123.177945 0) scale(0.996264)"/>
      </g>
     </g>
    </g>
    <g id="xtick_2">
     <g id="line2d_4">
      <path d="M 143.185572 321.702682 
L 143.185572 7.2 
" clip-path="url(#pcb21ae5ca9)" style="fill: none; stroke-dasharray: 1.85,0.8; stroke-dashoffset: 0; stroke: #b0b0b0; stroke-width: 0.5"/>
     </g>
     <g id="line2d_5">
      <g>
       <use xlink:href="#m4eabb22aee" x="143.185572" y="321.702682" style="stroke: #000000; stroke-width: 0.8"/>
      </g>
     </g>
     <g id="line2d_6">
      <g>
       <use xlink:href="#m8d626f2c25" x="143.185572" y="7.2" style="stroke: #000000; stroke-width: 0.8"/>
      </g>
     </g>
     <g id="text_2">
      <!-- $\mathdefault{0}$ -->
      <g transform="translate(140.694905 332.064158) scale(0.1 -0.1)">
       <use xlink:href="#CMR17-30" transform="scale(0.996264)"/>
      </g>
     </g>
    </g>
    <g id="xtick_3">
     <g id="line2d_7">
      <path d="M 195.075141 321.702682 
L 195.075141 7.2 
" clip-path="url(#pcb21ae5ca9)" style="fill: none; stroke-dasharray: 1.85,0.8; stroke-dashoffset: 0; stroke: #b0b0b0; stroke-width: 0.5"/>
     </g>
     <g id="line2d_8">
      <g>
       <use xlink:href="#m4eabb22aee" x="195.075141" y="321.702682" style="stroke: #000000; stroke-width: 0.8"/>
      </g>
     </g>
     <g id="line2d_9">
      <g>
       <use xlink:href="#m8d626f2c25" x="195.075141" y="7.2" style="stroke: #000000; stroke-width: 0.8"/>
      </g>
     </g>
     <g id="text_3">
      <!-- $\mathdefault{50}$ -->
      <g transform="translate(190.093806 332.064158) scale(0.1 -0.1)">
       <use xlink:href="#CMR17-35" transform="scale(0.996264)"/>
       <use xlink:href="#CMR17-30" transform="translate(45.690477 0) scale(0.996264)"/>
      </g>
     </g>
    </g>
    <g id="xtick_4">
     <g id="line2d_10">
      <path d="M 246.964709 321.702682 
L 246.964709 7.2 
" clip-path="url(#pcb21ae5ca9)" style="fill: none; stroke-dasharray: 1.85,0.8; stroke-dashoffset: 0; stroke: #b0b0b0; stroke-width: 0.5"/>
     </g>
     <g id="line2d_11">
      <g>
       <use xlink:href="#m4eabb22aee" x="246.964709" y="321.702682" style="stroke: #000000; stroke-width: 0.8"/>
      </g>
     </g>
     <g id="line2d_12">
      <g>
       <use xlink:href="#m8d626f2c25" x="246.964709" y="7.2" style="stroke: #000000; stroke-width: 0.8"/>
      </g>
     </g>
     <g id="text_4">
      <!-- $\mathdefault{100}$ -->
      <g transform="translate(239.492706 332.064158) scale(0.1 -0.1)">
       <defs>
        <path id="CMR17-31" d="M 1702 4083 
C 1702 4217 1696 4224 1606 4224 
C 1357 3927 979 3833 621 3820 
C 602 3820 570 3820 563 3808 
C 557 3795 557 3782 557 3648 
C 755 3648 1088 3686 1344 3839 
L 1344 467 
C 1344 243 1331 166 781 166 
L 589 166 
L 589 0 
C 896 6 1216 12 1523 12 
C 1830 12 2150 6 2458 0 
L 2458 166 
L 2266 166 
C 1715 166 1702 236 1702 467 
L 1702 4083 
z
" transform="scale(0.015625)"/>
       </defs>
       <use xlink:href="#CMR17-31" transform="scale(0.996264)"/>
       <use xlink:href="#CMR17-30" transform="translate(45.690477 0) scale(0.996264)"/>
       <use xlink:href="#CMR17-30" transform="translate(91.380954 0) scale(0.996264)"/>
      </g>
     </g>
    </g>
    <g id="xtick_5">
     <g id="line2d_13">
      <path d="M 298.854278 321.702682 
L 298.854278 7.2 
" clip-path="url(#pcb21ae5ca9)" style="fill: none; stroke-dasharray: 1.85,0.8; stroke-dashoffset: 0; stroke: #b0b0b0; stroke-width: 0.5"/>
     </g>
     <g id="line2d_14">
      <g>
       <use xlink:href="#m4eabb22aee" x="298.854278" y="321.702682" style="stroke: #000000; stroke-width: 0.8"/>
      </g>
     </g>
     <g id="line2d_15">
      <g>
       <use xlink:href="#m8d626f2c25" x="298.854278" y="7.2" style="stroke: #000000; stroke-width: 0.8"/>
      </g>
     </g>
     <g id="text_5">
      <!-- $\mathdefault{150}$ -->
      <g transform="translate(291.382275 332.064158) scale(0.1 -0.1)">
       <use xlink:href="#CMR17-31" transform="scale(0.996264)"/>
       <use xlink:href="#CMR17-35" transform="translate(45.690477 0) scale(0.996264)"/>
       <use xlink:href="#CMR17-30" transform="translate(91.380954 0) scale(0.996264)"/>
      </g>
     </g>
    </g>
    <g id="xtick_6">
     <g id="line2d_16">
      <path d="M 350.743846 321.702682 
L 350.743846 7.2 
" clip-path="url(#pcb21ae5ca9)" style="fill: none; stroke-dasharray: 1.85,0.8; stroke-dashoffset: 0; stroke: #b0b0b0; stroke-width: 0.5"/>
     </g>
     <g id="line2d_17">
      <g>
       <use xlink:href="#m4eabb22aee" x="350.743846" y="321.702682" style="stroke: #000000; stroke-width: 0.8"/>
      </g>
     </g>
     <g id="line2d_18">
      <g>
       <use xlink:href="#m8d626f2c25" x="350.743846" y="7.2" style="stroke: #000000; stroke-width: 0.8"/>
      </g>
     </g>
     <g id="text_6">
      <!-- $\mathdefault{200}$ -->
      <g transform="translate(343.271843 332.064158) scale(0.1 -0.1)">
       <defs>
        <path id="CMR17-32" d="M 2669 990 
L 2554 990 
C 2490 537 2438 460 2413 422 
C 2381 371 1920 371 1830 371 
L 602 371 
C 832 620 1280 1073 1824 1596 
C 2214 1966 2669 2400 2669 3033 
C 2669 3788 2067 4224 1395 4224 
C 691 4224 262 3603 262 3027 
C 262 2777 448 2745 525 2745 
C 589 2745 781 2783 781 3007 
C 781 3206 614 3264 525 3264 
C 486 3264 448 3257 422 3244 
C 544 3788 915 4057 1306 4057 
C 1862 4057 2227 3616 2227 3033 
C 2227 2477 1901 1998 1536 1583 
L 262 147 
L 262 0 
L 2515 0 
L 2669 990 
z
" transform="scale(0.015625)"/>
       </defs>
       <use xlink:href="#CMR17-32" transform="scale(0.996264)"/>
       <use xlink:href="#CMR17-30" transform="translate(45.690477 0) scale(0.996264)"/>
       <use xlink:href="#CMR17-30" transform="translate(91.380954 0) scale(0.996264)"/>
      </g>
     </g>
    </g>
    <g id="xtick_7">
     <g id="line2d_19">
      <path d="M 402.633415 321.702682 
L 402.633415 7.2 
" clip-path="url(#pcb21ae5ca9)" style="fill: none; stroke-dasharray: 1.85,0.8; stroke-dashoffset: 0; stroke: #b0b0b0; stroke-width: 0.5"/>
     </g>
     <g id="line2d_20">
      <g>
       <use xlink:href="#m4eabb22aee" x="402.633415" y="321.702682" style="stroke: #000000; stroke-width: 0.8"/>
      </g>
     </g>
     <g id="line2d_21">
      <g>
       <use xlink:href="#m8d626f2c25" x="402.633415" y="7.2" style="stroke: #000000; stroke-width: 0.8"/>
      </g>
     </g>
     <g id="text_7">
      <!-- $\mathdefault{250}$ -->
      <g transform="translate(395.161412 332.064158) scale(0.1 -0.1)">
       <use xlink:href="#CMR17-32" transform="scale(0.996264)"/>
       <use xlink:href="#CMR17-35" transform="translate(45.690477 0) scale(0.996264)"/>
       <use xlink:href="#CMR17-30" transform="translate(91.380954 0) scale(0.996264)"/>
      </g>
     </g>
    </g>
    <g id="xtick_8">
     <g id="line2d_22">
      <path d="M 454.522983 321.702682 
L 454.522983 7.2 
" clip-path="url(#pcb21ae5ca9)" style="fill: none; stroke-dasharray: 1.85,0.8; stroke-dashoffset: 0; stroke: #b0b0b0; stroke-width: 0.5"/>
     </g>
     <g id="line2d_23">
      <g>
       <use xlink:href="#m4eabb22aee" x="454.522983" y="321.702682" style="stroke: #000000; stroke-width: 0.8"/>
      </g>
     </g>
     <g id="line2d_24">
      <g>
       <use xlink:href="#m8d626f2c25" x="454.522983" y="7.2" style="stroke: #000000; stroke-width: 0.8"/>
      </g>
     </g>
     <g id="text_8">
      <!-- $\mathdefault{300}$ -->
      <g transform="translate(447.05098 332.064158) scale(0.1 -0.1)">
       <defs>
        <path id="CMR17-33" d="M 1414 2176 
C 1984 2176 2234 1673 2234 1094 
C 2234 322 1824 25 1453 25 
C 1114 25 563 193 390 691 
C 422 678 454 678 486 678 
C 640 678 755 780 755 947 
C 755 1132 614 1216 486 1216 
C 378 1216 211 1164 211 927 
C 211 335 787 -128 1466 -128 
C 2176 -128 2720 432 2720 1087 
C 2720 1718 2208 2176 1600 2246 
C 2086 2347 2554 2776 2554 3353 
C 2554 3856 2048 4224 1472 4224 
C 890 4224 378 3862 378 3347 
C 378 3123 544 3084 627 3084 
C 762 3084 877 3167 877 3334 
C 877 3500 762 3584 627 3584 
C 602 3584 570 3584 544 3571 
C 730 3999 1235 4076 1459 4076 
C 1683 4076 2106 3966 2106 3347 
C 2106 3167 2080 2851 1862 2574 
C 1670 2329 1453 2316 1242 2297 
C 1210 2297 1062 2284 1037 2284 
C 992 2278 966 2272 966 2227 
C 966 2182 973 2176 1101 2176 
L 1414 2176 
z
" transform="scale(0.015625)"/>
       </defs>
       <use xlink:href="#CMR17-33" transform="scale(0.996264)"/>
       <use xlink:href="#CMR17-30" transform="translate(45.690477 0) scale(0.996264)"/>
       <use xlink:href="#CMR17-30" transform="translate(91.380954 0) scale(0.996264)"/>
      </g>
     </g>
    </g>
    <g id="text_9">
     <!-- $t,$ dni -->
     <g transform="translate(237.92955 344.862342) scale(0.1 -0.1)">
      <defs>
       <path id="CMMI12-74" d="M 1286 2566 
L 1875 2566 
C 1997 2566 2061 2566 2061 2681 
C 2061 2752 2022 2752 1894 2752 
L 1331 2752 
L 1568 3664 
C 1594 3752 1594 3764 1594 3808 
C 1594 3910 1510 3968 1427 3968 
C 1376 3968 1229 3948 1178 3746 
L 928 2752 
L 326 2752 
C 198 2752 141 2752 141 2630 
C 141 2566 186 2566 307 2566 
L 877 2566 
L 454 881 
C 403 657 384 593 384 510 
C 384 210 595 -64 954 -64 
C 1600 -64 1946 868 1946 913 
C 1946 951 1920 970 1882 970 
C 1869 970 1843 970 1830 944 
C 1824 938 1818 932 1773 830 
C 1638 510 1344 64 973 64 
C 781 64 768 223 768 364 
C 768 370 768 491 787 568 
L 1286 2566 
z
" transform="scale(0.015625)"/>
       <path id="CMMI12-3b" d="M 1248 -26 
C 1248 345 1126 620 864 620 
C 659 620 557 454 557 313 
C 557 172 653 0 870 0 
C 954 0 1024 25 1082 83 
C 1094 96 1101 96 1107 96 
C 1120 96 1120 6 1120 -26 
C 1120 -233 1082 -642 710 -1051 
C 640 -1127 640 -1140 640 -1152 
C 640 -1184 672 -1216 704 -1216 
C 755 -1216 1248 -749 1248 -26 
z
" transform="scale(0.015625)"/>
       <path id="SFRM3583-64" d="M 1882 4408 
L 1882 4265 
L 1952 4265 
C 2150 4265 2259 4207 2259 3960 
L 2253 2305 
C 2131 2603 1766 2805 1459 2805 
C 710 2805 269 2039 269 1357 
C 269 714 653 -19 1338 -64 
L 1395 -64 
C 1741 -64 2118 150 2246 468 
L 2253 -64 
L 2893 -26 
L 2893 117 
L 2816 117 
C 2605 117 2515 195 2515 422 
L 2515 4480 
L 1882 4408 
z
M 595 1214 
L 595 1312 
C 595 1760 659 2292 1056 2577 
C 1190 2675 1344 2727 1498 2727 
C 1862 2727 2259 2376 2259 2000 
C 2259 1928 2253 1850 2253 1779 
L 2253 734 
C 2253 383 1811 13 1440 13 
C 947 13 678 520 621 948 
C 608 1039 608 1123 595 1214 
z
" transform="scale(0.015625)"/>
       <path id="SFRM3583-6e" d="M 301 2744 
L 301 2602 
L 365 2602 
C 570 2602 678 2557 678 2273 
L 678 360 
C 678 153 525 140 301 140 
L 301 0 
L 1318 0 
L 1318 140 
L 1229 140 
C 1082 140 941 160 941 360 
L 941 1775 
C 979 2215 1203 2738 1709 2738 
C 2112 2738 2266 2415 2266 1950 
L 2266 360 
C 2266 153 2112 140 1888 140 
L 1888 0 
L 2906 0 
L 2906 140 
L 2803 140 
C 2656 140 2528 160 2528 386 
L 2528 1885 
C 2528 2299 2451 2816 1760 2816 
C 1414 2816 1178 2628 1024 2350 
C 986 2279 947 2202 934 2124 
L 928 2816 
L 301 2744 
z
" transform="scale(0.015625)"/>
       <path id="SFRM3583-69" d="M 326 2732 
L 326 2590 
L 358 2590 
C 563 2590 678 2558 678 2250 
L 678 359 
C 678 153 531 140 307 140 
L 307 0 
L 1274 0 
L 1274 140 
L 1190 140 
C 1056 140 934 153 934 372 
L 934 2803 
L 326 2732 
z
M 698 4160 
C 595 4160 531 4044 531 3960 
C 531 3864 608 3748 730 3748 
C 858 3748 934 3857 934 3954 
C 934 4044 858 4160 736 4160 
C 723 4166 710 4160 698 4160 
z
" transform="scale(0.015625)"/>
      </defs>
      <use xlink:href="#CMMI12-74" transform="scale(0.996264)"/>
      <use xlink:href="#CMMI12-3b" transform="translate(35.22633 0) scale(0.996264)"/>
      <use xlink:href="#SFRM3583-64" transform="translate(92.021801 0) scale(0.996264)"/>
      <use xlink:href="#SFRM3583-6e" transform="translate(141.560229 0) scale(0.996264)"/>
      <use xlink:href="#SFRM3583-69" transform="translate(191.098657 0) scale(0.996264)"/>
     </g>
    </g>
   </g>
   <g id="matplotlib.axis_2">
    <g id="ytick_1">
     <g id="line2d_25">
      <path d="M 41.209598 296.932518 
L 458.168225 296.932518 
" clip-path="url(#pcb21ae5ca9)" style="fill: none; stroke-dasharray: 1.85,0.8; stroke-dashoffset: 0; stroke: #b0b0b0; stroke-width: 0.5"/>
     </g>
     <g id="line2d_26">
      <defs>
       <path id="mffceb1a551" d="M 0 0 
L 3.5 0 
" style="stroke: #000000; stroke-width: 0.8"/>
      </defs>
      <g>
       <use xlink:href="#mffceb1a551" x="41.209598" y="296.932518" style="stroke: #000000; stroke-width: 0.8"/>
      </g>
     </g>
     <g id="line2d_27">
      <defs>
       <path id="m11370c81b4" d="M 0 0 
L -3.5 0 
" style="stroke: #000000; stroke-width: 0.8"/>
      </defs>
      <g>
       <use xlink:href="#m11370c81b4" x="458.168225" y="296.932518" style="stroke: #000000; stroke-width: 0.8"/>
      </g>
     </g>
     <g id="text_10">
      <!-- $\mathdefault{−15}$ -->
      <g transform="translate(19.998184 300.363257) scale(0.1 -0.1)">
       <use xlink:href="#CMSY10-0" transform="scale(0.996264)"/>
       <use xlink:href="#CMR17-31" transform="translate(77.487468 0) scale(0.996264)"/>
       <use xlink:href="#CMR17-35" transform="translate(123.177945 0) scale(0.996264)"/>
      </g>
     </g>
    </g>
    <g id="ytick_2">
     <g id="line2d_28">
      <path d="M 41.209598 249.419342 
L 458.168225 249.419342 
" clip-path="url(#pcb21ae5ca9)" style="fill: none; stroke-dasharray: 1.85,0.8; stroke-dashoffset: 0; stroke: #b0b0b0; stroke-width: 0.5"/>
     </g>
     <g id="line2d_29">
      <g>
       <use xlink:href="#mffceb1a551" x="41.209598" y="249.419342" style="stroke: #000000; stroke-width: 0.8"/>
      </g>
     </g>
     <g id="line2d_30">
      <g>
       <use xlink:href="#m11370c81b4" x="458.168225" y="249.419342" style="stroke: #000000; stroke-width: 0.8"/>
      </g>
     </g>
     <g id="text_11">
      <!-- $\mathdefault{−10}$ -->
      <g transform="translate(19.998184 252.850081) scale(0.1 -0.1)">
       <use xlink:href="#CMSY10-0" transform="scale(0.996264)"/>
       <use xlink:href="#CMR17-31" transform="translate(77.487468 0) scale(0.996264)"/>
       <use xlink:href="#CMR17-30" transform="translate(123.177945 0) scale(0.996264)"/>
      </g>
     </g>
    </g>
    <g id="ytick_3">
     <g id="line2d_31">
      <path d="M 41.209598 201.906166 
L 458.168225 201.906166 
" clip-path="url(#pcb21ae5ca9)" style="fill: none; stroke-dasharray: 1.85,0.8; stroke-dashoffset: 0; stroke: #b0b0b0; stroke-width: 0.5"/>
     </g>
     <g id="line2d_32">
      <g>
       <use xlink:href="#mffceb1a551" x="41.209598" y="201.906166" style="stroke: #000000; stroke-width: 0.8"/>
      </g>
     </g>
     <g id="line2d_33">
      <g>
       <use xlink:href="#m11370c81b4" x="458.168225" y="201.906166" style="stroke: #000000; stroke-width: 0.8"/>
      </g>
     </g>
     <g id="text_12">
      <!-- $\mathdefault{−5}$ -->
      <g transform="translate(24.979519 205.336904) scale(0.1 -0.1)">
       <use xlink:href="#CMSY10-0" transform="scale(0.996264)"/>
       <use xlink:href="#CMR17-35" transform="translate(77.487468 0) scale(0.996264)"/>
      </g>
     </g>
    </g>
    <g id="ytick_4">
     <g id="line2d_34">
      <path d="M 41.209598 154.39299 
L 458.168225 154.39299 
" clip-path="url(#pcb21ae5ca9)" style="fill: none; stroke-dasharray: 1.85,0.8; stroke-dashoffset: 0; stroke: #b0b0b0; stroke-width: 0.5"/>
     </g>
     <g id="line2d_35">
      <g>
       <use xlink:href="#mffceb1a551" x="41.209598" y="154.39299" style="stroke: #000000; stroke-width: 0.8"/>
      </g>
     </g>
     <g id="line2d_36">
      <g>
       <use xlink:href="#m11370c81b4" x="458.168225" y="154.39299" style="stroke: #000000; stroke-width: 0.8"/>
      </g>
     </g>
     <g id="text_13">
      <!-- $\mathdefault{0}$ -->
      <g transform="translate(32.728263 157.823728) scale(0.1 -0.1)">
       <use xlink:href="#CMR17-30" transform="scale(0.996264)"/>
      </g>
     </g>
    </g>
    <g id="ytick_5">
     <g id="line2d_37">
      <path d="M 41.209598 106.879814 
L 458.168225 106.879814 
" clip-path="url(#pcb21ae5ca9)" style="fill: none; stroke-dasharray: 1.85,0.8; stroke-dashoffset: 0; stroke: #b0b0b0; stroke-width: 0.5"/>
     </g>
     <g id="line2d_38">
      <g>
       <use xlink:href="#mffceb1a551" x="41.209598" y="106.879814" style="stroke: #000000; stroke-width: 0.8"/>
      </g>
     </g>
     <g id="line2d_39">
      <g>
       <use xlink:href="#m11370c81b4" x="458.168225" y="106.879814" style="stroke: #000000; stroke-width: 0.8"/>
      </g>
     </g>
     <g id="text_14">
      <!-- $\mathdefault{5}$ -->
      <g transform="translate(32.728263 110.310552) scale(0.1 -0.1)">
       <use xlink:href="#CMR17-35" transform="scale(0.996264)"/>
      </g>
     </g>
    </g>
    <g id="ytick_6">
     <g id="line2d_40">
      <path d="M 41.209598 59.366638 
L 458.168225 59.366638 
" clip-path="url(#pcb21ae5ca9)" style="fill: none; stroke-dasharray: 1.85,0.8; stroke-dashoffset: 0; stroke: #b0b0b0; stroke-width: 0.5"/>
     </g>
     <g id="line2d_41">
      <g>
       <use xlink:href="#mffceb1a551" x="41.209598" y="59.366638" style="stroke: #000000; stroke-width: 0.8"/>
      </g>
     </g>
     <g id="line2d_42">
      <g>
       <use xlink:href="#m11370c81b4" x="458.168225" y="59.366638" style="stroke: #000000; stroke-width: 0.8"/>
      </g>
     </g>
     <g id="text_15">
      <!-- $\mathdefault{10}$ -->
      <g transform="translate(27.746927 62.797376) scale(0.1 -0.1)">
       <use xlink:href="#CMR17-31" transform="scale(0.996264)"/>
       <use xlink:href="#CMR17-30" transform="translate(45.690477 0) scale(0.996264)"/>
      </g>
     </g>
    </g>
    <g id="ytick_7">
     <g id="line2d_43">
      <path d="M 41.209598 11.853462 
L 458.168225 11.853462 
" clip-path="url(#pcb21ae5ca9)" style="fill: none; stroke-dasharray: 1.85,0.8; stroke-dashoffset: 0; stroke: #b0b0b0; stroke-width: 0.5"/>
     </g>
     <g id="line2d_44">
      <g>
       <use xlink:href="#mffceb1a551" x="41.209598" y="11.853462" style="stroke: #000000; stroke-width: 0.8"/>
      </g>
     </g>
     <g id="line2d_45">
      <g>
       <use xlink:href="#m11370c81b4" x="458.168225" y="11.853462" style="stroke: #000000; stroke-width: 0.8"/>
      </g>
     </g>
     <g id="text_16">
      <!-- $\mathdefault{15}$ -->
      <g transform="translate(27.746927 15.2842) scale(0.1 -0.1)">
       <use xlink:href="#CMR17-31" transform="scale(0.996264)"/>
       <use xlink:href="#CMR17-35" transform="translate(45.690477 0) scale(0.996264)"/>
      </g>
     </g>
    </g>
    <g id="text_17">
     <!-- $\tau,$ minuty -->
     <g transform="translate(14.061005 185.315118) rotate(-90) scale(0.1 -0.1)">
      <defs>
       <path id="CMMI12-1c" d="M 1837 2406 
L 2899 2406 
C 2982 2406 3194 2406 3194 2611 
C 3194 2752 3072 2752 2957 2752 
L 1197 2752 
C 1050 2752 832 2752 538 2438 
C 371 2253 166 1916 166 1878 
C 166 1839 198 1827 237 1827 
C 282 1827 288 1846 320 1884 
C 653 2406 986 2406 1146 2406 
L 1677 2406 
L 1011 223 
C 979 127 979 114 979 95 
C 979 25 1024 -64 1152 -64 
C 1350 -64 1382 108 1402 204 
L 1837 2406 
z
" transform="scale(0.015625)"/>
       <path id="SFRM3583-6d" d="M 301 2744 
L 301 2602 
L 365 2602 
C 570 2602 678 2557 678 2273 
L 678 360 
C 678 153 525 140 301 140 
L 301 0 
L 1318 0 
L 1318 140 
L 1229 140 
C 1082 140 941 160 941 360 
L 941 1258 
C 941 1375 934 1484 934 1601 
C 934 2066 1088 2738 1715 2738 
C 2112 2738 2272 2428 2272 1950 
L 2272 360 
C 2272 153 2118 140 1894 140 
L 1894 0 
L 2912 0 
L 2912 140 
L 2822 140 
C 2675 140 2534 160 2534 360 
L 2534 1258 
C 2534 1375 2528 1484 2528 1601 
C 2528 2066 2682 2738 3309 2738 
C 3706 2738 3866 2428 3866 1950 
L 3866 360 
C 3866 153 3712 140 3488 140 
L 3488 0 
L 4506 0 
L 4506 140 
L 4403 140 
C 4256 140 4128 160 4128 386 
L 4128 1859 
C 4128 2292 4058 2816 3354 2816 
C 2957 2816 2611 2525 2534 2144 
L 2528 2144 
C 2470 2486 2323 2816 1760 2816 
C 1357 2816 998 2492 934 2118 
L 928 2816 
L 301 2744 
z
" transform="scale(0.015625)"/>
       <path id="SFRM3583-75" d="M 301 2744 
L 301 2600 
L 358 2600 
C 570 2600 685 2568 685 2183 
C 685 2099 678 2014 678 1929 
L 678 887 
C 678 418 762 -64 1459 -64 
C 1856 -64 2170 216 2266 587 
L 2272 -64 
L 2906 -25 
L 2906 118 
L 2842 118 
C 2675 118 2528 137 2528 411 
L 2528 2816 
L 1888 2744 
L 1888 2600 
L 1958 2600 
C 2176 2600 2266 2529 2266 2262 
L 2266 1063 
C 2266 587 2042 14 1491 14 
C 1318 14 1133 72 1030 222 
C 947 339 941 502 941 652 
L 941 2816 
L 301 2744 
z
" transform="scale(0.015625)"/>
       <path id="SFRM3583-74" d="M 845 3968 
C 845 3593 762 2687 109 2687 
L 109 2611 
L 666 2611 
L 666 1118 
C 666 1028 659 924 659 827 
C 659 427 787 -64 1318 -64 
C 1811 -64 1907 485 1907 885 
L 1907 1137 
L 1824 1137 
C 1824 1040 1830 944 1830 840 
C 1830 549 1773 20 1376 20 
C 1005 20 922 478 922 827 
C 922 937 928 1040 928 1150 
L 928 2611 
L 1811 2611 
L 1811 2752 
L 928 2752 
L 928 3968 
L 845 3968 
z
" transform="scale(0.015625)"/>
       <path id="SFRM3583-79" d="M 90 2752 
L 90 2611 
L 134 2611 
C 435 2611 442 2534 672 1965 
C 915 1371 1178 771 1395 170 
C 1421 119 1453 61 1453 4 
C 1453 -9 1453 -28 1446 -41 
C 1389 -201 1318 -360 1254 -520 
C 1139 -808 992 -1204 627 -1204 
C 493 -1204 352 -1146 256 -1057 
C 358 -1057 448 -999 448 -884 
C 448 -788 371 -718 275 -718 
C 186 -718 109 -782 109 -897 
C 109 -1146 390 -1280 614 -1280 
C 1043 -1280 1210 -852 1350 -501 
C 1651 247 1971 981 2253 1735 
L 2368 2023 
C 2464 2272 2573 2611 2931 2611 
L 2931 2752 
L 2189 2752 
L 2189 2611 
C 2304 2611 2394 2496 2394 2387 
C 2394 2272 2330 2151 2291 2055 
C 2138 1678 1984 1307 1837 930 
L 1683 553 
C 1658 483 1626 419 1606 349 
L 1600 349 
C 1581 419 1549 489 1523 553 
L 1382 905 
C 1235 1282 1082 1652 928 2029 
L 819 2298 
C 800 2349 774 2400 768 2451 
L 768 2464 
C 768 2592 922 2611 1018 2611 
L 1018 2752 
L 717 2752 
L 90 2752 
z
" transform="scale(0.015625)"/>
      </defs>
      <use xlink:href="#CMMI12-1c" transform="scale(0.996264)"/>
      <use xlink:href="#CMMI12-3b" transform="translate(48.07173 0) scale(0.996264)"/>
      <use xlink:href="#SFRM3583-6d" transform="translate(104.8672 0) scale(0.996264)"/>
      <use xlink:href="#SFRM3583-69" transform="translate(179.205816 0) scale(0.996264)"/>
      <use xlink:href="#SFRM3583-6e" transform="translate(203.944148 0) scale(0.996264)"/>
      <use xlink:href="#SFRM3583-75" transform="translate(251.002588 0) scale(0.996264)"/>
      <use xlink:href="#SFRM3583-74" transform="translate(300.541016 0) scale(0.996264)"/>
      <use xlink:href="#SFRM3583-79" transform="translate(332.719374 0) scale(0.996264)"/>
     </g>
    </g>
   </g>
   <g id="line2d_46">
    <path d="M 60.162263 122.75805 
L 64.731672 105.134905 
L 68.677981 90.768473 
L 72.208888 78.745064 
L 75.324395 68.889033 
L 78.232201 60.396927 
L 80.932306 53.172097 
L 83.424712 47.102612 
L 85.709416 42.068326 
L 87.994121 37.55887 
L 90.071126 33.927469 
L 92.14813 30.751421 
L 94.017434 28.288266 
L 95.886738 26.203577 
L 97.548341 24.670258 
L 99.209945 23.438754 
L 100.663848 22.608774 
L 102.117751 22.009321 
L 103.571654 21.639359 
L 105.025557 21.497363 
L 106.47946 21.581327 
L 107.933363 21.888766 
L 109.387266 22.416727 
L 110.841169 23.161795 
L 112.502773 24.274165 
L 114.164376 25.658557 
L 116.03368 27.532145 
L 117.902984 29.729529 
L 119.979989 32.535684 
L 122.056993 35.707693 
L 124.341698 39.595532 
L 126.834103 44.280413 
L 129.534209 49.833268 
L 132.649715 56.789282 
L 135.972922 64.763672 
L 139.919231 74.827702 
L 144.904041 88.179511 
L 160.481574 130.36769 
L 164.427882 140.206777 
L 167.95879 148.436302 
L 171.074296 155.159078 
L 173.982102 160.917472 
L 176.682208 165.775821 
L 179.174613 169.813268 
L 181.459318 173.117422 
L 183.744023 176.027032 
L 185.821027 178.319792 
L 187.898032 180.269817 
L 189.767335 181.727632 
L 191.636639 182.90144 
L 193.298243 183.705518 
L 194.959846 184.284443 
L 196.62145 184.639095 
L 198.283053 184.77114 
L 199.944657 184.683018 
L 201.60626 184.377932 
L 203.267864 183.85984 
L 205.137168 183.028252 
L 207.006472 181.940819 
L 208.875776 180.60644 
L 210.95278 178.846347 
L 213.237485 176.590564 
L 215.52219 174.021576 
L 218.014595 170.890543 
L 220.714701 167.150534 
L 223.830207 162.445169 
L 227.361115 156.700406 
L 231.930524 148.803081 
L 247.092656 122.184543 
L 250.623564 116.637092 
L 253.73907 112.157263 
L 256.439176 108.652589 
L 258.931581 105.772386 
L 261.216286 103.462279 
L 263.29329 101.65791 
L 265.370295 100.153115 
L 267.239599 99.068056 
L 269.108902 98.248963 
L 270.770506 97.751778 
L 272.432109 97.478033 
L 274.093713 97.432869 
L 275.755316 97.620691 
L 277.41692 98.045152 
L 279.078523 98.709137 
L 280.740127 99.614755 
L 282.40173 100.763325 
L 284.271034 102.34649 
L 286.140338 104.237316 
L 288.009642 106.434054 
L 290.086647 109.22993 
L 292.163651 112.393693 
L 294.448356 116.289217 
L 296.940761 121.019979 
L 299.433166 126.232432 
L 302.133272 132.394275 
L 305.041078 139.588727 
L 308.156585 147.883203 
L 311.687492 157.929654 
L 315.6338 169.836268 
L 320.618611 185.638764 
L 328.926628 212.892912 
L 335.988443 235.760494 
L 340.557853 249.824456 
L 344.296461 260.643708 
L 347.619668 269.599207 
L 350.527474 276.835288 
L 353.22758 282.990293 
L 355.719985 288.144162 
L 358.00469 292.39073 
L 360.081694 295.831652 
L 362.158698 298.854152 
L 364.028002 301.203 
L 365.897306 303.188769 
L 367.55891 304.641311 
L 369.220513 305.793469 
L 370.674416 306.551153 
L 372.128319 307.072002 
L 373.582222 307.353576 
L 375.036125 307.393924 
L 376.490029 307.19159 
L 377.943932 306.745616 
L 379.397835 306.055545 
L 380.851738 305.121422 
L 382.305641 303.943798 
L 383.967244 302.301153 
L 385.628848 300.344235 
L 387.498152 297.771099 
L 389.367456 294.810192 
L 391.44446 291.074306 
L 393.521464 286.880387 
L 395.806169 281.754481 
L 398.298574 275.574103 
L 400.99868 268.220583 
L 403.906486 259.585144 
L 407.021993 249.576133 
L 410.3452 238.127364 
L 414.083808 224.426026 
L 418.445517 207.554141 
L 424.053429 184.886531 
L 439.215561 122.75805 
L 439.215561 122.75805 
" clip-path="url(#pcb21ae5ca9)" style="fill: none; stroke: #1f77b4; stroke-width: 1.5; stroke-linecap: square"/>
   </g>
   <g id="patch_3">
    <path d="M 41.209598 321.702682 
L 41.209598 7.2 
" style="fill: none; stroke: #000000; stroke-width: 0.8; stroke-linejoin: miter; stroke-linecap: square"/>
   </g>
   <g id="patch_4">
    <path d="M 458.168225 321.702682 
L 458.168225 7.2 
" style="fill: none; stroke: #000000; stroke-width: 0.8; stroke-linejoin: miter; stroke-linecap: square"/>
   </g>
   <g id="patch_5">
    <path d="M 41.209598 321.702682 
L 458.168225 321.702682 
" style="fill: none; stroke: #000000; stroke-width: 0.8; stroke-linejoin: miter; stroke-linecap: square"/>
   </g>
   <g id="patch_6">
    <path d="M 41.209598 7.2 
L 458.168225 7.2 
" style="fill: none; stroke: #000000; stroke-width: 0.8; stroke-linejoin: miter; stroke-linecap: square"/>
   </g>
  </g>
 </g>
 <defs>
  <clipPath id="pcb21ae5ca9">
   <rect x="41.209598" y="7.2" width="416.958628" height="314.502682"/>
  </clipPath>
 </defs>
</svg>
