<?xml version="1.0" encoding="utf-8" standalone="no"?>
<!DOCTYPE svg PUBLIC "-//W3C//DTD SVG 1.1//EN"
  "http://www.w3.org/Graphics/SVG/1.1/DTD/svg11.dtd">
<svg xmlns:xlink="http://www.w3.org/1999/xlink" width="469.19952pt" height="353.99952pt" viewBox="0 0 469.19952 353.99952" xmlns="http://www.w3.org/2000/svg" version="1.1">
 <metadata>
  <rdf:RDF xmlns:dc="http://purl.org/dc/elements/1.1/" xmlns:cc="http://creativecommons.org/ns#" xmlns:rdf="http://www.w3.org/1999/02/22-rdf-syntax-ns#">
   <cc:Work>
    <dc:type rdf:resource="http://purl.org/dc/dcmitype/StillImage"/>
    <dc:date>2025-06-30T13:22:27.505209</dc:date>
    <dc:format>image/svg+xml</dc:format>
    <dc:creator>
     <cc:Agent>
      <dc:title>Matplotlib v3.10.3, https://matplotlib.org/</dc:title>
     </cc:Agent>
    </dc:creator>
   </cc:Work>
  </rdf:RDF>
 </metadata>
 <defs>
  <style type="text/css">*{stroke-linejoin: round; stroke-linecap: butt}</style>
 </defs>
 <g id="figure_1">
  <g id="patch_1">
   <path d="M 0 353.99952 
L 469.19952 353.99952 
L 469.19952 0 
L 0 0 
z
" style="fill: #ffffff"/>
  </g>
  <g id="axes_1">
   <g id="patch_2">
    <path d="M 31.178823 334.501336 
L 461.99952 334.501336 
L 461.99952 7.2 
L 31.178823 7.2 
z
" style="fill: #ffffff"/>
   </g>
   <g id="PathCollection_1">
    <defs>
     <path id="mecb5bcbc1f" d="M -3 3 
L 3 -3 
M -3 -3 
L 3 3 
" style="stroke: #0000ff; stroke-width: 1.5"/>
    </defs>
    <g clip-path="url(#pa83005d249)">
     <use xlink:href="#mecb5bcbc1f" x="50.761582" y="228.085534" style="fill: #0000ff; stroke: #0000ff; stroke-width: 1.5"/>
     <use xlink:href="#mecb5bcbc1f" x="58.594685" y="125.901251" style="fill: #0000ff; stroke: #0000ff; stroke-width: 1.5"/>
     <use xlink:href="#mecb5bcbc1f" x="66.427789" y="56.845344" style="fill: #0000ff; stroke: #0000ff; stroke-width: 1.5"/>
     <use xlink:href="#mecb5bcbc1f" x="74.260892" y="24.795171" style="fill: #0000ff; stroke: #0000ff; stroke-width: 1.5"/>
     <use xlink:href="#mecb5bcbc1f" x="82.093996" y="27.631967" style="fill: #0000ff; stroke: #0000ff; stroke-width: 1.5"/>
     <use xlink:href="#mecb5bcbc1f" x="89.9271" y="58.630574" style="fill: #0000ff; stroke: #0000ff; stroke-width: 1.5"/>
     <use xlink:href="#mecb5bcbc1f" x="97.760203" y="108.255098" style="fill: #0000ff; stroke: #0000ff; stroke-width: 1.5"/>
     <use xlink:href="#mecb5bcbc1f" x="105.593307" y="166.032151" style="fill: #0000ff; stroke: #0000ff; stroke-width: 1.5"/>
     <use xlink:href="#mecb5bcbc1f" x="113.42641" y="222.220044" style="fill: #0000ff; stroke: #0000ff; stroke-width: 1.5"/>
     <use xlink:href="#mecb5bcbc1f" x="121.259514" y="269.068862" style="fill: #0000ff; stroke: #0000ff; stroke-width: 1.5"/>
     <use xlink:href="#mecb5bcbc1f" x="129.092618" y="301.568324" style="fill: #0000ff; stroke: #0000ff; stroke-width: 1.5"/>
     <use xlink:href="#mecb5bcbc1f" x="136.925721" y="317.668978" style="fill: #0000ff; stroke: #0000ff; stroke-width: 1.5"/>
     <use xlink:href="#mecb5bcbc1f" x="144.758825" y="318.037257" style="fill: #0000ff; stroke: #0000ff; stroke-width: 1.5"/>
     <use xlink:href="#mecb5bcbc1f" x="152.591928" y="305.471162" style="fill: #0000ff; stroke: #0000ff; stroke-width: 1.5"/>
     <use xlink:href="#mecb5bcbc1f" x="160.425032" y="284.111348" style="fill: #0000ff; stroke: #0000ff; stroke-width: 1.5"/>
     <use xlink:href="#mecb5bcbc1f" x="168.258135" y="258.605956" style="fill: #0000ff; stroke: #0000ff; stroke-width: 1.5"/>
     <use xlink:href="#mecb5bcbc1f" x="176.091239" y="233.354741" style="fill: #0000ff; stroke: #0000ff; stroke-width: 1.5"/>
     <use xlink:href="#mecb5bcbc1f" x="183.924343" y="211.923906" style="fill: #0000ff; stroke: #0000ff; stroke-width: 1.5"/>
     <use xlink:href="#mecb5bcbc1f" x="191.757446" y="196.687204" style="fill: #0000ff; stroke: #0000ff; stroke-width: 1.5"/>
     <use xlink:href="#mecb5bcbc1f" x="199.59055" y="188.702195" style="fill: #0000ff; stroke: #0000ff; stroke-width: 1.5"/>
     <use xlink:href="#mecb5bcbc1f" x="207.423653" y="187.797536" style="fill: #0000ff; stroke: #0000ff; stroke-width: 1.5"/>
     <use xlink:href="#mecb5bcbc1f" x="215.256757" y="192.820094" style="fill: #0000ff; stroke: #0000ff; stroke-width: 1.5"/>
     <use xlink:href="#mecb5bcbc1f" x="223.089861" y="201.977692" style="fill: #0000ff; stroke: #0000ff; stroke-width: 1.5"/>
     <use xlink:href="#mecb5bcbc1f" x="230.922964" y="213.211205" style="fill: #0000ff; stroke: #0000ff; stroke-width: 1.5"/>
     <use xlink:href="#mecb5bcbc1f" x="238.756068" y="224.537634" style="fill: #0000ff; stroke: #0000ff; stroke-width: 1.5"/>
     <use xlink:href="#mecb5bcbc1f" x="246.589171" y="234.319883" style="fill: #0000ff; stroke: #0000ff; stroke-width: 1.5"/>
     <use xlink:href="#mecb5bcbc1f" x="254.422275" y="241.438219" style="fill: #0000ff; stroke: #0000ff; stroke-width: 1.5"/>
     <use xlink:href="#mecb5bcbc1f" x="262.255379" y="245.35698" style="fill: #0000ff; stroke: #0000ff; stroke-width: 1.5"/>
     <use xlink:href="#mecb5bcbc1f" x="270.088482" y="246.095103" style="fill: #0000ff; stroke: #0000ff; stroke-width: 1.5"/>
     <use xlink:href="#mecb5bcbc1f" x="277.921586" y="244.123244" style="fill: #0000ff; stroke: #0000ff; stroke-width: 1.5"/>
     <use xlink:href="#mecb5bcbc1f" x="285.754689" y="240.214268" style="fill: #0000ff; stroke: #0000ff; stroke-width: 1.5"/>
     <use xlink:href="#mecb5bcbc1f" x="293.587793" y="235.278394" style="fill: #0000ff; stroke: #0000ff; stroke-width: 1.5"/>
     <use xlink:href="#mecb5bcbc1f" x="301.420896" y="230.207641" style="fill: #0000ff; stroke: #0000ff; stroke-width: 1.5"/>
     <use xlink:href="#mecb5bcbc1f" x="309.254" y="225.75188" style="fill: #0000ff; stroke: #0000ff; stroke-width: 1.5"/>
     <use xlink:href="#mecb5bcbc1f" x="317.087104" y="222.437097" style="fill: #0000ff; stroke: #0000ff; stroke-width: 1.5"/>
     <use xlink:href="#mecb5bcbc1f" x="324.920207" y="220.530821" style="fill: #0000ff; stroke: #0000ff; stroke-width: 1.5"/>
     <use xlink:href="#mecb5bcbc1f" x="332.753311" y="220.050552" style="fill: #0000ff; stroke: #0000ff; stroke-width: 1.5"/>
     <use xlink:href="#mecb5bcbc1f" x="340.586414" y="220.806741" style="fill: #0000ff; stroke: #0000ff; stroke-width: 1.5"/>
     <use xlink:href="#mecb5bcbc1f" x="348.419518" y="222.467196" style="fill: #0000ff; stroke: #0000ff; stroke-width: 1.5"/>
     <use xlink:href="#mecb5bcbc1f" x="356.252622" y="224.630584" style="fill: #0000ff; stroke: #0000ff; stroke-width: 1.5"/>
     <use xlink:href="#mecb5bcbc1f" x="364.085725" y="226.896326" style="fill: #0000ff; stroke: #0000ff; stroke-width: 1.5"/>
     <use xlink:href="#mecb5bcbc1f" x="371.918829" y="228.921754" style="fill: #0000ff; stroke: #0000ff; stroke-width: 1.5"/>
     <use xlink:href="#mecb5bcbc1f" x="379.751932" y="230.46066" style="fill: #0000ff; stroke: #0000ff; stroke-width: 1.5"/>
     <use xlink:href="#mecb5bcbc1f" x="387.585036" y="231.381029" style="fill: #0000ff; stroke: #0000ff; stroke-width: 1.5"/>
     <use xlink:href="#mecb5bcbc1f" x="395.41814" y="231.663243" style="fill: #0000ff; stroke: #0000ff; stroke-width: 1.5"/>
     <use xlink:href="#mecb5bcbc1f" x="403.251243" y="231.382534" style="fill: #0000ff; stroke: #0000ff; stroke-width: 1.5"/>
     <use xlink:href="#mecb5bcbc1f" x="411.084347" y="230.681025" style="fill: #0000ff; stroke: #0000ff; stroke-width: 1.5"/>
     <use xlink:href="#mecb5bcbc1f" x="418.91745" y="229.735299" style="fill: #0000ff; stroke: #0000ff; stroke-width: 1.5"/>
     <use xlink:href="#mecb5bcbc1f" x="426.750554" y="228.724887" style="fill: #0000ff; stroke: #0000ff; stroke-width: 1.5"/>
     <use xlink:href="#mecb5bcbc1f" x="434.583657" y="227.806044" style="fill: #0000ff; stroke: #0000ff; stroke-width: 1.5"/>
    </g>
   </g>
   <g id="matplotlib.axis_1">
    <g id="xtick_1">
     <g id="line2d_1">
      <path d="M 50.761582 334.501336 
L 50.761582 7.2 
" clip-path="url(#pa83005d249)" style="fill: none; stroke-dasharray: 1.85,0.8; stroke-dashoffset: 0; stroke: #b0b0b0; stroke-width: 0.5"/>
     </g>
     <g id="line2d_2">
      <defs>
       <path id="ma4499068d9" d="M 0 0 
L 0 -3.5 
" style="stroke: #000000; stroke-width: 0.8"/>
      </defs>
      <g>
       <use xlink:href="#ma4499068d9" x="50.761582" y="334.501336" style="stroke: #000000; stroke-width: 0.8"/>
      </g>
     </g>
     <g id="line2d_3">
      <defs>
       <path id="m42f4eceff7" d="M 0 0 
L 0 3.5 
" style="stroke: #000000; stroke-width: 0.8"/>
      </defs>
      <g>
       <use xlink:href="#m42f4eceff7" x="50.761582" y="7.2" style="stroke: #000000; stroke-width: 0.8"/>
      </g>
     </g>
     <g id="text_1">
      <!-- $\mathdefault{0}$ -->
      <g transform="translate(48.270914 344.862813) scale(0.1 -0.1)">
       <defs>
        <path id="CMR17-30" d="M 2688 2038 
C 2688 2430 2682 3099 2413 3613 
C 2176 4063 1798 4224 1466 4224 
C 1158 4224 768 4082 525 3620 
C 269 3137 243 2539 243 2038 
C 243 1671 250 1112 448 623 
C 723 -39 1216 -128 1466 -128 
C 1760 -128 2208 -7 2470 604 
C 2662 1048 2688 1568 2688 2038 
z
M 1466 -26 
C 1056 -26 813 328 723 816 
C 653 1196 653 1749 653 2109 
C 653 2604 653 3015 736 3407 
C 858 3954 1216 4121 1466 4121 
C 1728 4121 2067 3947 2189 3420 
C 2272 3054 2278 2623 2278 2109 
C 2278 1691 2278 1176 2202 797 
C 2067 96 1690 -26 1466 -26 
z
" transform="scale(0.015625)"/>
       </defs>
       <use xlink:href="#CMR17-30" transform="scale(0.996264)"/>
      </g>
     </g>
    </g>
    <g id="xtick_2">
     <g id="line2d_4">
      <path d="M 129.092618 334.501336 
L 129.092618 7.2 
" clip-path="url(#pa83005d249)" style="fill: none; stroke-dasharray: 1.85,0.8; stroke-dashoffset: 0; stroke: #b0b0b0; stroke-width: 0.5"/>
     </g>
     <g id="line2d_5">
      <g>
       <use xlink:href="#ma4499068d9" x="129.092618" y="334.501336" style="stroke: #000000; stroke-width: 0.8"/>
      </g>
     </g>
     <g id="line2d_6">
      <g>
       <use xlink:href="#m42f4eceff7" x="129.092618" y="7.2" style="stroke: #000000; stroke-width: 0.8"/>
      </g>
     </g>
     <g id="text_2">
      <!-- $\mathdefault{2}$ -->
      <g transform="translate(126.60195 344.862813) scale(0.1 -0.1)">
       <defs>
        <path id="CMR17-32" d="M 2669 990 
L 2554 990 
C 2490 537 2438 460 2413 422 
C 2381 371 1920 371 1830 371 
L 602 371 
C 832 620 1280 1073 1824 1596 
C 2214 1966 2669 2400 2669 3033 
C 2669 3788 2067 4224 1395 4224 
C 691 4224 262 3603 262 3027 
C 262 2777 448 2745 525 2745 
C 589 2745 781 2783 781 3007 
C 781 3206 614 3264 525 3264 
C 486 3264 448 3257 422 3244 
C 544 3788 915 4057 1306 4057 
C 1862 4057 2227 3616 2227 3033 
C 2227 2477 1901 1998 1536 1583 
L 262 147 
L 262 0 
L 2515 0 
L 2669 990 
z
" transform="scale(0.015625)"/>
       </defs>
       <use xlink:href="#CMR17-32" transform="scale(0.996264)"/>
      </g>
     </g>
    </g>
    <g id="xtick_3">
     <g id="line2d_7">
      <path d="M 207.423653 334.501336 
L 207.423653 7.2 
" clip-path="url(#pa83005d249)" style="fill: none; stroke-dasharray: 1.85,0.8; stroke-dashoffset: 0; stroke: #b0b0b0; stroke-width: 0.5"/>
     </g>
     <g id="line2d_8">
      <g>
       <use xlink:href="#ma4499068d9" x="207.423653" y="334.501336" style="stroke: #000000; stroke-width: 0.8"/>
      </g>
     </g>
     <g id="line2d_9">
      <g>
       <use xlink:href="#m42f4eceff7" x="207.423653" y="7.2" style="stroke: #000000; stroke-width: 0.8"/>
      </g>
     </g>
     <g id="text_3">
      <!-- $\mathdefault{4}$ -->
      <g transform="translate(204.932986 344.862813) scale(0.1 -0.1)">
       <defs>
        <path id="CMR17-34" d="M 2150 4147 
C 2150 4281 2144 4288 2029 4288 
L 128 1254 
L 128 1088 
L 1779 1088 
L 1779 460 
C 1779 230 1766 166 1318 166 
L 1197 166 
L 1197 0 
C 1402 12 1747 12 1965 12 
C 2182 12 2528 12 2733 0 
L 2733 166 
L 2611 166 
C 2163 166 2150 230 2150 460 
L 2150 1088 
L 2803 1088 
L 2803 1254 
L 2150 1254 
L 2150 4147 
z
M 1798 3723 
L 1798 1254 
L 256 1254 
L 1798 3723 
z
" transform="scale(0.015625)"/>
       </defs>
       <use xlink:href="#CMR17-34" transform="scale(0.996264)"/>
      </g>
     </g>
    </g>
    <g id="xtick_4">
     <g id="line2d_10">
      <path d="M 285.754689 334.501336 
L 285.754689 7.2 
" clip-path="url(#pa83005d249)" style="fill: none; stroke-dasharray: 1.85,0.8; stroke-dashoffset: 0; stroke: #b0b0b0; stroke-width: 0.5"/>
     </g>
     <g id="line2d_11">
      <g>
       <use xlink:href="#ma4499068d9" x="285.754689" y="334.501336" style="stroke: #000000; stroke-width: 0.8"/>
      </g>
     </g>
     <g id="line2d_12">
      <g>
       <use xlink:href="#m42f4eceff7" x="285.754689" y="7.2" style="stroke: #000000; stroke-width: 0.8"/>
      </g>
     </g>
     <g id="text_4">
      <!-- $\mathdefault{6}$ -->
      <g transform="translate(283.264022 344.862813) scale(0.1 -0.1)">
       <defs>
        <path id="CMR17-36" d="M 678 2198 
C 678 3712 1395 4076 1811 4076 
C 1946 4076 2272 4049 2400 3782 
C 2298 3782 2106 3782 2106 3558 
C 2106 3385 2246 3328 2336 3328 
C 2394 3328 2566 3353 2566 3571 
C 2566 3987 2246 4224 1805 4224 
C 1043 4224 243 3411 243 2011 
C 243 257 966 -128 1478 -128 
C 2099 -128 2688 431 2688 1295 
C 2688 2101 2170 2688 1517 2688 
C 1126 2688 838 2430 678 1979 
L 678 2198 
z
M 1478 25 
C 691 25 691 1212 691 1450 
C 691 1914 909 2585 1504 2585 
C 1613 2585 1926 2585 2138 2140 
C 2253 1889 2253 1624 2253 1302 
C 2253 954 2253 696 2118 438 
C 1978 173 1773 25 1478 25 
z
" transform="scale(0.015625)"/>
       </defs>
       <use xlink:href="#CMR17-36" transform="scale(0.996264)"/>
      </g>
     </g>
    </g>
    <g id="xtick_5">
     <g id="line2d_13">
      <path d="M 364.085725 334.501336 
L 364.085725 7.2 
" clip-path="url(#pa83005d249)" style="fill: none; stroke-dasharray: 1.85,0.8; stroke-dashoffset: 0; stroke: #b0b0b0; stroke-width: 0.5"/>
     </g>
     <g id="line2d_14">
      <g>
       <use xlink:href="#ma4499068d9" x="364.085725" y="334.501336" style="stroke: #000000; stroke-width: 0.8"/>
      </g>
     </g>
     <g id="line2d_15">
      <g>
       <use xlink:href="#m42f4eceff7" x="364.085725" y="7.2" style="stroke: #000000; stroke-width: 0.8"/>
      </g>
     </g>
     <g id="text_5">
      <!-- $\mathdefault{8}$ -->
      <g transform="translate(361.595058 344.862813) scale(0.1 -0.1)">
       <defs>
        <path id="CMR17-38" d="M 1741 2289 
C 2144 2494 2554 2803 2554 3298 
C 2554 3884 1990 4224 1472 4224 
C 890 4224 378 3800 378 3215 
C 378 3054 416 2777 666 2533 
C 730 2469 998 2276 1171 2154 
C 883 2006 211 1652 211 945 
C 211 282 838 -128 1459 -128 
C 2144 -128 2720 366 2720 1022 
C 2720 1607 2330 1877 2074 2051 
L 1741 2289 
z
M 902 2855 
C 851 2887 595 3086 595 3388 
C 595 3781 998 4076 1459 4076 
C 1965 4076 2336 3716 2336 3298 
C 2336 2700 1670 2359 1638 2359 
C 1632 2359 1626 2359 1574 2398 
L 902 2855 
z
M 2080 1536 
C 2176 1466 2483 1253 2483 861 
C 2483 385 2010 25 1472 25 
C 890 25 448 443 448 951 
C 448 1459 838 1884 1280 2083 
L 2080 1536 
z
" transform="scale(0.015625)"/>
       </defs>
       <use xlink:href="#CMR17-38" transform="scale(0.996264)"/>
      </g>
     </g>
    </g>
    <g id="xtick_6">
     <g id="line2d_16">
      <path d="M 442.416761 334.501336 
L 442.416761 7.2 
" clip-path="url(#pa83005d249)" style="fill: none; stroke-dasharray: 1.85,0.8; stroke-dashoffset: 0; stroke: #b0b0b0; stroke-width: 0.5"/>
     </g>
     <g id="line2d_17">
      <g>
       <use xlink:href="#ma4499068d9" x="442.416761" y="334.501336" style="stroke: #000000; stroke-width: 0.8"/>
      </g>
     </g>
     <g id="line2d_18">
      <g>
       <use xlink:href="#m42f4eceff7" x="442.416761" y="7.2" style="stroke: #000000; stroke-width: 0.8"/>
      </g>
     </g>
     <g id="text_6">
      <!-- $\mathdefault{10}$ -->
      <g transform="translate(437.435426 344.862813) scale(0.1 -0.1)">
       <defs>
        <path id="CMR17-31" d="M 1702 4083 
C 1702 4217 1696 4224 1606 4224 
C 1357 3927 979 3833 621 3820 
C 602 3820 570 3820 563 3808 
C 557 3795 557 3782 557 3648 
C 755 3648 1088 3686 1344 3839 
L 1344 467 
C 1344 243 1331 166 781 166 
L 589 166 
L 589 0 
C 896 6 1216 12 1523 12 
C 1830 12 2150 6 2458 0 
L 2458 166 
L 2266 166 
C 1715 166 1702 236 1702 467 
L 1702 4083 
z
" transform="scale(0.015625)"/>
       </defs>
       <use xlink:href="#CMR17-31" transform="scale(0.996264)"/>
       <use xlink:href="#CMR17-30" transform="translate(45.690477 0) scale(0.996264)"/>
      </g>
     </g>
    </g>
   </g>
   <g id="matplotlib.axis_2">
    <g id="ytick_1">
     <g id="line2d_19">
      <path d="M 31.178823 285.991138 
L 461.99952 285.991138 
" clip-path="url(#pa83005d249)" style="fill: none; stroke-dasharray: 1.85,0.8; stroke-dashoffset: 0; stroke: #b0b0b0; stroke-width: 0.5"/>
     </g>
     <g id="line2d_20">
      <defs>
       <path id="m5c78cb6fcf" d="M 0 0 
L 3.5 0 
" style="stroke: #000000; stroke-width: 0.8"/>
      </defs>
      <g>
       <use xlink:href="#m5c78cb6fcf" x="31.178823" y="285.991138" style="stroke: #000000; stroke-width: 0.8"/>
      </g>
     </g>
     <g id="line2d_21">
      <defs>
       <path id="mc1adc4415a" d="M 0 0 
L -3.5 0 
" style="stroke: #000000; stroke-width: 0.8"/>
      </defs>
      <g>
       <use xlink:href="#mc1adc4415a" x="461.99952" y="285.991138" style="stroke: #000000; stroke-width: 0.8"/>
      </g>
     </g>
     <g id="text_7">
      <!-- $\mathdefault{−0.1}$ -->
      <g transform="translate(7.2 289.421876) scale(0.1 -0.1)">
       <defs>
        <path id="CMSY10-0" d="M 4218 1472 
C 4326 1472 4442 1472 4442 1600 
C 4442 1728 4326 1728 4218 1728 
L 755 1728 
C 646 1728 531 1728 531 1600 
C 531 1472 646 1472 755 1472 
L 4218 1472 
z
" transform="scale(0.015625)"/>
        <path id="CMMI12-3a" d="M 1178 307 
C 1178 492 1024 620 870 620 
C 685 620 557 467 557 313 
C 557 128 710 0 864 0 
C 1050 0 1178 153 1178 307 
z
" transform="scale(0.015625)"/>
       </defs>
       <use xlink:href="#CMSY10-0" transform="scale(0.996264)"/>
       <use xlink:href="#CMR17-30" transform="translate(77.487468 0) scale(0.996264)"/>
       <use xlink:href="#CMMI12-3a" transform="translate(123.177945 0) scale(0.996264)"/>
       <use xlink:href="#CMR17-31" transform="translate(150.275122 0) scale(0.996264)"/>
      </g>
     </g>
    </g>
    <g id="ytick_2">
     <g id="line2d_22">
      <path d="M 31.178823 228.085534 
L 461.99952 228.085534 
" clip-path="url(#pa83005d249)" style="fill: none; stroke-dasharray: 1.85,0.8; stroke-dashoffset: 0; stroke: #b0b0b0; stroke-width: 0.5"/>
     </g>
     <g id="line2d_23">
      <g>
       <use xlink:href="#m5c78cb6fcf" x="31.178823" y="228.085534" style="stroke: #000000; stroke-width: 0.8"/>
      </g>
     </g>
     <g id="line2d_24">
      <g>
       <use xlink:href="#mc1adc4415a" x="461.99952" y="228.085534" style="stroke: #000000; stroke-width: 0.8"/>
      </g>
     </g>
     <g id="text_8">
      <!-- $\mathdefault{0.0}$ -->
      <g transform="translate(14.948744 231.516272) scale(0.1 -0.1)">
       <use xlink:href="#CMR17-30" transform="scale(0.996264)"/>
       <use xlink:href="#CMMI12-3a" transform="translate(45.690477 0) scale(0.996264)"/>
       <use xlink:href="#CMR17-30" transform="translate(72.787654 0) scale(0.996264)"/>
      </g>
     </g>
    </g>
    <g id="ytick_3">
     <g id="line2d_25">
      <path d="M 31.178823 170.17993 
L 461.99952 170.17993 
" clip-path="url(#pa83005d249)" style="fill: none; stroke-dasharray: 1.85,0.8; stroke-dashoffset: 0; stroke: #b0b0b0; stroke-width: 0.5"/>
     </g>
     <g id="line2d_26">
      <g>
       <use xlink:href="#m5c78cb6fcf" x="31.178823" y="170.17993" style="stroke: #000000; stroke-width: 0.8"/>
      </g>
     </g>
     <g id="line2d_27">
      <g>
       <use xlink:href="#mc1adc4415a" x="461.99952" y="170.17993" style="stroke: #000000; stroke-width: 0.8"/>
      </g>
     </g>
     <g id="text_9">
      <!-- $\mathdefault{0.1}$ -->
      <g transform="translate(14.948744 173.610668) scale(0.1 -0.1)">
       <use xlink:href="#CMR17-30" transform="scale(0.996264)"/>
       <use xlink:href="#CMMI12-3a" transform="translate(45.690477 0) scale(0.996264)"/>
       <use xlink:href="#CMR17-31" transform="translate(72.787654 0) scale(0.996264)"/>
      </g>
     </g>
    </g>
    <g id="ytick_4">
     <g id="line2d_28">
      <path d="M 31.178823 112.274326 
L 461.99952 112.274326 
" clip-path="url(#pa83005d249)" style="fill: none; stroke-dasharray: 1.85,0.8; stroke-dashoffset: 0; stroke: #b0b0b0; stroke-width: 0.5"/>
     </g>
     <g id="line2d_29">
      <g>
       <use xlink:href="#m5c78cb6fcf" x="31.178823" y="112.274326" style="stroke: #000000; stroke-width: 0.8"/>
      </g>
     </g>
     <g id="line2d_30">
      <g>
       <use xlink:href="#mc1adc4415a" x="461.99952" y="112.274326" style="stroke: #000000; stroke-width: 0.8"/>
      </g>
     </g>
     <g id="text_10">
      <!-- $\mathdefault{0.2}$ -->
      <g transform="translate(14.948744 115.705064) scale(0.1 -0.1)">
       <use xlink:href="#CMR17-30" transform="scale(0.996264)"/>
       <use xlink:href="#CMMI12-3a" transform="translate(45.690477 0) scale(0.996264)"/>
       <use xlink:href="#CMR17-32" transform="translate(72.787654 0) scale(0.996264)"/>
      </g>
     </g>
    </g>
    <g id="ytick_5">
     <g id="line2d_31">
      <path d="M 31.178823 54.368721 
L 461.99952 54.368721 
" clip-path="url(#pa83005d249)" style="fill: none; stroke-dasharray: 1.85,0.8; stroke-dashoffset: 0; stroke: #b0b0b0; stroke-width: 0.5"/>
     </g>
     <g id="line2d_32">
      <g>
       <use xlink:href="#m5c78cb6fcf" x="31.178823" y="54.368721" style="stroke: #000000; stroke-width: 0.8"/>
      </g>
     </g>
     <g id="line2d_33">
      <g>
       <use xlink:href="#mc1adc4415a" x="461.99952" y="54.368721" style="stroke: #000000; stroke-width: 0.8"/>
      </g>
     </g>
     <g id="text_11">
      <!-- $\mathdefault{0.3}$ -->
      <g transform="translate(14.948744 57.79946) scale(0.1 -0.1)">
       <defs>
        <path id="CMR17-33" d="M 1414 2176 
C 1984 2176 2234 1673 2234 1094 
C 2234 322 1824 25 1453 25 
C 1114 25 563 193 390 691 
C 422 678 454 678 486 678 
C 640 678 755 780 755 947 
C 755 1132 614 1216 486 1216 
C 378 1216 211 1164 211 927 
C 211 335 787 -128 1466 -128 
C 2176 -128 2720 432 2720 1087 
C 2720 1718 2208 2176 1600 2246 
C 2086 2347 2554 2776 2554 3353 
C 2554 3856 2048 4224 1472 4224 
C 890 4224 378 3862 378 3347 
C 378 3123 544 3084 627 3084 
C 762 3084 877 3167 877 3334 
C 877 3500 762 3584 627 3584 
C 602 3584 570 3584 544 3571 
C 730 3999 1235 4076 1459 4076 
C 1683 4076 2106 3966 2106 3347 
C 2106 3167 2080 2851 1862 2574 
C 1670 2329 1453 2316 1242 2297 
C 1210 2297 1062 2284 1037 2284 
C 992 2278 966 2272 966 2227 
C 966 2182 973 2176 1101 2176 
L 1414 2176 
z
" transform="scale(0.015625)"/>
       </defs>
       <use xlink:href="#CMR17-30" transform="scale(0.996264)"/>
       <use xlink:href="#CMMI12-3a" transform="translate(45.690477 0) scale(0.996264)"/>
       <use xlink:href="#CMR17-33" transform="translate(72.787654 0) scale(0.996264)"/>
      </g>
     </g>
    </g>
   </g>
   <g id="line2d_34">
    <path d="M 50.761582 228.085534 
L 53.505912 189.028063 
L 55.858196 158.224522 
L 58.210479 130.193747 
L 60.170715 109.120775 
L 62.130951 90.238269 
L 64.091187 73.623685 
L 65.659376 62.000404 
L 67.227565 51.8768 
L 68.795754 43.257617 
L 69.971896 37.777913 
L 71.148037 33.13639 
L 72.324179 29.32474 
L 73.500321 26.331954 
L 74.284415 24.785077 
L 75.06851 23.591509 
L 75.852604 22.746142 
L 76.636699 22.243414 
L 77.420793 22.077333 
L 78.204888 22.24149 
L 78.988982 22.729078 
L 79.773076 23.532912 
L 80.557171 24.64545 
L 81.341265 26.058805 
L 82.517407 28.72484 
L 83.693549 32.020237 
L 84.86969 35.914669 
L 86.437879 41.984379 
L 88.006068 48.985089 
L 89.966304 58.922305 
L 91.92654 70.026327 
L 94.278824 84.658319 
L 97.023154 103.166255 
L 100.551579 128.5347 
L 112.705043 217.401202 
L 115.841421 238.003482 
L 118.585752 254.541454 
L 120.938035 267.434424 
L 123.290319 279.025453 
L 125.250555 287.627155 
L 127.210791 295.227498 
L 128.77898 300.569388 
L 130.347169 305.246215 
L 131.915358 309.254697 
L 133.483546 312.595884 
L 134.659688 314.666837 
L 135.83583 316.368942 
L 137.011972 317.707064 
L 138.188113 318.687218 
L 139.364255 319.316511 
L 140.540397 319.603087 
L 141.716538 319.556068 
L 142.89268 319.185489 
L 144.068822 318.502239 
L 145.244963 317.517994 
L 146.421105 316.245157 
L 147.597247 314.696786 
L 149.165436 312.227357 
L 150.733624 309.326207 
L 152.693861 305.146352 
L 154.654097 300.418033 
L 157.00638 294.122871 
L 159.750711 286.083899 
L 163.279136 274.961839 
L 169.943939 252.933639 
L 174.648505 237.745798 
L 178.17693 227.103126 
L 180.921261 219.468368 
L 183.665591 212.51344 
L 186.017875 207.158669 
L 188.370158 202.408748 
L 190.330394 198.935338 
L 192.29063 195.916152 
L 194.250867 193.3585 
L 195.819056 191.646483 
L 197.387244 190.2306 
L 198.955433 189.108122 
L 200.523622 188.274587 
L 202.091811 187.723891 
L 203.66 187.448391 
L 205.228189 187.439019 
L 206.796378 187.685387 
L 208.364567 188.175911 
L 209.932756 188.897925 
L 211.500945 189.837808 
L 213.461181 191.296946 
L 215.421417 193.044102 
L 217.7737 195.476978 
L 220.125984 198.224141 
L 222.870314 201.75066 
L 226.398739 206.65429 
L 232.671495 215.85143 
L 238.160156 223.755512 
L 241.688581 228.48731 
L 244.824959 232.343918 
L 247.569289 235.391055 
L 250.31362 238.09365 
L 252.665903 240.114571 
L 255.018187 241.849436 
L 257.37047 243.290652 
L 259.722753 244.435179 
L 261.68299 245.163118 
L 263.643226 245.688753 
L 265.603462 246.016827 
L 267.563698 246.153782 
L 269.915981 246.077204 
L 272.268265 245.753435 
L 274.620548 245.201414 
L 277.364879 244.297053 
L 280.109209 243.14691 
L 283.245587 241.580846 
L 286.774012 239.569275 
L 291.478579 236.618224 
L 304.02409 228.605466 
L 307.944562 226.412593 
L 311.472987 224.670498 
L 315.001412 223.184221 
L 318.13779 222.097475 
L 321.274168 221.241659 
L 324.410546 220.620053 
L 327.546924 220.229923 
L 330.683301 220.063053 
L 333.819679 220.106365 
L 337.348104 220.38472 
L 340.876529 220.877523 
L 345.189049 221.721626 
L 350.285663 222.975599 
L 357.73456 225.082701 
L 367.927788 227.949636 
L 373.416449 229.266279 
L 378.513063 230.258808 
L 383.21763 230.946134 
L 387.922197 231.400841 
L 392.626763 231.624647 
L 397.33133 231.631576 
L 402.427944 231.422574 
L 408.308652 230.954193 
L 415.75755 230.1223 
L 438.496289 227.416165 
L 442.416761 227.092541 
L 442.416761 227.092541 
" clip-path="url(#pa83005d249)" style="fill: none; stroke: #ff0000; stroke-width: 1.5; stroke-linecap: square"/>
   </g>
   <g id="patch_3">
    <path d="M 31.178823 334.501336 
L 31.178823 7.2 
" style="fill: none; stroke: #000000; stroke-width: 0.8; stroke-linejoin: miter; stroke-linecap: square"/>
   </g>
   <g id="patch_4">
    <path d="M 461.99952 334.501336 
L 461.99952 7.2 
" style="fill: none; stroke: #000000; stroke-width: 0.8; stroke-linejoin: miter; stroke-linecap: square"/>
   </g>
   <g id="patch_5">
    <path d="M 31.178823 334.501336 
L 461.99952 334.501336 
" style="fill: none; stroke: #000000; stroke-width: 0.8; stroke-linejoin: miter; stroke-linecap: square"/>
   </g>
   <g id="patch_6">
    <path d="M 31.178823 7.2 
L 461.99952 7.2 
" style="fill: none; stroke: #000000; stroke-width: 0.8; stroke-linejoin: miter; stroke-linecap: square"/>
   </g>
  </g>
 </g>
 <defs>
  <clipPath id="pa83005d249">
   <rect x="31.178823" y="7.2" width="430.820697" height="327.301336"/>
  </clipPath>
 </defs>
</svg>
