<?xml version="1.0" encoding="utf-8" standalone="no"?>
<!DOCTYPE svg PUBLIC "-//W3C//DTD SVG 1.1//EN"
  "http://www.w3.org/Graphics/SVG/1.1/DTD/svg11.dtd">
<svg xmlns:xlink="http://www.w3.org/1999/xlink" width="469.19952pt" height="353.999515pt" viewBox="0 0 469.19952 353.999515" xmlns="http://www.w3.org/2000/svg" version="1.1">
 <metadata>
  <rdf:RDF xmlns:dc="http://purl.org/dc/elements/1.1/" xmlns:cc="http://creativecommons.org/ns#" xmlns:rdf="http://www.w3.org/1999/02/22-rdf-syntax-ns#">
   <cc:Work>
    <dc:type rdf:resource="http://purl.org/dc/dcmitype/StillImage"/>
    <dc:date>2025-09-02T20:01:31.480128</dc:date>
    <dc:format>image/svg+xml</dc:format>
    <dc:creator>
     <cc:Agent>
      <dc:title>Matplotlib v3.10.3, https://matplotlib.org/</dc:title>
     </cc:Agent>
    </dc:creator>
   </cc:Work>
  </rdf:RDF>
 </metadata>
 <defs>
  <style type="text/css">*{stroke-linejoin: round; stroke-linecap: butt}</style>
 </defs>
 <g id="figure_1">
  <g id="patch_1">
   <path d="M 0 353.999515 
L 469.19952 353.999515 
L 469.19952 0 
L 0 0 
z
" style="fill: #ffffff"/>
  </g>
  <g id="axes_1">
   <g id="patch_2">
    <path d="M 52.336725 319.92878 
L 461.99952 319.92878 
L 461.99952 10.523108 
L 52.336725 10.523108 
z
" style="fill: #ffffff"/>
   </g>
   <g id="matplotlib.axis_1">
    <g id="xtick_1">
     <g id="line2d_1">
      <path d="M 70.957761 319.92878 
L 70.957761 10.523108 
" clip-path="url(#pfcbc1ecf00)" style="fill: none; stroke-dasharray: 1.85,0.8; stroke-dashoffset: 0; stroke: #b0b0b0; stroke-width: 0.5"/>
     </g>
     <g id="line2d_2">
      <defs>
       <path id="m8af6e43ed9" d="M 0 0 
L 0 -3.5 
" style="stroke: #000000; stroke-width: 0.8"/>
      </defs>
      <g>
       <use xlink:href="#m8af6e43ed9" x="70.957761" y="319.92878" style="stroke: #000000; stroke-width: 0.8"/>
      </g>
     </g>
     <g id="line2d_3">
      <defs>
       <path id="m2942619a00" d="M 0 0 
L 0 3.5 
" style="stroke: #000000; stroke-width: 0.8"/>
      </defs>
      <g>
       <use xlink:href="#m2942619a00" x="70.957761" y="10.523108" style="stroke: #000000; stroke-width: 0.8"/>
      </g>
     </g>
     <g id="text_1">
      <!-- $\mathdefault{0}$ -->
      <g transform="translate(68.467093 330.290257) scale(0.1 -0.1)">
       <defs>
        <path id="CMR17-30" d="M 2688 2038 
C 2688 2430 2682 3099 2413 3613 
C 2176 4063 1798 4224 1466 4224 
C 1158 4224 768 4082 525 3620 
C 269 3137 243 2539 243 2038 
C 243 1671 250 1112 448 623 
C 723 -39 1216 -128 1466 -128 
C 1760 -128 2208 -7 2470 604 
C 2662 1048 2688 1568 2688 2038 
z
M 1466 -26 
C 1056 -26 813 328 723 816 
C 653 1196 653 1749 653 2109 
C 653 2604 653 3015 736 3407 
C 858 3954 1216 4121 1466 4121 
C 1728 4121 2067 3947 2189 3420 
C 2272 3054 2278 2623 2278 2109 
C 2278 1691 2278 1176 2202 797 
C 2067 96 1690 -26 1466 -26 
z
" transform="scale(0.015625)"/>
       </defs>
       <use xlink:href="#CMR17-30" transform="scale(0.996264)"/>
      </g>
     </g>
    </g>
    <g id="xtick_2">
     <g id="line2d_4">
      <path d="M 153.717922 319.92878 
L 153.717922 10.523108 
" clip-path="url(#pfcbc1ecf00)" style="fill: none; stroke-dasharray: 1.85,0.8; stroke-dashoffset: 0; stroke: #b0b0b0; stroke-width: 0.5"/>
     </g>
     <g id="line2d_5">
      <g>
       <use xlink:href="#m8af6e43ed9" x="153.717922" y="319.92878" style="stroke: #000000; stroke-width: 0.8"/>
      </g>
     </g>
     <g id="line2d_6">
      <g>
       <use xlink:href="#m2942619a00" x="153.717922" y="10.523108" style="stroke: #000000; stroke-width: 0.8"/>
      </g>
     </g>
     <g id="text_2">
      <!-- $\mathdefault{100000}$ -->
      <g transform="translate(138.773916 330.290257) scale(0.1 -0.1)">
       <defs>
        <path id="CMR17-31" d="M 1702 4083 
C 1702 4217 1696 4224 1606 4224 
C 1357 3927 979 3833 621 3820 
C 602 3820 570 3820 563 3808 
C 557 3795 557 3782 557 3648 
C 755 3648 1088 3686 1344 3839 
L 1344 467 
C 1344 243 1331 166 781 166 
L 589 166 
L 589 0 
C 896 6 1216 12 1523 12 
C 1830 12 2150 6 2458 0 
L 2458 166 
L 2266 166 
C 1715 166 1702 236 1702 467 
L 1702 4083 
z
" transform="scale(0.015625)"/>
       </defs>
       <use xlink:href="#CMR17-31" transform="scale(0.996264)"/>
       <use xlink:href="#CMR17-30" transform="translate(45.690477 0) scale(0.996264)"/>
       <use xlink:href="#CMR17-30" transform="translate(91.380954 0) scale(0.996264)"/>
       <use xlink:href="#CMR17-30" transform="translate(137.071431 0) scale(0.996264)"/>
       <use xlink:href="#CMR17-30" transform="translate(182.761908 0) scale(0.996264)"/>
       <use xlink:href="#CMR17-30" transform="translate(228.452386 0) scale(0.996264)"/>
      </g>
     </g>
    </g>
    <g id="xtick_3">
     <g id="line2d_7">
      <path d="M 236.478082 319.92878 
L 236.478082 10.523108 
" clip-path="url(#pfcbc1ecf00)" style="fill: none; stroke-dasharray: 1.85,0.8; stroke-dashoffset: 0; stroke: #b0b0b0; stroke-width: 0.5"/>
     </g>
     <g id="line2d_8">
      <g>
       <use xlink:href="#m8af6e43ed9" x="236.478082" y="319.92878" style="stroke: #000000; stroke-width: 0.8"/>
      </g>
     </g>
     <g id="line2d_9">
      <g>
       <use xlink:href="#m2942619a00" x="236.478082" y="10.523108" style="stroke: #000000; stroke-width: 0.8"/>
      </g>
     </g>
     <g id="text_3">
      <!-- $\mathdefault{200000}$ -->
      <g transform="translate(221.534077 330.290257) scale(0.1 -0.1)">
       <defs>
        <path id="CMR17-32" d="M 2669 990 
L 2554 990 
C 2490 537 2438 460 2413 422 
C 2381 371 1920 371 1830 371 
L 602 371 
C 832 620 1280 1073 1824 1596 
C 2214 1966 2669 2400 2669 3033 
C 2669 3788 2067 4224 1395 4224 
C 691 4224 262 3603 262 3027 
C 262 2777 448 2745 525 2745 
C 589 2745 781 2783 781 3007 
C 781 3206 614 3264 525 3264 
C 486 3264 448 3257 422 3244 
C 544 3788 915 4057 1306 4057 
C 1862 4057 2227 3616 2227 3033 
C 2227 2477 1901 1998 1536 1583 
L 262 147 
L 262 0 
L 2515 0 
L 2669 990 
z
" transform="scale(0.015625)"/>
       </defs>
       <use xlink:href="#CMR17-32" transform="scale(0.996264)"/>
       <use xlink:href="#CMR17-30" transform="translate(45.690477 0) scale(0.996264)"/>
       <use xlink:href="#CMR17-30" transform="translate(91.380954 0) scale(0.996264)"/>
       <use xlink:href="#CMR17-30" transform="translate(137.071431 0) scale(0.996264)"/>
       <use xlink:href="#CMR17-30" transform="translate(182.761908 0) scale(0.996264)"/>
       <use xlink:href="#CMR17-30" transform="translate(228.452386 0) scale(0.996264)"/>
      </g>
     </g>
    </g>
    <g id="xtick_4">
     <g id="line2d_10">
      <path d="M 319.238243 319.92878 
L 319.238243 10.523108 
" clip-path="url(#pfcbc1ecf00)" style="fill: none; stroke-dasharray: 1.85,0.8; stroke-dashoffset: 0; stroke: #b0b0b0; stroke-width: 0.5"/>
     </g>
     <g id="line2d_11">
      <g>
       <use xlink:href="#m8af6e43ed9" x="319.238243" y="319.92878" style="stroke: #000000; stroke-width: 0.8"/>
      </g>
     </g>
     <g id="line2d_12">
      <g>
       <use xlink:href="#m2942619a00" x="319.238243" y="10.523108" style="stroke: #000000; stroke-width: 0.8"/>
      </g>
     </g>
     <g id="text_4">
      <!-- $\mathdefault{300000}$ -->
      <g transform="translate(304.294237 330.290257) scale(0.1 -0.1)">
       <defs>
        <path id="CMR17-33" d="M 1414 2176 
C 1984 2176 2234 1673 2234 1094 
C 2234 322 1824 25 1453 25 
C 1114 25 563 193 390 691 
C 422 678 454 678 486 678 
C 640 678 755 780 755 947 
C 755 1132 614 1216 486 1216 
C 378 1216 211 1164 211 927 
C 211 335 787 -128 1466 -128 
C 2176 -128 2720 432 2720 1087 
C 2720 1718 2208 2176 1600 2246 
C 2086 2347 2554 2776 2554 3353 
C 2554 3856 2048 4224 1472 4224 
C 890 4224 378 3862 378 3347 
C 378 3123 544 3084 627 3084 
C 762 3084 877 3167 877 3334 
C 877 3500 762 3584 627 3584 
C 602 3584 570 3584 544 3571 
C 730 3999 1235 4076 1459 4076 
C 1683 4076 2106 3966 2106 3347 
C 2106 3167 2080 2851 1862 2574 
C 1670 2329 1453 2316 1242 2297 
C 1210 2297 1062 2284 1037 2284 
C 992 2278 966 2272 966 2227 
C 966 2182 973 2176 1101 2176 
L 1414 2176 
z
" transform="scale(0.015625)"/>
       </defs>
       <use xlink:href="#CMR17-33" transform="scale(0.996264)"/>
       <use xlink:href="#CMR17-30" transform="translate(45.690477 0) scale(0.996264)"/>
       <use xlink:href="#CMR17-30" transform="translate(91.380954 0) scale(0.996264)"/>
       <use xlink:href="#CMR17-30" transform="translate(137.071431 0) scale(0.996264)"/>
       <use xlink:href="#CMR17-30" transform="translate(182.761908 0) scale(0.996264)"/>
       <use xlink:href="#CMR17-30" transform="translate(228.452386 0) scale(0.996264)"/>
      </g>
     </g>
    </g>
    <g id="xtick_5">
     <g id="line2d_13">
      <path d="M 401.998404 319.92878 
L 401.998404 10.523108 
" clip-path="url(#pfcbc1ecf00)" style="fill: none; stroke-dasharray: 1.85,0.8; stroke-dashoffset: 0; stroke: #b0b0b0; stroke-width: 0.5"/>
     </g>
     <g id="line2d_14">
      <g>
       <use xlink:href="#m8af6e43ed9" x="401.998404" y="319.92878" style="stroke: #000000; stroke-width: 0.8"/>
      </g>
     </g>
     <g id="line2d_15">
      <g>
       <use xlink:href="#m2942619a00" x="401.998404" y="10.523108" style="stroke: #000000; stroke-width: 0.8"/>
      </g>
     </g>
     <g id="text_5">
      <!-- $\mathdefault{400000}$ -->
      <g transform="translate(387.054398 330.290257) scale(0.1 -0.1)">
       <defs>
        <path id="CMR17-34" d="M 2150 4147 
C 2150 4281 2144 4288 2029 4288 
L 128 1254 
L 128 1088 
L 1779 1088 
L 1779 460 
C 1779 230 1766 166 1318 166 
L 1197 166 
L 1197 0 
C 1402 12 1747 12 1965 12 
C 2182 12 2528 12 2733 0 
L 2733 166 
L 2611 166 
C 2163 166 2150 230 2150 460 
L 2150 1088 
L 2803 1088 
L 2803 1254 
L 2150 1254 
L 2150 4147 
z
M 1798 3723 
L 1798 1254 
L 256 1254 
L 1798 3723 
z
" transform="scale(0.015625)"/>
       </defs>
       <use xlink:href="#CMR17-34" transform="scale(0.996264)"/>
       <use xlink:href="#CMR17-30" transform="translate(45.690477 0) scale(0.996264)"/>
       <use xlink:href="#CMR17-30" transform="translate(91.380954 0) scale(0.996264)"/>
       <use xlink:href="#CMR17-30" transform="translate(137.071431 0) scale(0.996264)"/>
       <use xlink:href="#CMR17-30" transform="translate(182.761908 0) scale(0.996264)"/>
       <use xlink:href="#CMR17-30" transform="translate(228.452386 0) scale(0.996264)"/>
      </g>
     </g>
    </g>
    <g id="text_6">
     <!-- $v_z^2,$ m$^2$s$^{-2}$ -->
     <g transform="translate(235.848322 344.336583) scale(0.1 -0.1)">
      <defs>
       <path id="CMMI12-76" d="M 2925 2388 
C 2925 2790 2720 2816 2669 2816 
C 2515 2816 2374 2662 2374 2534 
C 2374 2458 2419 2413 2445 2388 
C 2509 2330 2675 2158 2675 1826 
C 2675 1558 2291 64 1523 64 
C 1133 64 1056 389 1056 625 
C 1056 945 1203 1392 1376 1851 
C 1478 2113 1504 2177 1504 2305 
C 1504 2573 1312 2816 998 2816 
C 410 2816 173 1890 173 1838 
C 173 1813 198 1781 243 1781 
C 301 1781 307 1807 333 1896 
C 486 2445 736 2687 979 2687 
C 1037 2687 1146 2687 1146 2477 
C 1146 2311 1075 2126 979 1883 
C 672 1066 672 868 672 715 
C 672 574 691 313 890 134 
C 1120 -64 1440 -64 1498 -64 
C 2560 -64 2925 2024 2925 2388 
z
" transform="scale(0.015625)"/>
       <path id="CMMI12-7a" d="M 813 486 
C 1088 809 1312 1015 1632 1313 
C 2016 1657 2182 1822 2272 1922 
C 2720 2371 2944 2713 2944 2764 
C 2944 2816 2893 2816 2880 2816 
C 2835 2816 2822 2790 2790 2745 
C 2630 2470 2477 2368 2310 2368 
C 2176 2368 2106 2403 1984 2547 
C 1850 2707 1741 2816 1555 2816 
C 1088 2816 806 2265 806 2127 
C 806 2107 813 2067 870 2067 
C 922 2067 928 2094 947 2140 
C 1056 2387 1363 2415 1485 2415 
C 1619 2415 1747 2387 1882 2342 
C 2125 2239 2227 2239 2291 2239 
C 2336 2239 2362 2239 2394 2246 
C 2182 1988 1837 1670 1549 1399 
L 902 783 
C 512 380 275 32 275 -13 
C 275 -52 307 -64 346 -64 
C 384 -64 390 -58 435 19 
C 538 179 742 384 979 384 
C 1114 384 1178 356 1306 211 
C 1427 70 1536 -64 1741 -64 
C 2368 -64 2726 723 2726 876 
C 2726 902 2720 942 2656 942 
C 2605 942 2598 915 2579 849 
C 2438 460 2061 336 1811 336 
C 1677 336 1549 364 1414 409 
C 1158 512 1088 512 1005 512 
C 941 512 870 512 813 486 
z
" transform="scale(0.015625)"/>
       <path id="CMMI12-3b" d="M 1248 -26 
C 1248 345 1126 620 864 620 
C 659 620 557 454 557 313 
C 557 172 653 0 870 0 
C 954 0 1024 25 1082 83 
C 1094 96 1101 96 1107 96 
C 1120 96 1120 6 1120 -26 
C 1120 -233 1082 -642 710 -1051 
C 640 -1127 640 -1140 640 -1152 
C 640 -1184 672 -1216 704 -1216 
C 755 -1216 1248 -749 1248 -26 
z
" transform="scale(0.015625)"/>
       <path id="SFRM3583-6d" d="M 301 2744 
L 301 2602 
L 365 2602 
C 570 2602 678 2557 678 2273 
L 678 360 
C 678 153 525 140 301 140 
L 301 0 
L 1318 0 
L 1318 140 
L 1229 140 
C 1082 140 941 160 941 360 
L 941 1258 
C 941 1375 934 1484 934 1601 
C 934 2066 1088 2738 1715 2738 
C 2112 2738 2272 2428 2272 1950 
L 2272 360 
C 2272 153 2118 140 1894 140 
L 1894 0 
L 2912 0 
L 2912 140 
L 2822 140 
C 2675 140 2534 160 2534 360 
L 2534 1258 
C 2534 1375 2528 1484 2528 1601 
C 2528 2066 2682 2738 3309 2738 
C 3706 2738 3866 2428 3866 1950 
L 3866 360 
C 3866 153 3712 140 3488 140 
L 3488 0 
L 4506 0 
L 4506 140 
L 4403 140 
C 4256 140 4128 160 4128 386 
L 4128 1859 
C 4128 2292 4058 2816 3354 2816 
C 2957 2816 2611 2525 2534 2144 
L 2528 2144 
C 2470 2486 2323 2816 1760 2816 
C 1357 2816 998 2492 934 2118 
L 928 2816 
L 301 2744 
z
" transform="scale(0.015625)"/>
       <path id="SFRM3583-73" d="M 422 357 
C 576 111 781 -64 1126 -64 
C 1549 -64 2067 117 2067 740 
C 2067 1051 1901 1337 1600 1486 
C 1216 1680 538 1590 384 2076 
C 371 2115 365 2160 365 2206 
C 365 2588 749 2751 1094 2751 
C 1466 2751 1786 2537 1837 1927 
C 1843 1894 1837 1810 1882 1810 
C 1920 1810 1926 1842 1926 1881 
L 1926 2757 
C 1926 2783 1926 2816 1901 2816 
C 1869 2816 1766 2634 1734 2537 
C 1562 2721 1376 2816 1120 2816 
C 730 2816 192 2689 192 2112 
C 192 1433 1030 1433 1408 1300 
C 1670 1211 1894 989 1894 704 
L 1894 691 
C 1882 291 1568 69 1139 69 
C 544 69 371 621 294 1078 
C 288 1116 288 1192 237 1192 
C 198 1192 192 1167 192 1135 
L 192 50 
C 192 31 192 6 211 0 
L 218 0 
C 262 0 371 279 422 405 
L 422 357 
z
" transform="scale(0.015625)"/>
       <path id="CMSY10-0" d="M 4218 1472 
C 4326 1472 4442 1472 4442 1600 
C 4442 1728 4326 1728 4218 1728 
L 755 1728 
C 646 1728 531 1728 531 1600 
C 531 1472 646 1472 755 1472 
L 4218 1472 
z
" transform="scale(0.015625)"/>
      </defs>
      <use xlink:href="#CMMI12-76" transform="scale(0.996264)"/>
      <use xlink:href="#CMR17-32" transform="translate(50.735173 36.153639) scale(0.697382)"/>
      <use xlink:href="#CMMI12-7a" transform="translate(47.160581 -24.62935) scale(0.697382)"/>
      <use xlink:href="#CMMI12-3b" transform="translate(83.216487 0) scale(0.996264)"/>
      <use xlink:href="#SFRM3583-6d" transform="translate(140.011958 0) scale(0.996264)"/>
      <use xlink:href="#CMR17-32" transform="translate(214.350574 36.153639) scale(0.697382)"/>
      <use xlink:href="#SFRM3583-73" transform="translate(246.831888 0) scale(0.996264)"/>
      <use xlink:href="#CMSY10-0" transform="translate(281.986283 36.153639) scale(0.697382)"/>
      <use xlink:href="#CMR17-32" transform="translate(336.227276 36.153639) scale(0.697382)"/>
     </g>
    </g>
   </g>
   <g id="matplotlib.axis_2">
    <g id="ytick_1">
     <g id="line2d_16">
      <path d="M 52.336725 306.739717 
L 461.99952 306.739717 
" clip-path="url(#pfcbc1ecf00)" style="fill: none; stroke-dasharray: 1.85,0.8; stroke-dashoffset: 0; stroke: #b0b0b0; stroke-width: 0.5"/>
     </g>
     <g id="line2d_17">
      <defs>
       <path id="m62d6aa60f4" d="M 0 0 
L 3.5 0 
" style="stroke: #000000; stroke-width: 0.8"/>
      </defs>
      <g>
       <use xlink:href="#m62d6aa60f4" x="52.336725" y="306.739717" style="stroke: #000000; stroke-width: 0.8"/>
      </g>
     </g>
     <g id="line2d_18">
      <defs>
       <path id="mb6829e94fb" d="M 0 0 
L -3.5 0 
" style="stroke: #000000; stroke-width: 0.8"/>
      </defs>
      <g>
       <use xlink:href="#mb6829e94fb" x="461.99952" y="306.739717" style="stroke: #000000; stroke-width: 0.8"/>
      </g>
     </g>
     <g id="text_7">
      <!-- $\mathdefault{0.0000}$ -->
      <g transform="translate(21.16264 310.170455) scale(0.1 -0.1)">
       <defs>
        <path id="CMMI12-3a" d="M 1178 307 
C 1178 492 1024 620 870 620 
C 685 620 557 467 557 313 
C 557 128 710 0 864 0 
C 1050 0 1178 153 1178 307 
z
" transform="scale(0.015625)"/>
       </defs>
       <use xlink:href="#CMR17-30" transform="scale(0.996264)"/>
       <use xlink:href="#CMMI12-3a" transform="translate(45.690477 0) scale(0.996264)"/>
       <use xlink:href="#CMR17-30" transform="translate(72.787654 0) scale(0.996264)"/>
       <use xlink:href="#CMR17-30" transform="translate(118.478131 0) scale(0.996264)"/>
       <use xlink:href="#CMR17-30" transform="translate(164.168608 0) scale(0.996264)"/>
       <use xlink:href="#CMR17-30" transform="translate(209.859086 0) scale(0.996264)"/>
      </g>
     </g>
    </g>
    <g id="ytick_2">
     <g id="line2d_19">
      <path d="M 52.336725 257.388221 
L 461.99952 257.388221 
" clip-path="url(#pfcbc1ecf00)" style="fill: none; stroke-dasharray: 1.85,0.8; stroke-dashoffset: 0; stroke: #b0b0b0; stroke-width: 0.5"/>
     </g>
     <g id="line2d_20">
      <g>
       <use xlink:href="#m62d6aa60f4" x="52.336725" y="257.388221" style="stroke: #000000; stroke-width: 0.8"/>
      </g>
     </g>
     <g id="line2d_21">
      <g>
       <use xlink:href="#mb6829e94fb" x="461.99952" y="257.388221" style="stroke: #000000; stroke-width: 0.8"/>
      </g>
     </g>
     <g id="text_8">
      <!-- $\mathdefault{0.0005}$ -->
      <g transform="translate(21.16264 260.818959) scale(0.1 -0.1)">
       <defs>
        <path id="CMR17-35" d="M 730 3750 
C 794 3724 1056 3641 1325 3641 
C 1920 3641 2246 3961 2432 4140 
C 2432 4191 2432 4224 2394 4224 
C 2387 4224 2374 4224 2323 4198 
C 2099 4102 1837 4032 1517 4032 
C 1325 4032 1037 4055 723 4191 
C 653 4224 640 4224 634 4224 
C 602 4224 595 4217 595 4090 
L 595 2231 
C 595 2113 595 2080 659 2080 
C 691 2080 704 2093 736 2139 
C 941 2435 1222 2560 1542 2560 
C 1766 2560 2246 2415 2246 1293 
C 2246 1087 2246 716 2054 422 
C 1894 159 1645 25 1370 25 
C 947 25 518 319 403 812 
C 429 806 480 793 506 793 
C 589 793 749 838 749 1036 
C 749 1209 627 1280 506 1280 
C 358 1280 262 1190 262 1011 
C 262 454 704 -128 1382 -128 
C 2042 -128 2669 441 2669 1267 
C 2669 2054 2170 2662 1549 2662 
C 1222 2662 947 2540 730 2304 
L 730 3750 
z
" transform="scale(0.015625)"/>
       </defs>
       <use xlink:href="#CMR17-30" transform="scale(0.996264)"/>
       <use xlink:href="#CMMI12-3a" transform="translate(45.690477 0) scale(0.996264)"/>
       <use xlink:href="#CMR17-30" transform="translate(72.787654 0) scale(0.996264)"/>
       <use xlink:href="#CMR17-30" transform="translate(118.478131 0) scale(0.996264)"/>
       <use xlink:href="#CMR17-30" transform="translate(164.168608 0) scale(0.996264)"/>
       <use xlink:href="#CMR17-35" transform="translate(209.859086 0) scale(0.996264)"/>
      </g>
     </g>
    </g>
    <g id="ytick_3">
     <g id="line2d_22">
      <path d="M 52.336725 208.036724 
L 461.99952 208.036724 
" clip-path="url(#pfcbc1ecf00)" style="fill: none; stroke-dasharray: 1.85,0.8; stroke-dashoffset: 0; stroke: #b0b0b0; stroke-width: 0.5"/>
     </g>
     <g id="line2d_23">
      <g>
       <use xlink:href="#m62d6aa60f4" x="52.336725" y="208.036724" style="stroke: #000000; stroke-width: 0.8"/>
      </g>
     </g>
     <g id="line2d_24">
      <g>
       <use xlink:href="#mb6829e94fb" x="461.99952" y="208.036724" style="stroke: #000000; stroke-width: 0.8"/>
      </g>
     </g>
     <g id="text_9">
      <!-- $\mathdefault{0.0010}$ -->
      <g transform="translate(21.16264 211.467462) scale(0.1 -0.1)">
       <use xlink:href="#CMR17-30" transform="scale(0.996264)"/>
       <use xlink:href="#CMMI12-3a" transform="translate(45.690477 0) scale(0.996264)"/>
       <use xlink:href="#CMR17-30" transform="translate(72.787654 0) scale(0.996264)"/>
       <use xlink:href="#CMR17-30" transform="translate(118.478131 0) scale(0.996264)"/>
       <use xlink:href="#CMR17-31" transform="translate(164.168608 0) scale(0.996264)"/>
       <use xlink:href="#CMR17-30" transform="translate(209.859086 0) scale(0.996264)"/>
      </g>
     </g>
    </g>
    <g id="ytick_4">
     <g id="line2d_25">
      <path d="M 52.336725 158.685228 
L 461.99952 158.685228 
" clip-path="url(#pfcbc1ecf00)" style="fill: none; stroke-dasharray: 1.85,0.8; stroke-dashoffset: 0; stroke: #b0b0b0; stroke-width: 0.5"/>
     </g>
     <g id="line2d_26">
      <g>
       <use xlink:href="#m62d6aa60f4" x="52.336725" y="158.685228" style="stroke: #000000; stroke-width: 0.8"/>
      </g>
     </g>
     <g id="line2d_27">
      <g>
       <use xlink:href="#mb6829e94fb" x="461.99952" y="158.685228" style="stroke: #000000; stroke-width: 0.8"/>
      </g>
     </g>
     <g id="text_10">
      <!-- $\mathdefault{0.0015}$ -->
      <g transform="translate(21.16264 162.115966) scale(0.1 -0.1)">
       <use xlink:href="#CMR17-30" transform="scale(0.996264)"/>
       <use xlink:href="#CMMI12-3a" transform="translate(45.690477 0) scale(0.996264)"/>
       <use xlink:href="#CMR17-30" transform="translate(72.787654 0) scale(0.996264)"/>
       <use xlink:href="#CMR17-30" transform="translate(118.478131 0) scale(0.996264)"/>
       <use xlink:href="#CMR17-31" transform="translate(164.168608 0) scale(0.996264)"/>
       <use xlink:href="#CMR17-35" transform="translate(209.859086 0) scale(0.996264)"/>
      </g>
     </g>
    </g>
    <g id="ytick_5">
     <g id="line2d_28">
      <path d="M 52.336725 109.333731 
L 461.99952 109.333731 
" clip-path="url(#pfcbc1ecf00)" style="fill: none; stroke-dasharray: 1.85,0.8; stroke-dashoffset: 0; stroke: #b0b0b0; stroke-width: 0.5"/>
     </g>
     <g id="line2d_29">
      <g>
       <use xlink:href="#m62d6aa60f4" x="52.336725" y="109.333731" style="stroke: #000000; stroke-width: 0.8"/>
      </g>
     </g>
     <g id="line2d_30">
      <g>
       <use xlink:href="#mb6829e94fb" x="461.99952" y="109.333731" style="stroke: #000000; stroke-width: 0.8"/>
      </g>
     </g>
     <g id="text_11">
      <!-- $\mathdefault{0.0020}$ -->
      <g transform="translate(21.16264 112.764469) scale(0.1 -0.1)">
       <use xlink:href="#CMR17-30" transform="scale(0.996264)"/>
       <use xlink:href="#CMMI12-3a" transform="translate(45.690477 0) scale(0.996264)"/>
       <use xlink:href="#CMR17-30" transform="translate(72.787654 0) scale(0.996264)"/>
       <use xlink:href="#CMR17-30" transform="translate(118.478131 0) scale(0.996264)"/>
       <use xlink:href="#CMR17-32" transform="translate(164.168608 0) scale(0.996264)"/>
       <use xlink:href="#CMR17-30" transform="translate(209.859086 0) scale(0.996264)"/>
      </g>
     </g>
    </g>
    <g id="ytick_6">
     <g id="line2d_31">
      <path d="M 52.336725 59.982235 
L 461.99952 59.982235 
" clip-path="url(#pfcbc1ecf00)" style="fill: none; stroke-dasharray: 1.85,0.8; stroke-dashoffset: 0; stroke: #b0b0b0; stroke-width: 0.5"/>
     </g>
     <g id="line2d_32">
      <g>
       <use xlink:href="#m62d6aa60f4" x="52.336725" y="59.982235" style="stroke: #000000; stroke-width: 0.8"/>
      </g>
     </g>
     <g id="line2d_33">
      <g>
       <use xlink:href="#mb6829e94fb" x="461.99952" y="59.982235" style="stroke: #000000; stroke-width: 0.8"/>
      </g>
     </g>
     <g id="text_12">
      <!-- $\mathdefault{0.0025}$ -->
      <g transform="translate(21.16264 63.412973) scale(0.1 -0.1)">
       <use xlink:href="#CMR17-30" transform="scale(0.996264)"/>
       <use xlink:href="#CMMI12-3a" transform="translate(45.690477 0) scale(0.996264)"/>
       <use xlink:href="#CMR17-30" transform="translate(72.787654 0) scale(0.996264)"/>
       <use xlink:href="#CMR17-30" transform="translate(118.478131 0) scale(0.996264)"/>
       <use xlink:href="#CMR17-32" transform="translate(164.168608 0) scale(0.996264)"/>
       <use xlink:href="#CMR17-35" transform="translate(209.859086 0) scale(0.996264)"/>
      </g>
     </g>
    </g>
    <g id="ytick_7">
     <g id="line2d_34">
      <path d="M 52.336725 10.630738 
L 461.99952 10.630738 
" clip-path="url(#pfcbc1ecf00)" style="fill: none; stroke-dasharray: 1.85,0.8; stroke-dashoffset: 0; stroke: #b0b0b0; stroke-width: 0.5"/>
     </g>
     <g id="line2d_35">
      <g>
       <use xlink:href="#m62d6aa60f4" x="52.336725" y="10.630738" style="stroke: #000000; stroke-width: 0.8"/>
      </g>
     </g>
     <g id="line2d_36">
      <g>
       <use xlink:href="#mb6829e94fb" x="461.99952" y="10.630738" style="stroke: #000000; stroke-width: 0.8"/>
      </g>
     </g>
     <g id="text_13">
      <!-- $\mathdefault{0.0030}$ -->
      <g transform="translate(21.16264 14.061476) scale(0.1 -0.1)">
       <use xlink:href="#CMR17-30" transform="scale(0.996264)"/>
       <use xlink:href="#CMMI12-3a" transform="translate(45.690477 0) scale(0.996264)"/>
       <use xlink:href="#CMR17-30" transform="translate(72.787654 0) scale(0.996264)"/>
       <use xlink:href="#CMR17-30" transform="translate(118.478131 0) scale(0.996264)"/>
       <use xlink:href="#CMR17-33" transform="translate(164.168608 0) scale(0.996264)"/>
       <use xlink:href="#CMR17-30" transform="translate(209.859086 0) scale(0.996264)"/>
      </g>
     </g>
    </g>
    <g id="text_14">
     <!-- $n/n_0$ -->
     <g transform="translate(14.67198 175.682156) rotate(-90) scale(0.1 -0.1)">
      <defs>
       <path id="CMMI12-6e" d="M 1318 1870 
C 1331 1909 1491 2228 1728 2432 
C 1894 2585 2112 2687 2362 2687 
C 2618 2687 2707 2496 2707 2241 
C 2707 1877 2445 1149 2317 804 
C 2259 651 2227 568 2227 453 
C 2227 166 2426 -64 2733 -64 
C 3328 -64 3552 874 3552 913 
C 3552 945 3526 970 3488 970 
C 3430 970 3424 951 3392 842 
C 3245 319 3002 64 2752 64 
C 2688 64 2586 70 2586 274 
C 2586 434 2656 625 2694 715 
C 2822 1066 3091 1781 3091 2145 
C 3091 2528 2867 2816 2381 2816 
C 1811 2816 1510 2413 1395 2253 
C 1376 2617 1114 2816 832 2816 
C 627 2816 486 2694 378 2477 
C 262 2247 173 1864 173 1838 
C 173 1813 198 1781 243 1781 
C 294 1781 301 1787 339 1934 
C 442 2324 557 2687 813 2687 
C 960 2687 1011 2585 1011 2394 
C 1011 2253 947 2004 902 1807 
L 723 1117 
C 698 996 627 708 595 593 
C 550 427 480 127 480 95 
C 480 6 550 -64 646 -64 
C 723 -64 813 -26 864 70 
C 877 102 934 325 966 453 
L 1107 1028 
L 1318 1870 
z
" transform="scale(0.015625)"/>
       <path id="CMMI12-3d" d="M 2746 4563 
C 2746 4569 2784 4665 2784 4678 
C 2784 4755 2720 4800 2669 4800 
C 2637 4800 2579 4800 2528 4659 
L 384 -1364 
C 384 -1370 346 -1466 346 -1479 
C 346 -1556 410 -1600 461 -1600 
C 499 -1600 557 -1594 602 -1460 
L 2746 4563 
z
" transform="scale(0.015625)"/>
      </defs>
      <use xlink:href="#CMMI12-6e" transform="scale(0.996264)"/>
      <use xlink:href="#CMMI12-3d" transform="translate(58.230047 0) scale(0.996264)"/>
      <use xlink:href="#CMMI12-6e" transform="translate(107.004966 0) scale(0.996264)"/>
      <use xlink:href="#CMR17-30" transform="translate(165.235013 -14.943915) scale(0.697382)"/>
     </g>
    </g>
   </g>
   <g id="line2d_37">
    <path d="M 70.957761 24.587002 
L 73.967221 37.454173 
L 76.976682 49.734555 
L 79.986142 61.454908 
L 82.995603 72.64077 
L 86.005063 83.316518 
L 89.014523 93.505413 
L 92.023984 103.229658 
L 95.033444 112.510443 
L 98.042904 121.367992 
L 101.052365 129.821604 
L 104.061825 137.889701 
L 107.071286 145.589865 
L 110.080746 152.938873 
L 113.090206 159.95274 
L 116.099667 166.64675 
L 119.109127 173.03549 
L 122.118588 179.13288 
L 125.128048 184.952207 
L 128.137508 190.506152 
L 131.146969 195.806817 
L 134.156429 200.865753 
L 137.165889 205.693984 
L 140.17535 210.30203 
L 143.18481 214.699933 
L 146.194271 218.897276 
L 149.203731 222.903204 
L 152.213191 226.726449 
L 155.222652 230.375339 
L 158.232112 233.857827 
L 161.241573 237.181502 
L 164.251033 240.353604 
L 167.260493 243.381048 
L 170.269954 246.27043 
L 173.279414 249.028045 
L 176.288875 251.659903 
L 179.298335 254.171739 
L 182.307795 256.569027 
L 185.317256 258.856989 
L 188.326716 261.040612 
L 191.336176 263.124655 
L 194.345637 265.113657 
L 197.355097 267.011954 
L 200.364558 268.823682 
L 203.374018 270.552788 
L 206.383478 272.203041 
L 209.392939 273.778037 
L 212.402399 275.281207 
L 215.41186 276.715828 
L 218.42132 278.085024 
L 221.43078 279.39178 
L 224.440241 280.638944 
L 227.449701 281.829232 
L 230.459161 282.965239 
L 233.468622 284.04944 
L 236.478082 285.084198 
L 239.487543 286.071767 
L 242.497003 287.014299 
L 245.506463 287.913849 
L 248.515924 288.772375 
L 251.525384 289.59175 
L 254.534845 290.373759 
L 257.544305 291.120105 
L 260.553765 291.832415 
L 263.563226 292.512241 
L 266.572686 293.161065 
L 269.582147 293.7803 
L 272.591607 294.371296 
L 275.601067 294.93534 
L 278.610528 295.473661 
L 281.619988 295.987434 
L 284.629448 296.477776 
L 287.638909 296.945757 
L 290.648369 297.392397 
L 293.65783 297.818668 
L 296.66729 298.2255 
L 299.67675 298.613778 
L 302.686211 298.98435 
L 305.695671 299.338023 
L 308.705132 299.675566 
L 311.714592 299.997717 
L 314.724052 300.305176 
L 317.733513 300.598614 
L 320.742973 300.87867 
L 323.752433 301.145955 
L 326.761894 301.40105 
L 329.771354 301.644513 
L 332.780815 301.876872 
L 335.790275 302.098635 
L 338.799735 302.310285 
L 341.809196 302.512283 
L 344.818656 302.705069 
L 347.828117 302.889063 
L 350.837577 303.064667 
L 353.847037 303.232262 
L 356.856498 303.392215 
L 359.865958 303.544873 
L 362.875419 303.690569 
L 365.884879 303.829621 
L 368.894339 303.962332 
" clip-path="url(#pfcbc1ecf00)" style="fill: none; stroke: #1f77b4; stroke-width: 1.5; stroke-linecap: square"/>
   </g>
   <g id="line2d_38">
    <path d="M 145.441906 217.866235 
L 148.451366 221.919183 
L 151.460826 225.787302 
L 154.470287 229.479021 
L 157.479747 233.002384 
L 160.489207 236.36507 
L 163.498668 239.574405 
L 166.508128 242.637383 
L 169.517589 245.560678 
L 172.527049 248.350661 
L 175.536509 251.01341 
L 178.54597 253.554729 
L 181.55543 255.980154 
L 184.564891 258.294971 
L 187.574351 260.504224 
L 190.583811 262.612728 
L 193.593272 264.625076 
L 196.602732 266.545654 
L 199.612193 268.378647 
L 202.621653 270.128048 
L 205.631113 271.797671 
L 208.640574 273.391153 
L 211.650034 274.911967 
L 214.659494 276.363426 
L 217.668955 277.748693 
L 220.678415 279.070787 
L 223.687876 280.332589 
L 226.697336 281.536848 
L 229.706796 282.686189 
L 232.716257 283.783116 
L 235.725717 284.830019 
L 238.735178 285.829179 
L 241.744638 286.782774 
L 244.754098 287.692882 
L 247.763559 288.561486 
L 250.773019 289.390478 
L 253.782479 290.181665 
L 256.79194 290.936772 
L 259.8014 291.657442 
L 262.810861 292.345248 
L 265.820321 293.001687 
L 268.829781 293.62819 
L 271.839242 294.226123 
L 274.848702 294.796787 
L 277.858163 295.341427 
L 280.867623 295.86123 
L 283.877083 296.357328 
L 286.886544 296.830802 
L 289.896004 297.282684 
L 292.905465 297.713958 
L 295.914925 298.125565 
L 298.924385 298.518401 
L 301.933846 298.893322 
L 304.943306 299.251146 
L 307.952766 299.592652 
L 310.962227 299.918583 
L 313.971687 300.229651 
L 316.981148 300.526534 
L 319.990608 300.809877 
L 323.000068 301.080299 
L 326.009529 301.338388 
L 329.018989 301.584708 
L 332.02845 301.819795 
L 335.03791 302.044161 
L 338.04737 302.258295 
L 341.056831 302.462664 
L 344.066291 302.657713 
L 347.075751 302.843867 
L 350.085212 303.021532 
L 353.094672 303.191094 
L 356.104133 303.352924 
L 359.113593 303.507374 
L 362.123053 303.65478 
L 365.132514 303.795464 
L 368.141974 303.929733 
L 371.151435 304.057878 
L 374.160895 304.180179 
L 377.170355 304.296903 
L 380.179816 304.408305 
L 383.189276 304.514625 
L 386.198737 304.616097 
L 389.208197 304.712942 
L 392.217657 304.80537 
L 395.227118 304.893583 
L 398.236578 304.977774 
L 401.246038 305.058124 
L 404.255499 305.134811 
L 407.264959 305.208001 
L 410.27442 305.277852 
L 413.28388 305.344519 
L 416.29334 305.408145 
L 419.302801 305.468869 
L 422.312261 305.526824 
L 425.321722 305.582136 
L 428.331182 305.634926 
L 431.340642 305.685309 
L 434.350103 305.733393 
L 437.359563 305.779285 
L 440.369023 305.823084 
L 443.378484 305.864886 
" clip-path="url(#pfcbc1ecf00)" style="fill: none; stroke: #ff7f0e; stroke-width: 1.5; stroke-linecap: square"/>
   </g>
   <g id="line2d_39">
    <path d="M 70.957761 217.866235 
L 73.967221 221.919183 
L 76.976682 225.787302 
L 79.986142 229.479021 
L 82.995603 233.002384 
L 86.005063 236.36507 
L 89.014523 239.574405 
L 92.023984 242.637383 
L 95.033444 245.560678 
L 98.042904 248.350661 
L 101.052365 251.01341 
L 104.061825 253.554729 
L 107.071286 255.980154 
L 110.080746 258.294971 
L 113.090206 260.504224 
L 116.099667 262.612728 
L 119.109127 264.625076 
L 122.118588 266.545654 
L 125.128048 268.378647 
L 128.137508 270.128048 
L 131.146969 271.797671 
L 134.156429 273.391153 
L 137.165889 274.911967 
L 140.17535 276.363426 
L 143.18481 277.748693 
L 146.194271 279.070787 
L 149.203731 280.332589 
L 152.213191 281.536848 
L 155.222652 282.686189 
L 158.232112 283.783116 
L 161.241573 284.830019 
L 164.251033 285.829179 
L 167.260493 286.782774 
L 170.269954 287.692882 
L 173.279414 288.561486 
L 176.288875 289.390478 
L 179.298335 290.181665 
L 182.307795 290.936772 
L 185.317256 291.657442 
L 188.326716 292.345248 
L 191.336176 293.001687 
L 194.345637 293.62819 
L 197.355097 294.226123 
L 200.364558 294.796787 
L 203.374018 295.341427 
L 206.383478 295.86123 
L 209.392939 296.357328 
L 212.402399 296.830802 
L 215.41186 297.282684 
L 218.42132 297.713958 
L 221.43078 298.125565 
L 224.440241 298.518401 
L 227.449701 298.893322 
L 230.459161 299.251146 
L 233.468622 299.592652 
L 236.478082 299.918583 
L 239.487543 300.229651 
L 242.497003 300.526534 
L 245.506463 300.809877 
L 248.515924 301.080299 
L 251.525384 301.338388 
L 254.534845 301.584708 
L 257.544305 301.819795 
L 260.553765 302.044161 
L 263.563226 302.258295 
L 266.572686 302.462664 
L 269.582147 302.657713 
L 272.591607 302.843867 
L 275.601067 303.021532 
L 278.610528 303.191094 
L 281.619988 303.352924 
L 284.629448 303.507374 
L 287.638909 303.65478 
L 290.648369 303.795464 
L 293.65783 303.929733 
L 296.66729 304.057878 
L 299.67675 304.180179 
L 302.686211 304.296903 
L 305.695671 304.408305 
L 308.705132 304.514625 
L 311.714592 304.616097 
L 314.724052 304.712942 
L 317.733513 304.80537 
L 320.742973 304.893583 
L 323.752433 304.977774 
L 326.761894 305.058124 
L 329.771354 305.134811 
L 332.780815 305.208001 
L 335.790275 305.277852 
L 338.799735 305.344519 
L 341.809196 305.408145 
L 344.818656 305.468869 
L 347.828117 305.526824 
L 350.837577 305.582136 
L 353.847037 305.634926 
L 356.856498 305.685309 
L 359.865958 305.733393 
L 362.875419 305.779285 
L 365.884879 305.823084 
L 368.894339 305.864886 
" clip-path="url(#pfcbc1ecf00)" style="fill: none; stroke: #2ca02c; stroke-width: 1.5; stroke-linecap: square"/>
   </g>
   <g id="patch_3">
    <path d="M 52.336725 319.92878 
L 52.336725 10.523108 
" style="fill: none; stroke: #000000; stroke-width: 0.8; stroke-linejoin: miter; stroke-linecap: square"/>
   </g>
   <g id="patch_4">
    <path d="M 461.99952 319.92878 
L 461.99952 10.523108 
" style="fill: none; stroke: #000000; stroke-width: 0.8; stroke-linejoin: miter; stroke-linecap: square"/>
   </g>
   <g id="patch_5">
    <path d="M 52.336725 319.92878 
L 461.99952 319.92878 
" style="fill: none; stroke: #000000; stroke-width: 0.8; stroke-linejoin: miter; stroke-linecap: square"/>
   </g>
   <g id="patch_6">
    <path d="M 52.336725 10.523108 
L 461.99952 10.523108 
" style="fill: none; stroke: #000000; stroke-width: 0.8; stroke-linejoin: miter; stroke-linecap: square"/>
   </g>
   <g id="legend_1">
    <g id="patch_7">
     <path d="M 299.416205 65.426481 
L 454.99952 65.426481 
Q 456.99952 65.426481 456.99952 63.426481 
L 456.99952 17.523108 
Q 456.99952 15.523108 454.99952 15.523108 
L 299.416205 15.523108 
Q 297.416205 15.523108 297.416205 17.523108 
L 297.416205 63.426481 
Q 297.416205 65.426481 299.416205 65.426481 
z
" style="fill: #ffffff; opacity: 0.8; stroke: #cccccc; stroke-linejoin: miter"/>
    </g>
    <g id="line2d_40">
     <path d="M 301.416205 24.132727 
L 311.416205 24.132727 
L 321.416205 24.132727 
" style="fill: none; stroke: #1f77b4; stroke-width: 1.5; stroke-linecap: square"/>
    </g>
    <g id="text_15">
     <!-- $n(v_z^2, 0)$ -->
     <g transform="translate(329.416205 27.632727) scale(0.1 -0.1)">
      <defs>
       <path id="CMR17-28" d="M 1958 -1562 
C 1958 -1556 1958 -1543 1939 -1524 
C 1645 -1223 858 -403 858 1596 
C 858 3595 1632 4408 1946 4729 
C 1946 4735 1958 4748 1958 4767 
C 1958 4787 1939 4800 1914 4800 
C 1843 4800 1299 4325 986 3620 
C 666 2909 576 2218 576 1603 
C 576 1141 621 360 1005 -467 
C 1312 -1133 1837 -1600 1914 -1600 
C 1946 -1600 1958 -1588 1958 -1562 
z
" transform="scale(0.015625)"/>
       <path id="CMR17-29" d="M 1683 1596 
C 1683 2057 1638 2839 1254 3665 
C 947 4332 422 4800 346 4800 
C 326 4800 301 4793 301 4761 
C 301 4748 307 4742 314 4729 
C 621 4408 1402 3595 1402 1603 
C 1402 -396 627 -1210 314 -1530 
C 307 -1543 301 -1549 301 -1562 
C 301 -1594 326 -1600 346 -1600 
C 416 -1600 960 -1127 1274 -422 
C 1594 289 1683 981 1683 1596 
z
" transform="scale(0.015625)"/>
      </defs>
      <use xlink:href="#CMMI12-6e" transform="scale(0.996264)"/>
      <use xlink:href="#CMR17-28" transform="translate(58.230047 0) scale(0.996264)"/>
      <use xlink:href="#CMMI12-76" transform="translate(93.510815 0) scale(0.996264)"/>
      <use xlink:href="#CMR17-32" transform="translate(144.245989 36.153639) scale(0.697382)"/>
      <use xlink:href="#CMMI12-7a" transform="translate(140.671396 -24.62935) scale(0.697382)"/>
      <use xlink:href="#CMMI12-3b" transform="translate(176.727303 0) scale(0.996264)"/>
      <use xlink:href="#CMR17-30" transform="translate(220.428885 0) scale(0.996264)"/>
      <use xlink:href="#CMR17-29" transform="translate(266.119362 0) scale(0.996264)"/>
     </g>
    </g>
    <g id="line2d_41">
     <path d="M 301.416205 39.733006 
L 311.416205 39.733006 
L 321.416205 39.733006 
" style="fill: none; stroke: #ff7f0e; stroke-width: 1.5; stroke-linecap: square"/>
    </g>
    <g id="text_16">
     <!-- $n(v_z^2, H)$, przesunięty o $v_{min}^2$ -->
     <g transform="translate(329.416205 43.233006) scale(0.1 -0.1)">
      <defs>
       <path id="CMMI12-48" d="M 4787 3886 
C 4845 4102 4858 4166 5312 4166 
C 5427 4166 5491 4166 5491 4281 
C 5491 4352 5434 4352 5395 4352 
C 5280 4352 5146 4339 5024 4339 
L 4269 4339 
C 4147 4339 4013 4352 3891 4352 
C 3846 4352 3770 4352 3770 4230 
C 3770 4166 3814 4166 3936 4166 
C 4320 4166 4320 4115 4320 4045 
C 4320 4032 4320 3994 4294 3899 
L 3904 2361 
L 1971 2361 
L 2355 3886 
C 2413 4102 2426 4166 2880 4166 
C 2995 4166 3059 4166 3059 4281 
C 3059 4352 3002 4352 2963 4352 
C 2848 4352 2714 4339 2592 4339 
L 1837 4339 
C 1715 4339 1581 4352 1459 4352 
C 1414 4352 1338 4352 1338 4230 
C 1338 4166 1382 4166 1504 4166 
C 1888 4166 1888 4115 1888 4045 
C 1888 4032 1888 3994 1862 3899 
L 998 472 
C 941 249 928 185 486 185 
C 339 185 294 185 294 64 
C 294 0 365 0 384 0 
C 499 0 634 12 755 12 
L 1510 12 
C 1632 12 1766 0 1888 0 
C 1939 0 2010 0 2010 121 
C 2010 185 1952 185 1856 185 
C 1466 185 1466 236 1466 300 
C 1466 306 1466 351 1478 402 
L 1920 2176 
L 3859 2176 
C 3750 1755 3424 421 3411 383 
C 3341 191 3238 191 2861 185 
C 2784 185 2726 185 2726 64 
C 2726 0 2797 0 2816 0 
C 2931 0 3066 12 3187 12 
L 3942 12 
C 4064 12 4198 0 4320 0 
C 4371 0 4442 0 4442 121 
C 4442 185 4384 185 4288 185 
C 3898 185 3898 236 3898 300 
C 3898 306 3898 351 3910 402 
L 4787 3886 
z
" transform="scale(0.015625)"/>
       <path id="SFRM3583-2c" d="M 973 125 
C 992 73 992 22 992 -36 
L 992 -120 
C 992 -481 877 -791 666 -1100 
C 653 -1120 621 -1146 621 -1178 
C 621 -1197 634 -1216 653 -1216 
C 710 -1216 845 -991 896 -875 
C 1011 -636 1069 -372 1069 -107 
C 1069 73 1062 448 800 448 
C 685 448 589 351 589 235 
C 589 112 698 28 800 28 
C 864 28 934 60 973 125 
z
" transform="scale(0.015625)"/>
       <path id="SFRM3583-70" d="M 288 2745 
L 288 2605 
L 371 2605 
C 576 2605 666 2522 666 2324 
L 666 -724 
C 666 -769 672 -814 672 -858 
C 672 -1063 512 -1076 346 -1076 
L 288 -1076 
L 288 -1216 
L 1306 -1216 
L 1306 -1076 
L 1216 -1076 
C 1069 -1076 928 -1057 928 -852 
L 934 490 
C 1069 158 1459 -9 1728 -9 
C 2438 -9 2912 707 2912 1410 
C 2912 2036 2534 2816 1798 2816 
C 1453 2816 1050 2598 928 2298 
L 922 2816 
L 288 2745 
z
M 2579 1288 
C 2547 796 2278 68 1709 68 
C 1370 68 922 368 922 765 
C 922 803 928 841 928 880 
L 928 1825 
C 928 1889 922 1953 922 2017 
C 922 2375 1357 2733 1734 2733 
C 2349 2733 2586 1902 2586 1403 
C 2586 1365 2586 1327 2579 1288 
z
" transform="scale(0.015625)"/>
       <path id="SFRM3583-72" d="M 288 2744 
L 288 2602 
L 352 2602 
C 557 2602 666 2557 666 2273 
L 666 360 
C 666 153 512 140 288 140 
L 288 0 
L 1389 0 
L 1389 140 
L 1261 140 
C 1075 140 922 160 922 405 
L 922 1349 
C 922 1898 1037 2738 1658 2738 
C 1728 2738 1798 2719 1862 2693 
C 1786 2660 1722 2609 1722 2518 
C 1722 2428 1792 2337 1901 2337 
C 1997 2337 2074 2421 2074 2518 
C 2074 2732 1837 2816 1664 2816 
C 1274 2816 979 2434 922 2079 
L 915 2816 
L 288 2744 
z
" transform="scale(0.015625)"/>
       <path id="SFRM3583-7a" d="M 294 2752 
L 237 1785 
L 320 1785 
C 326 2009 339 2291 493 2470 
C 634 2649 902 2681 1152 2681 
C 1274 2681 1395 2675 1491 2675 
L 1978 2675 
C 1421 1836 819 1024 250 192 
C 218 140 166 96 166 38 
L 166 19 
C 179 0 211 0 237 0 
L 2227 0 
L 2310 1120 
L 2227 1120 
C 2214 857 2189 512 2029 313 
C 1856 96 1517 76 1235 76 
L 1043 76 
C 851 76 666 83 474 83 
L 2278 2681 
L 2278 2739 
L 2240 2752 
L 294 2752 
z
" transform="scale(0.015625)"/>
       <path id="SFRM3583-65" d="M 563 1515 
L 2246 1515 
C 2259 1515 2285 1508 2310 1508 
C 2355 1508 2374 1534 2374 1573 
C 2374 2149 2099 2816 1382 2816 
C 614 2816 237 2019 237 1385 
C 237 751 589 33 1350 -64 
C 1376 -58 1402 -64 1427 -64 
C 1869 -64 2208 245 2355 665 
C 2362 685 2368 710 2368 730 
C 2368 749 2362 768 2336 768 
C 2272 768 2266 665 2246 607 
C 2118 297 1843 26 1485 26 
C 1216 26 960 181 813 400 
C 576 723 563 1137 563 1517 
L 563 1515 
z
M 570 1595 
C 582 2099 832 2738 1370 2738 
C 1818 2738 2010 2260 2061 1886 
C 2067 1789 2067 1692 2080 1595 
L 570 1595 
z
" transform="scale(0.015625)"/>
       <path id="SFRM3583-75" d="M 301 2744 
L 301 2600 
L 358 2600 
C 570 2600 685 2568 685 2183 
C 685 2099 678 2014 678 1929 
L 678 887 
C 678 418 762 -64 1459 -64 
C 1856 -64 2170 216 2266 587 
L 2272 -64 
L 2906 -25 
L 2906 118 
L 2842 118 
C 2675 118 2528 137 2528 411 
L 2528 2816 
L 1888 2744 
L 1888 2600 
L 1958 2600 
C 2176 2600 2266 2529 2266 2262 
L 2266 1063 
C 2266 587 2042 14 1491 14 
C 1318 14 1133 72 1030 222 
C 947 339 941 502 941 652 
L 941 2816 
L 301 2744 
z
" transform="scale(0.015625)"/>
       <path id="SFRM3583-6e" d="M 301 2744 
L 301 2602 
L 365 2602 
C 570 2602 678 2557 678 2273 
L 678 360 
C 678 153 525 140 301 140 
L 301 0 
L 1318 0 
L 1318 140 
L 1229 140 
C 1082 140 941 160 941 360 
L 941 1775 
C 979 2215 1203 2738 1709 2738 
C 2112 2738 2266 2415 2266 1950 
L 2266 360 
C 2266 153 2112 140 1888 140 
L 1888 0 
L 2906 0 
L 2906 140 
L 2803 140 
C 2656 140 2528 160 2528 386 
L 2528 1885 
C 2528 2299 2451 2816 1760 2816 
C 1414 2816 1178 2628 1024 2350 
C 986 2279 947 2202 934 2124 
L 928 2816 
L 301 2744 
z
" transform="scale(0.015625)"/>
       <path id="SFRM3583-69" d="M 326 2732 
L 326 2590 
L 358 2590 
C 563 2590 678 2558 678 2250 
L 678 359 
C 678 153 531 140 307 140 
L 307 0 
L 1274 0 
L 1274 140 
L 1190 140 
C 1056 140 934 153 934 372 
L 934 2803 
L 326 2732 
z
M 698 4160 
C 595 4160 531 4044 531 3960 
C 531 3864 608 3748 730 3748 
C 858 3748 934 3857 934 3954 
C 934 4044 858 4160 736 4160 
C 723 4166 710 4160 698 4160 
z
" transform="scale(0.015625)"/>
       <path id="SFRM3583-a6" d="M 1702 -12 
C 1459 -212 1165 -457 1165 -792 
L 1165 -843 
C 1203 -1159 1517 -1338 1811 -1338 
C 2048 -1338 2240 -1210 2349 -1011 
C 2368 -972 2400 -914 2400 -869 
L 2400 -856 
C 2394 -837 2381 -830 2368 -830 
C 2310 -830 2298 -914 2266 -959 
C 2189 -1082 2048 -1152 1901 -1152 
C 1638 -1152 1370 -933 1370 -663 
C 1370 -334 1638 -154 1856 20 
C 2074 181 2259 393 2349 658 
C 2355 677 2368 709 2368 735 
C 2368 754 2362 773 2336 773 
C 2272 773 2272 670 2246 619 
C 2125 297 1837 33 1478 33 
C 1267 33 1062 136 915 284 
C 589 612 563 1083 563 1521 
L 2246 1521 
C 2259 1521 2285 1514 2310 1514 
C 2355 1514 2374 1540 2374 1579 
C 2374 2158 2093 2816 1376 2816 
C 602 2816 237 2017 237 1379 
C 237 709 678 -51 1408 -51 
C 1510 -51 1600 -38 1702 -12 
z
M 570 1598 
C 582 2100 832 2738 1370 2738 
C 1818 2738 2010 2261 2061 1888 
C 2067 1791 2067 1695 2080 1598 
L 570 1598 
z
" transform="scale(0.015625)"/>
       <path id="SFRM3583-74" d="M 845 3968 
C 845 3593 762 2687 109 2687 
L 109 2611 
L 666 2611 
L 666 1118 
C 666 1028 659 924 659 827 
C 659 427 787 -64 1318 -64 
C 1811 -64 1907 485 1907 885 
L 1907 1137 
L 1824 1137 
C 1824 1040 1830 944 1830 840 
C 1830 549 1773 20 1376 20 
C 1005 20 922 478 922 827 
C 922 937 928 1040 928 1150 
L 928 2611 
L 1811 2611 
L 1811 2752 
L 928 2752 
L 928 3968 
L 845 3968 
z
" transform="scale(0.015625)"/>
       <path id="SFRM3583-79" d="M 90 2752 
L 90 2611 
L 134 2611 
C 435 2611 442 2534 672 1965 
C 915 1371 1178 771 1395 170 
C 1421 119 1453 61 1453 4 
C 1453 -9 1453 -28 1446 -41 
C 1389 -201 1318 -360 1254 -520 
C 1139 -808 992 -1204 627 -1204 
C 493 -1204 352 -1146 256 -1057 
C 358 -1057 448 -999 448 -884 
C 448 -788 371 -718 275 -718 
C 186 -718 109 -782 109 -897 
C 109 -1146 390 -1280 614 -1280 
C 1043 -1280 1210 -852 1350 -501 
C 1651 247 1971 981 2253 1735 
L 2368 2023 
C 2464 2272 2573 2611 2931 2611 
L 2931 2752 
L 2189 2752 
L 2189 2611 
C 2304 2611 2394 2496 2394 2387 
C 2394 2272 2330 2151 2291 2055 
C 2138 1678 1984 1307 1837 930 
L 1683 553 
C 1658 483 1626 419 1606 349 
L 1600 349 
C 1581 419 1549 489 1523 553 
L 1382 905 
C 1235 1282 1082 1652 928 2029 
L 819 2298 
C 800 2349 774 2400 768 2451 
L 768 2464 
C 768 2592 922 2611 1018 2611 
L 1018 2752 
L 717 2752 
L 90 2752 
z
" transform="scale(0.015625)"/>
       <path id="SFRM3583-6f" d="M 1350 2816 
C 614 2725 237 2032 237 1359 
C 237 673 685 -64 1440 -64 
L 1504 -64 
C 2240 26 2624 712 2624 1366 
C 2624 2021 2182 2816 1440 2816 
C 1408 2822 1382 2816 1350 2816 
z
M 563 1256 
L 563 1359 
C 563 1845 621 2388 1114 2660 
C 1197 2699 1293 2731 1389 2738 
L 1434 2738 
C 2054 2738 2298 2006 2298 1482 
C 2298 971 2246 240 1606 46 
C 1549 33 1491 20 1434 20 
C 960 20 653 499 595 958 
C 576 1055 576 1159 563 1256 
z
" transform="scale(0.015625)"/>
       <path id="CMMI12-6d" d="M 1318 1870 
C 1331 1909 1491 2228 1728 2432 
C 1894 2585 2112 2687 2362 2687 
C 2618 2687 2707 2496 2707 2241 
C 2707 2202 2707 2075 2630 1775 
L 2470 1117 
C 2419 925 2298 453 2285 383 
C 2259 287 2221 121 2221 95 
C 2221 6 2291 -64 2387 -64 
C 2579 -64 2611 83 2669 313 
L 3053 1838 
C 3066 1890 3398 2687 4102 2687 
C 4358 2687 4448 2496 4448 2241 
C 4448 1883 4198 1187 4058 804 
C 4000 651 3968 568 3968 453 
C 3968 166 4166 -64 4474 -64 
C 5069 -64 5293 874 5293 913 
C 5293 945 5267 970 5229 970 
C 5171 970 5165 951 5133 842 
C 4986 332 4749 64 4493 64 
C 4429 64 4326 70 4326 274 
C 4326 440 4403 645 4429 715 
C 4544 1021 4832 1775 4832 2145 
C 4832 2528 4608 2816 4122 2816 
C 3693 2816 3347 2573 3091 2196 
C 3072 2541 2861 2816 2381 2816 
C 1811 2816 1510 2413 1395 2253 
C 1376 2617 1114 2816 832 2816 
C 646 2816 499 2726 378 2483 
C 262 2253 173 1864 173 1838 
C 173 1813 198 1781 243 1781 
C 294 1781 301 1787 339 1934 
C 435 2311 557 2687 813 2687 
C 960 2687 1011 2585 1011 2394 
C 1011 2253 947 2004 902 1807 
L 723 1117 
C 698 996 627 708 595 593 
C 550 427 480 127 480 95 
C 480 6 550 -64 646 -64 
C 723 -64 813 -26 864 70 
C 877 102 934 325 966 453 
L 1107 1028 
L 1318 1870 
z
" transform="scale(0.015625)"/>
       <path id="CMMI12-69" d="M 1811 913 
C 1811 945 1786 970 1747 970 
C 1690 970 1683 951 1651 842 
C 1485 261 1222 64 1011 64 
C 934 64 845 83 845 274 
C 845 447 922 638 992 830 
L 1440 2017 
C 1459 2068 1504 2183 1504 2305 
C 1504 2573 1312 2816 998 2816 
C 410 2816 173 1890 173 1838 
C 173 1813 198 1781 243 1781 
C 301 1781 307 1807 333 1896 
C 486 2432 730 2687 979 2687 
C 1037 2687 1146 2681 1146 2477 
C 1146 2311 1062 2100 1011 1960 
L 563 772 
C 525 670 486 568 486 453 
C 486 166 685 -64 992 -64 
C 1581 -64 1811 868 1811 913 
z
M 1760 4012 
C 1760 4108 1683 4224 1542 4224 
C 1395 4224 1229 4083 1229 3916 
C 1229 3756 1363 3705 1440 3705 
C 1613 3705 1760 3871 1760 4012 
z
" transform="scale(0.015625)"/>
      </defs>
      <use xlink:href="#CMMI12-6e" transform="scale(0.996264)"/>
      <use xlink:href="#CMR17-28" transform="translate(58.230047 0) scale(0.996264)"/>
      <use xlink:href="#CMMI12-76" transform="translate(93.510815 0) scale(0.996264)"/>
      <use xlink:href="#CMR17-32" transform="translate(144.245989 36.153639) scale(0.697382)"/>
      <use xlink:href="#CMMI12-7a" transform="translate(140.671396 -24.62935) scale(0.697382)"/>
      <use xlink:href="#CMMI12-3b" transform="translate(176.727303 0) scale(0.996264)"/>
      <use xlink:href="#CMMI12-48" transform="translate(220.428885 0) scale(0.996264)"/>
      <use xlink:href="#CMR17-29" transform="translate(308.950657 0) scale(0.996264)"/>
      <use xlink:href="#SFRM3583-2c" transform="translate(344.231425 0) scale(0.996264)"/>
      <use xlink:href="#SFRM3583-70" transform="translate(398.66805 0) scale(0.996264)"/>
      <use xlink:href="#SFRM3583-72" transform="translate(448.206479 0) scale(0.996264)"/>
      <use xlink:href="#SFRM3583-7a" transform="translate(482.864825 0) scale(0.996264)"/>
      <use xlink:href="#SFRM3583-65" transform="translate(522.483223 0) scale(0.996264)"/>
      <use xlink:href="#SFRM3583-73" transform="translate(562.101622 0) scale(0.996264)"/>
      <use xlink:href="#SFRM3583-75" transform="translate(597.256017 0) scale(0.996264)"/>
      <use xlink:href="#SFRM3583-6e" transform="translate(646.794446 0) scale(0.996264)"/>
      <use xlink:href="#SFRM3583-69" transform="translate(696.332874 0) scale(0.996264)"/>
      <use xlink:href="#SFRM3583-a6" transform="translate(721.071206 0) scale(0.996264)"/>
      <use xlink:href="#SFRM3583-74" transform="translate(760.689605 0) scale(0.996264)"/>
      <use xlink:href="#SFRM3583-79" transform="translate(792.867962 0) scale(0.996264)"/>
      <use xlink:href="#SFRM3583-6f" transform="translate(869.624695 0) scale(0.996264)"/>
      <use xlink:href="#CMMI12-76" transform="translate(943.901455 0) scale(0.996264)"/>
      <use xlink:href="#CMR17-32" transform="translate(994.636629 36.153639) scale(0.697382)"/>
      <use xlink:href="#CMMI12-6d" transform="translate(991.062036 -25.505809) scale(0.697382)"/>
      <use xlink:href="#CMMI12-69" transform="translate(1050.790827 -25.505809) scale(0.697382)"/>
      <use xlink:href="#CMMI12-6e" transform="translate(1074.085734 -25.505809) scale(0.697382)"/>
     </g>
    </g>
    <g id="line2d_42">
     <path d="M 301.416205 55.435821 
L 311.416205 55.435821 
L 321.416205 55.435821 
" style="fill: none; stroke: #2ca02c; stroke-width: 1.5; stroke-linecap: square"/>
    </g>
    <g id="text_17">
     <!-- $n(v_z^2, H)$ -->
     <g transform="translate(329.416205 58.935821) scale(0.1 -0.1)">
      <use xlink:href="#CMMI12-6e" transform="scale(0.996264)"/>
      <use xlink:href="#CMR17-28" transform="translate(58.230047 0) scale(0.996264)"/>
      <use xlink:href="#CMMI12-76" transform="translate(93.510815 0) scale(0.996264)"/>
      <use xlink:href="#CMR17-32" transform="translate(144.245989 36.153639) scale(0.697382)"/>
      <use xlink:href="#CMMI12-7a" transform="translate(140.671396 -24.62935) scale(0.697382)"/>
      <use xlink:href="#CMMI12-3b" transform="translate(176.727303 0) scale(0.996264)"/>
      <use xlink:href="#CMMI12-48" transform="translate(220.428885 0) scale(0.996264)"/>
      <use xlink:href="#CMR17-29" transform="translate(308.950657 0) scale(0.996264)"/>
     </g>
    </g>
   </g>
  </g>
 </g>
 <defs>
  <clipPath id="pfcbc1ecf00">
   <rect x="52.336725" y="10.523108" width="409.662795" height="309.405672"/>
  </clipPath>
 </defs>
</svg>
