<?xml version="1.0" encoding="utf-8" standalone="no"?>
<!DOCTYPE svg PUBLIC "-//W3C//DTD SVG 1.1//EN"
  "http://www.w3.org/Graphics/SVG/1.1/DTD/svg11.dtd">
<svg xmlns:xlink="http://www.w3.org/1999/xlink" width="469.19952pt" height="353.99952pt" viewBox="0 0 469.19952 353.99952" xmlns="http://www.w3.org/2000/svg" version="1.1">
 <metadata>
  <rdf:RDF xmlns:dc="http://purl.org/dc/elements/1.1/" xmlns:cc="http://creativecommons.org/ns#" xmlns:rdf="http://www.w3.org/1999/02/22-rdf-syntax-ns#">
   <cc:Work>
    <dc:type rdf:resource="http://purl.org/dc/dcmitype/StillImage"/>
    <dc:date>2025-09-02T19:37:42.229436</dc:date>
    <dc:format>image/svg+xml</dc:format>
    <dc:creator>
     <cc:Agent>
      <dc:title>Matplotlib v3.10.3, https://matplotlib.org/</dc:title>
     </cc:Agent>
    </dc:creator>
   </cc:Work>
  </rdf:RDF>
 </metadata>
 <defs>
  <style type="text/css">*{stroke-linejoin: round; stroke-linecap: butt}</style>
 </defs>
 <g id="figure_1">
  <g id="patch_1">
   <path d="M 0 353.99952 
L 469.19952 353.99952 
L 469.19952 0 
L 0 0 
z
" style="fill: #ffffff"/>
  </g>
  <g id="axes_1">
   <g id="patch_2">
    <path d="M 23.430079 321.64566 
L 461.99952 321.64566 
L 461.99952 7.2 
L 23.430079 7.2 
z
" style="fill: #ffffff"/>
   </g>
   <g id="matplotlib.axis_1">
    <g id="xtick_1">
     <g id="line2d_1">
      <path d="M 43.365054 321.64566 
L 43.365054 7.2 
" clip-path="url(#pd5699abc9e)" style="fill: none; stroke-dasharray: 1.85,0.8; stroke-dashoffset: 0; stroke: #b0b0b0; stroke-width: 0.5"/>
     </g>
     <g id="line2d_2">
      <defs>
       <path id="m28a94dfb70" d="M 0 0 
L 0 -3.5 
" style="stroke: #000000; stroke-width: 0.8"/>
      </defs>
      <g>
       <use xlink:href="#m28a94dfb70" x="43.365054" y="321.64566" style="stroke: #000000; stroke-width: 0.8"/>
      </g>
     </g>
     <g id="line2d_3">
      <defs>
       <path id="m648ec87be5" d="M 0 0 
L 0 3.5 
" style="stroke: #000000; stroke-width: 0.8"/>
      </defs>
      <g>
       <use xlink:href="#m648ec87be5" x="43.365054" y="7.2" style="stroke: #000000; stroke-width: 0.8"/>
      </g>
     </g>
     <g id="text_1">
      <!-- $\mathdefault{0}$ -->
      <g transform="translate(40.874386 332.007136) scale(0.1 -0.1)">
       <defs>
        <path id="CMR17-30" d="M 2688 2038 
C 2688 2430 2682 3099 2413 3613 
C 2176 4063 1798 4224 1466 4224 
C 1158 4224 768 4082 525 3620 
C 269 3137 243 2539 243 2038 
C 243 1671 250 1112 448 623 
C 723 -39 1216 -128 1466 -128 
C 1760 -128 2208 -7 2470 604 
C 2662 1048 2688 1568 2688 2038 
z
M 1466 -26 
C 1056 -26 813 328 723 816 
C 653 1196 653 1749 653 2109 
C 653 2604 653 3015 736 3407 
C 858 3954 1216 4121 1466 4121 
C 1728 4121 2067 3947 2189 3420 
C 2272 3054 2278 2623 2278 2109 
C 2278 1691 2278 1176 2202 797 
C 2067 96 1690 -26 1466 -26 
z
" transform="scale(0.015625)"/>
       </defs>
       <use xlink:href="#CMR17-30" transform="scale(0.996264)"/>
      </g>
     </g>
    </g>
    <g id="xtick_2">
     <g id="line2d_4">
      <path d="M 123.104952 321.64566 
L 123.104952 7.2 
" clip-path="url(#pd5699abc9e)" style="fill: none; stroke-dasharray: 1.85,0.8; stroke-dashoffset: 0; stroke: #b0b0b0; stroke-width: 0.5"/>
     </g>
     <g id="line2d_5">
      <g>
       <use xlink:href="#m28a94dfb70" x="123.104952" y="321.64566" style="stroke: #000000; stroke-width: 0.8"/>
      </g>
     </g>
     <g id="line2d_6">
      <g>
       <use xlink:href="#m648ec87be5" x="123.104952" y="7.2" style="stroke: #000000; stroke-width: 0.8"/>
      </g>
     </g>
     <g id="text_2">
      <!-- $\mathdefault{20}$ -->
      <g transform="translate(118.123617 332.007136) scale(0.1 -0.1)">
       <defs>
        <path id="CMR17-32" d="M 2669 990 
L 2554 990 
C 2490 537 2438 460 2413 422 
C 2381 371 1920 371 1830 371 
L 602 371 
C 832 620 1280 1073 1824 1596 
C 2214 1966 2669 2400 2669 3033 
C 2669 3788 2067 4224 1395 4224 
C 691 4224 262 3603 262 3027 
C 262 2777 448 2745 525 2745 
C 589 2745 781 2783 781 3007 
C 781 3206 614 3264 525 3264 
C 486 3264 448 3257 422 3244 
C 544 3788 915 4057 1306 4057 
C 1862 4057 2227 3616 2227 3033 
C 2227 2477 1901 1998 1536 1583 
L 262 147 
L 262 0 
L 2515 0 
L 2669 990 
z
" transform="scale(0.015625)"/>
       </defs>
       <use xlink:href="#CMR17-32" transform="scale(0.996264)"/>
       <use xlink:href="#CMR17-30" transform="translate(45.690477 0) scale(0.996264)"/>
      </g>
     </g>
    </g>
    <g id="xtick_3">
     <g id="line2d_7">
      <path d="M 202.84485 321.64566 
L 202.84485 7.2 
" clip-path="url(#pd5699abc9e)" style="fill: none; stroke-dasharray: 1.85,0.8; stroke-dashoffset: 0; stroke: #b0b0b0; stroke-width: 0.5"/>
     </g>
     <g id="line2d_8">
      <g>
       <use xlink:href="#m28a94dfb70" x="202.84485" y="321.64566" style="stroke: #000000; stroke-width: 0.8"/>
      </g>
     </g>
     <g id="line2d_9">
      <g>
       <use xlink:href="#m648ec87be5" x="202.84485" y="7.2" style="stroke: #000000; stroke-width: 0.8"/>
      </g>
     </g>
     <g id="text_3">
      <!-- $\mathdefault{40}$ -->
      <g transform="translate(197.863515 332.007136) scale(0.1 -0.1)">
       <defs>
        <path id="CMR17-34" d="M 2150 4147 
C 2150 4281 2144 4288 2029 4288 
L 128 1254 
L 128 1088 
L 1779 1088 
L 1779 460 
C 1779 230 1766 166 1318 166 
L 1197 166 
L 1197 0 
C 1402 12 1747 12 1965 12 
C 2182 12 2528 12 2733 0 
L 2733 166 
L 2611 166 
C 2163 166 2150 230 2150 460 
L 2150 1088 
L 2803 1088 
L 2803 1254 
L 2150 1254 
L 2150 4147 
z
M 1798 3723 
L 1798 1254 
L 256 1254 
L 1798 3723 
z
" transform="scale(0.015625)"/>
       </defs>
       <use xlink:href="#CMR17-34" transform="scale(0.996264)"/>
       <use xlink:href="#CMR17-30" transform="translate(45.690477 0) scale(0.996264)"/>
      </g>
     </g>
    </g>
    <g id="xtick_4">
     <g id="line2d_10">
      <path d="M 282.584749 321.64566 
L 282.584749 7.2 
" clip-path="url(#pd5699abc9e)" style="fill: none; stroke-dasharray: 1.85,0.8; stroke-dashoffset: 0; stroke: #b0b0b0; stroke-width: 0.5"/>
     </g>
     <g id="line2d_11">
      <g>
       <use xlink:href="#m28a94dfb70" x="282.584749" y="321.64566" style="stroke: #000000; stroke-width: 0.8"/>
      </g>
     </g>
     <g id="line2d_12">
      <g>
       <use xlink:href="#m648ec87be5" x="282.584749" y="7.2" style="stroke: #000000; stroke-width: 0.8"/>
      </g>
     </g>
     <g id="text_4">
      <!-- $\mathdefault{60}$ -->
      <g transform="translate(277.603413 332.007136) scale(0.1 -0.1)">
       <defs>
        <path id="CMR17-36" d="M 678 2198 
C 678 3712 1395 4076 1811 4076 
C 1946 4076 2272 4049 2400 3782 
C 2298 3782 2106 3782 2106 3558 
C 2106 3385 2246 3328 2336 3328 
C 2394 3328 2566 3353 2566 3571 
C 2566 3987 2246 4224 1805 4224 
C 1043 4224 243 3411 243 2011 
C 243 257 966 -128 1478 -128 
C 2099 -128 2688 431 2688 1295 
C 2688 2101 2170 2688 1517 2688 
C 1126 2688 838 2430 678 1979 
L 678 2198 
z
M 1478 25 
C 691 25 691 1212 691 1450 
C 691 1914 909 2585 1504 2585 
C 1613 2585 1926 2585 2138 2140 
C 2253 1889 2253 1624 2253 1302 
C 2253 954 2253 696 2118 438 
C 1978 173 1773 25 1478 25 
z
" transform="scale(0.015625)"/>
       </defs>
       <use xlink:href="#CMR17-36" transform="scale(0.996264)"/>
       <use xlink:href="#CMR17-30" transform="translate(45.690477 0) scale(0.996264)"/>
      </g>
     </g>
    </g>
    <g id="xtick_5">
     <g id="line2d_13">
      <path d="M 362.324647 321.64566 
L 362.324647 7.2 
" clip-path="url(#pd5699abc9e)" style="fill: none; stroke-dasharray: 1.85,0.8; stroke-dashoffset: 0; stroke: #b0b0b0; stroke-width: 0.5"/>
     </g>
     <g id="line2d_14">
      <g>
       <use xlink:href="#m28a94dfb70" x="362.324647" y="321.64566" style="stroke: #000000; stroke-width: 0.8"/>
      </g>
     </g>
     <g id="line2d_15">
      <g>
       <use xlink:href="#m648ec87be5" x="362.324647" y="7.2" style="stroke: #000000; stroke-width: 0.8"/>
      </g>
     </g>
     <g id="text_5">
      <!-- $\mathdefault{80}$ -->
      <g transform="translate(357.343312 332.007136) scale(0.1 -0.1)">
       <defs>
        <path id="CMR17-38" d="M 1741 2289 
C 2144 2494 2554 2803 2554 3298 
C 2554 3884 1990 4224 1472 4224 
C 890 4224 378 3800 378 3215 
C 378 3054 416 2777 666 2533 
C 730 2469 998 2276 1171 2154 
C 883 2006 211 1652 211 945 
C 211 282 838 -128 1459 -128 
C 2144 -128 2720 366 2720 1022 
C 2720 1607 2330 1877 2074 2051 
L 1741 2289 
z
M 902 2855 
C 851 2887 595 3086 595 3388 
C 595 3781 998 4076 1459 4076 
C 1965 4076 2336 3716 2336 3298 
C 2336 2700 1670 2359 1638 2359 
C 1632 2359 1626 2359 1574 2398 
L 902 2855 
z
M 2080 1536 
C 2176 1466 2483 1253 2483 861 
C 2483 385 2010 25 1472 25 
C 890 25 448 443 448 951 
C 448 1459 838 1884 1280 2083 
L 2080 1536 
z
" transform="scale(0.015625)"/>
       </defs>
       <use xlink:href="#CMR17-38" transform="scale(0.996264)"/>
       <use xlink:href="#CMR17-30" transform="translate(45.690477 0) scale(0.996264)"/>
      </g>
     </g>
    </g>
    <g id="xtick_6">
     <g id="line2d_16">
      <path d="M 442.064545 321.64566 
L 442.064545 7.2 
" clip-path="url(#pd5699abc9e)" style="fill: none; stroke-dasharray: 1.85,0.8; stroke-dashoffset: 0; stroke: #b0b0b0; stroke-width: 0.5"/>
     </g>
     <g id="line2d_17">
      <g>
       <use xlink:href="#m28a94dfb70" x="442.064545" y="321.64566" style="stroke: #000000; stroke-width: 0.8"/>
      </g>
     </g>
     <g id="line2d_18">
      <g>
       <use xlink:href="#m648ec87be5" x="442.064545" y="7.2" style="stroke: #000000; stroke-width: 0.8"/>
      </g>
     </g>
     <g id="text_6">
      <!-- $\mathdefault{100}$ -->
      <g transform="translate(434.592543 332.007136) scale(0.1 -0.1)">
       <defs>
        <path id="CMR17-31" d="M 1702 4083 
C 1702 4217 1696 4224 1606 4224 
C 1357 3927 979 3833 621 3820 
C 602 3820 570 3820 563 3808 
C 557 3795 557 3782 557 3648 
C 755 3648 1088 3686 1344 3839 
L 1344 467 
C 1344 243 1331 166 781 166 
L 589 166 
L 589 0 
C 896 6 1216 12 1523 12 
C 1830 12 2150 6 2458 0 
L 2458 166 
L 2266 166 
C 1715 166 1702 236 1702 467 
L 1702 4083 
z
" transform="scale(0.015625)"/>
       </defs>
       <use xlink:href="#CMR17-31" transform="scale(0.996264)"/>
       <use xlink:href="#CMR17-30" transform="translate(45.690477 0) scale(0.996264)"/>
       <use xlink:href="#CMR17-30" transform="translate(91.380954 0) scale(0.996264)"/>
      </g>
     </g>
    </g>
    <g id="text_7">
     <!-- $h,$ km -->
     <g transform="translate(230.022558 344.862342) scale(0.1 -0.1)">
      <defs>
       <path id="CMMI12-68" d="M 1798 4255 
C 1805 4281 1818 4319 1818 4351 
C 1818 4416 1754 4416 1741 4416 
C 1734 4416 1421 4390 1389 4383 
C 1280 4377 1184 4364 1069 4358 
C 909 4345 864 4339 864 4223 
C 864 4159 915 4159 1005 4159 
C 1318 4159 1325 4103 1325 4040 
C 1325 4002 1312 3951 1306 3932 
L 378 249 
C 352 153 352 140 352 102 
C 352 -39 461 -64 525 -64 
C 634 -64 717 19 749 89 
L 1037 1245 
C 1069 1385 1107 1519 1139 1660 
C 1210 1928 1210 1934 1331 2119 
C 1453 2305 1741 2687 2234 2687 
C 2490 2687 2579 2496 2579 2241 
C 2579 1883 2330 1187 2189 804 
C 2131 651 2099 568 2099 453 
C 2099 166 2298 -64 2605 -64 
C 3200 -64 3424 874 3424 913 
C 3424 945 3398 970 3360 970 
C 3302 970 3296 951 3264 842 
C 3117 332 2880 64 2624 64 
C 2560 64 2458 70 2458 274 
C 2458 440 2534 645 2560 715 
C 2675 1021 2963 1775 2963 2145 
C 2963 2528 2739 2816 2253 2816 
C 1888 2816 1568 2643 1306 2311 
L 1798 4255 
z
" transform="scale(0.015625)"/>
       <path id="CMMI12-3b" d="M 1248 -26 
C 1248 345 1126 620 864 620 
C 659 620 557 454 557 313 
C 557 172 653 0 870 0 
C 954 0 1024 25 1082 83 
C 1094 96 1101 96 1107 96 
C 1120 96 1120 6 1120 -26 
C 1120 -233 1082 -642 710 -1051 
C 640 -1127 640 -1140 640 -1152 
C 640 -1184 672 -1216 704 -1216 
C 755 -1216 1248 -749 1248 -26 
z
" transform="scale(0.015625)"/>
       <path id="SFRM3583-6b" d="M 288 4408 
L 288 4264 
L 365 4264 
C 589 4264 666 4165 666 3943 
L 666 371 
C 666 179 582 140 288 140 
L 288 0 
L 1293 0 
L 1293 140 
L 1190 140 
C 1056 140 915 160 915 352 
L 915 1056 
C 915 1209 1165 1369 1286 1491 
L 1389 1587 
C 1600 1222 1850 883 2080 518 
C 2112 467 2189 364 2189 268 
C 2189 230 2176 198 2144 172 
L 2106 153 
C 2080 147 2061 140 2035 140 
L 2035 0 
L 2925 0 
L 2925 140 
C 2573 140 2490 358 2355 563 
C 2118 921 1888 1273 1658 1632 
C 1638 1664 1587 1721 1587 1760 
C 1600 1811 1760 1945 1843 2022 
C 2106 2272 2406 2604 2797 2611 
L 2797 2752 
L 1946 2752 
L 1946 2611 
L 2003 2592 
C 2048 2560 2067 2521 2067 2476 
C 2067 2297 1824 2118 1696 2003 
C 1440 1753 1178 1510 922 1260 
L 922 4480 
L 288 4408 
z
" transform="scale(0.015625)"/>
       <path id="SFRM3583-6d" d="M 301 2744 
L 301 2602 
L 365 2602 
C 570 2602 678 2557 678 2273 
L 678 360 
C 678 153 525 140 301 140 
L 301 0 
L 1318 0 
L 1318 140 
L 1229 140 
C 1082 140 941 160 941 360 
L 941 1258 
C 941 1375 934 1484 934 1601 
C 934 2066 1088 2738 1715 2738 
C 2112 2738 2272 2428 2272 1950 
L 2272 360 
C 2272 153 2118 140 1894 140 
L 1894 0 
L 2912 0 
L 2912 140 
L 2822 140 
C 2675 140 2534 160 2534 360 
L 2534 1258 
C 2534 1375 2528 1484 2528 1601 
C 2528 2066 2682 2738 3309 2738 
C 3706 2738 3866 2428 3866 1950 
L 3866 360 
C 3866 153 3712 140 3488 140 
L 3488 0 
L 4506 0 
L 4506 140 
L 4403 140 
C 4256 140 4128 160 4128 386 
L 4128 1859 
C 4128 2292 4058 2816 3354 2816 
C 2957 2816 2611 2525 2534 2144 
L 2528 2144 
C 2470 2486 2323 2816 1760 2816 
C 1357 2816 998 2492 934 2118 
L 928 2816 
L 301 2744 
z
" transform="scale(0.015625)"/>
      </defs>
      <use xlink:href="#CMMI12-68" transform="scale(0.996264)"/>
      <use xlink:href="#CMMI12-3b" transform="translate(56.154624 0) scale(0.996264)"/>
      <use xlink:href="#SFRM3583-6b" transform="translate(112.950094 0) scale(0.996264)"/>
      <use xlink:href="#SFRM3583-6d" transform="translate(160.008534 0) scale(0.996264)"/>
     </g>
    </g>
   </g>
   <g id="matplotlib.axis_2">
    <g id="ytick_1">
     <g id="line2d_19">
      <path d="M 23.430079 307.35325 
L 461.99952 307.35325 
" clip-path="url(#pd5699abc9e)" style="fill: none; stroke-dasharray: 1.85,0.8; stroke-dashoffset: 0; stroke: #b0b0b0; stroke-width: 0.5"/>
     </g>
     <g id="line2d_20">
      <defs>
       <path id="me2df052179" d="M 0 0 
L 3.5 0 
" style="stroke: #000000; stroke-width: 0.8"/>
      </defs>
      <g>
       <use xlink:href="#me2df052179" x="23.430079" y="307.35325" style="stroke: #000000; stroke-width: 0.8"/>
      </g>
     </g>
     <g id="line2d_21">
      <defs>
       <path id="mc0f1b2bc8e" d="M 0 0 
L -3.5 0 
" style="stroke: #000000; stroke-width: 0.8"/>
      </defs>
      <g>
       <use xlink:href="#mc0f1b2bc8e" x="461.99952" y="307.35325" style="stroke: #000000; stroke-width: 0.8"/>
      </g>
     </g>
     <g id="text_8">
      <!-- $\mathdefault{0.0}$ -->
      <g transform="translate(7.2 310.783988) scale(0.1 -0.1)">
       <defs>
        <path id="CMMI12-3a" d="M 1178 307 
C 1178 492 1024 620 870 620 
C 685 620 557 467 557 313 
C 557 128 710 0 864 0 
C 1050 0 1178 153 1178 307 
z
" transform="scale(0.015625)"/>
       </defs>
       <use xlink:href="#CMR17-30" transform="scale(0.996264)"/>
       <use xlink:href="#CMMI12-3a" transform="translate(45.690477 0) scale(0.996264)"/>
       <use xlink:href="#CMR17-30" transform="translate(72.787654 0) scale(0.996264)"/>
      </g>
     </g>
    </g>
    <g id="ytick_2">
     <g id="line2d_22">
      <path d="M 23.430079 250.181197 
L 461.99952 250.181197 
" clip-path="url(#pd5699abc9e)" style="fill: none; stroke-dasharray: 1.85,0.8; stroke-dashoffset: 0; stroke: #b0b0b0; stroke-width: 0.5"/>
     </g>
     <g id="line2d_23">
      <g>
       <use xlink:href="#me2df052179" x="23.430079" y="250.181197" style="stroke: #000000; stroke-width: 0.8"/>
      </g>
     </g>
     <g id="line2d_24">
      <g>
       <use xlink:href="#mc0f1b2bc8e" x="461.99952" y="250.181197" style="stroke: #000000; stroke-width: 0.8"/>
      </g>
     </g>
     <g id="text_9">
      <!-- $\mathdefault{0.2}$ -->
      <g transform="translate(7.2 253.611935) scale(0.1 -0.1)">
       <use xlink:href="#CMR17-30" transform="scale(0.996264)"/>
       <use xlink:href="#CMMI12-3a" transform="translate(45.690477 0) scale(0.996264)"/>
       <use xlink:href="#CMR17-32" transform="translate(72.787654 0) scale(0.996264)"/>
      </g>
     </g>
    </g>
    <g id="ytick_3">
     <g id="line2d_25">
      <path d="M 23.430079 193.009144 
L 461.99952 193.009144 
" clip-path="url(#pd5699abc9e)" style="fill: none; stroke-dasharray: 1.85,0.8; stroke-dashoffset: 0; stroke: #b0b0b0; stroke-width: 0.5"/>
     </g>
     <g id="line2d_26">
      <g>
       <use xlink:href="#me2df052179" x="23.430079" y="193.009144" style="stroke: #000000; stroke-width: 0.8"/>
      </g>
     </g>
     <g id="line2d_27">
      <g>
       <use xlink:href="#mc0f1b2bc8e" x="461.99952" y="193.009144" style="stroke: #000000; stroke-width: 0.8"/>
      </g>
     </g>
     <g id="text_10">
      <!-- $\mathdefault{0.4}$ -->
      <g transform="translate(7.2 196.439882) scale(0.1 -0.1)">
       <use xlink:href="#CMR17-30" transform="scale(0.996264)"/>
       <use xlink:href="#CMMI12-3a" transform="translate(45.690477 0) scale(0.996264)"/>
       <use xlink:href="#CMR17-34" transform="translate(72.787654 0) scale(0.996264)"/>
      </g>
     </g>
    </g>
    <g id="ytick_4">
     <g id="line2d_28">
      <path d="M 23.430079 135.837091 
L 461.99952 135.837091 
" clip-path="url(#pd5699abc9e)" style="fill: none; stroke-dasharray: 1.85,0.8; stroke-dashoffset: 0; stroke: #b0b0b0; stroke-width: 0.5"/>
     </g>
     <g id="line2d_29">
      <g>
       <use xlink:href="#me2df052179" x="23.430079" y="135.837091" style="stroke: #000000; stroke-width: 0.8"/>
      </g>
     </g>
     <g id="line2d_30">
      <g>
       <use xlink:href="#mc0f1b2bc8e" x="461.99952" y="135.837091" style="stroke: #000000; stroke-width: 0.8"/>
      </g>
     </g>
     <g id="text_11">
      <!-- $\mathdefault{0.6}$ -->
      <g transform="translate(7.2 139.267829) scale(0.1 -0.1)">
       <use xlink:href="#CMR17-30" transform="scale(0.996264)"/>
       <use xlink:href="#CMMI12-3a" transform="translate(45.690477 0) scale(0.996264)"/>
       <use xlink:href="#CMR17-36" transform="translate(72.787654 0) scale(0.996264)"/>
      </g>
     </g>
    </g>
    <g id="ytick_5">
     <g id="line2d_31">
      <path d="M 23.430079 78.665038 
L 461.99952 78.665038 
" clip-path="url(#pd5699abc9e)" style="fill: none; stroke-dasharray: 1.85,0.8; stroke-dashoffset: 0; stroke: #b0b0b0; stroke-width: 0.5"/>
     </g>
     <g id="line2d_32">
      <g>
       <use xlink:href="#me2df052179" x="23.430079" y="78.665038" style="stroke: #000000; stroke-width: 0.8"/>
      </g>
     </g>
     <g id="line2d_33">
      <g>
       <use xlink:href="#mc0f1b2bc8e" x="461.99952" y="78.665038" style="stroke: #000000; stroke-width: 0.8"/>
      </g>
     </g>
     <g id="text_12">
      <!-- $\mathdefault{0.8}$ -->
      <g transform="translate(7.2 82.095776) scale(0.1 -0.1)">
       <use xlink:href="#CMR17-30" transform="scale(0.996264)"/>
       <use xlink:href="#CMMI12-3a" transform="translate(45.690477 0) scale(0.996264)"/>
       <use xlink:href="#CMR17-38" transform="translate(72.787654 0) scale(0.996264)"/>
      </g>
     </g>
    </g>
    <g id="ytick_6">
     <g id="line2d_34">
      <path d="M 23.430079 21.492985 
L 461.99952 21.492985 
" clip-path="url(#pd5699abc9e)" style="fill: none; stroke-dasharray: 1.85,0.8; stroke-dashoffset: 0; stroke: #b0b0b0; stroke-width: 0.5"/>
     </g>
     <g id="line2d_35">
      <g>
       <use xlink:href="#me2df052179" x="23.430079" y="21.492985" style="stroke: #000000; stroke-width: 0.8"/>
      </g>
     </g>
     <g id="line2d_36">
      <g>
       <use xlink:href="#mc0f1b2bc8e" x="461.99952" y="21.492985" style="stroke: #000000; stroke-width: 0.8"/>
      </g>
     </g>
     <g id="text_13">
      <!-- $\mathdefault{1.0}$ -->
      <g transform="translate(7.2 24.923723) scale(0.1 -0.1)">
       <use xlink:href="#CMR17-31" transform="scale(0.996264)"/>
       <use xlink:href="#CMMI12-3a" transform="translate(45.690477 0) scale(0.996264)"/>
       <use xlink:href="#CMR17-30" transform="translate(72.787654 0) scale(0.996264)"/>
      </g>
     </g>
    </g>
   </g>
   <g id="line2d_37">
    <path d="M 43.365054 21.492985 
L 47.392321 56.965449 
L 51.419589 88.036128 
L 55.446856 115.251239 
L 59.474124 139.089221 
L 63.501392 159.969142 
L 67.528659 178.258069 
L 71.555927 194.277519 
L 75.583194 208.309112 
L 79.610462 220.599522 
L 83.63773 231.364811 
L 87.664997 240.794234 
L 91.692265 249.053557 
L 95.719532 256.287979 
L 99.7468 262.62468 
L 103.774067 268.175059 
L 107.801335 273.036689 
L 111.828603 277.295039 
L 115.85587 281.024969 
L 119.883138 284.292051 
L 123.910405 287.153721 
L 127.937673 289.660285 
L 131.964941 291.855809 
L 135.992208 293.77889 
L 140.019476 295.463335 
L 144.046743 296.938758 
L 148.074011 298.231094 
L 152.101279 299.363065 
L 156.128546 300.354569 
L 160.155814 301.223037 
L 164.183081 301.983736 
L 168.210349 302.65004 
L 172.237617 303.233663 
L 176.264884 303.744863 
L 180.292152 304.192629 
L 184.319419 304.584831 
L 188.346687 304.928365 
L 192.373955 305.229269 
L 196.401222 305.492835 
L 200.42849 305.723694 
L 204.455757 305.925906 
L 208.483025 306.103025 
L 212.510293 306.258166 
L 216.53756 306.394055 
L 220.564828 306.513082 
L 224.592095 306.617339 
L 228.619363 306.708658 
L 232.646631 306.788646 
L 236.673898 306.858708 
L 240.701166 306.920075 
L 244.728433 306.973828 
L 248.755701 307.020911 
L 252.782968 307.062151 
L 256.810236 307.098273 
L 260.837504 307.129914 
L 264.864771 307.157627 
L 268.892039 307.181902 
L 272.919306 307.203165 
L 276.946574 307.221789 
L 280.973842 307.238102 
L 285.001109 307.252391 
L 289.028377 307.264906 
L 293.055644 307.275869 
L 297.082912 307.285471 
L 301.11018 307.293882 
L 305.137447 307.301249 
L 309.164715 307.307702 
L 313.191982 307.313354 
L 317.21925 307.318305 
L 321.246518 307.322641 
L 325.273785 307.326439 
L 329.301053 307.329766 
L 333.32832 307.33268 
L 337.355588 307.335233 
L 341.382856 307.337469 
L 345.410123 307.339427 
L 349.437391 307.341142 
L 353.464658 307.342645 
L 357.491926 307.343961 
L 361.519194 307.345114 
L 365.546461 307.346123 
L 369.573729 307.347008 
L 373.600996 307.347782 
L 377.628264 307.348461 
L 381.655531 307.349055 
L 385.682799 307.349576 
L 389.710067 307.350032 
L 393.737334 307.350431 
L 397.764602 307.350781 
L 401.791869 307.351087 
L 405.819137 307.351356 
L 409.846405 307.351591 
L 413.873672 307.351797 
L 417.90094 307.351977 
L 421.928207 307.352135 
L 425.955475 307.352273 
L 429.982743 307.352395 
L 434.01001 307.352501 
L 438.037278 307.352594 
L 442.064545 307.352675 
" clip-path="url(#pd5699abc9e)" style="fill: none; stroke: #1f77b4; stroke-width: 1.5; stroke-linecap: square"/>
   </g>
   <g id="line2d_38">
    <path d="M 43.365054 21.492985 
L 47.392321 52.784117 
L 51.419589 80.650027 
L 55.446856 105.465649 
L 59.474124 127.564879 
L 63.501392 147.24506 
L 67.528659 164.770988 
L 71.555927 180.378475 
L 75.583194 194.277519 
L 79.610462 206.655132 
L 83.63773 217.677854 
L 87.664997 227.493995 
L 91.692265 236.235631 
L 95.719532 244.020382 
L 99.7468 250.95299 
L 103.774067 257.126733 
L 107.801335 262.62468 
L 111.828603 267.520805 
L 115.85587 271.880986 
L 119.883138 275.763887 
L 123.910405 279.221755 
L 127.937673 282.301114 
L 131.964941 285.043397 
L 135.992208 287.485501 
L 140.019476 289.660285 
L 144.046743 291.597011 
L 148.074011 293.321736 
L 152.101279 294.857668 
L 156.128546 296.225473 
L 160.155814 297.443553 
L 164.183081 298.528299 
L 168.210349 299.494305 
L 172.237617 300.354569 
L 176.264884 301.120666 
L 180.292152 301.802903 
L 184.319419 302.410461 
L 188.346687 302.951514 
L 192.373955 303.433341 
L 196.401222 303.862426 
L 200.42849 304.244542 
L 204.455757 304.584831 
L 208.483025 304.887871 
L 212.510293 305.157738 
L 216.53756 305.398066 
L 220.564828 305.612086 
L 224.592095 305.802679 
L 228.619363 305.97241 
L 232.646631 306.123561 
L 236.673898 306.258166 
L 240.701166 306.378037 
L 244.728433 306.484787 
L 248.755701 306.579852 
L 252.782968 306.66451 
L 256.810236 306.739902 
L 260.837504 306.807041 
L 264.864771 306.86683 
L 268.892039 306.920075 
L 272.919306 306.967492 
L 276.946574 307.009718 
L 280.973842 307.047322 
L 285.001109 307.08081 
L 289.028377 307.110632 
L 293.055644 307.13719 
L 297.082912 307.160841 
L 301.11018 307.181902 
L 305.137447 307.200659 
L 309.164715 307.217362 
L 313.191982 307.232236 
L 317.21925 307.245483 
L 321.246518 307.257279 
L 325.273785 307.267785 
L 329.301053 307.27714 
L 333.32832 307.285471 
L 337.355588 307.292891 
L 341.382856 307.299498 
L 345.410123 307.305382 
L 349.437391 307.310621 
L 353.464658 307.315288 
L 357.491926 307.319443 
L 361.519194 307.323144 
L 365.546461 307.326439 
L 369.573729 307.329374 
L 373.600996 307.331988 
L 377.628264 307.334315 
L 381.655531 307.336388 
L 385.682799 307.338234 
L 389.710067 307.339877 
L 393.737334 307.341341 
L 397.764602 307.342645 
L 401.791869 307.343806 
L 405.819137 307.344839 
L 409.846405 307.34576 
L 413.873672 307.34658 
L 417.90094 307.34731 
L 421.928207 307.34796 
L 425.955475 307.348539 
L 429.982743 307.349055 
L 434.01001 307.349514 
L 438.037278 307.349923 
L 442.064545 307.350287 
" clip-path="url(#pd5699abc9e)" style="fill: none; stroke: #ff7f0e; stroke-width: 1.5; stroke-linecap: square"/>
   </g>
   <g id="line2d_39">
    <path d="M 43.365054 21.492985 
L 47.392321 23.850351 
L 51.419589 26.188278 
L 55.446856 28.506925 
L 59.474124 30.806451 
L 63.501392 33.087014 
L 67.528659 35.34877 
L 71.555927 37.591874 
L 75.583194 39.81648 
L 79.610462 42.022741 
L 83.63773 44.210808 
L 87.664997 46.380831 
L 91.692265 48.532958 
L 95.719532 50.667338 
L 99.7468 52.784117 
L 103.774067 54.883439 
L 107.801335 56.965449 
L 111.828603 59.03029 
L 115.85587 61.078103 
L 119.883138 63.109028 
L 123.910405 65.123206 
L 127.937673 67.120773 
L 131.964941 69.101867 
L 135.992208 71.066624 
L 140.019476 73.015178 
L 144.046743 74.947664 
L 148.074011 76.864213 
L 152.101279 78.764957 
L 156.128546 80.650027 
L 160.155814 82.519551 
L 164.183081 84.373658 
L 168.210349 86.212475 
L 172.237617 88.036128 
L 176.264884 89.844742 
L 180.292152 91.638441 
L 184.319419 93.417349 
L 188.346687 95.181586 
L 192.373955 96.931275 
L 196.401222 98.666535 
L 200.42849 100.387485 
L 204.455757 102.094242 
L 208.483025 103.786925 
L 212.510293 105.465649 
L 216.53756 107.13053 
L 220.564828 108.781681 
L 224.592095 110.419215 
L 228.619363 112.043246 
L 232.646631 113.653883 
L 236.673898 115.251239 
L 240.701166 116.835422 
L 244.728433 118.406541 
L 248.755701 119.964703 
L 252.782968 121.510016 
L 256.810236 123.042585 
L 260.837504 124.562516 
L 264.864771 126.069913 
L 268.892039 127.564879 
L 272.919306 129.047516 
L 276.946574 130.517927 
L 280.973842 131.976212 
L 285.001109 133.422471 
L 289.028377 134.856804 
L 293.055644 136.279308 
L 297.082912 137.690082 
L 301.11018 139.089221 
L 305.137447 140.476822 
L 309.164715 141.85298 
L 313.191982 143.21779 
L 317.21925 144.571345 
L 321.246518 145.913737 
L 325.273785 147.24506 
L 329.301053 148.565403 
L 333.32832 149.874858 
L 337.355588 151.173515 
L 341.382856 152.461462 
L 345.410123 153.738788 
L 349.437391 155.005581 
L 353.464658 156.261927 
L 357.491926 157.507912 
L 361.519194 158.743622 
L 365.546461 159.969142 
L 369.573729 161.184556 
L 373.600996 162.389946 
L 377.628264 163.585396 
L 381.655531 164.770988 
L 385.682799 165.946803 
L 389.710067 167.112921 
L 393.737334 168.269423 
L 397.764602 169.416388 
L 401.791869 170.553894 
L 405.819137 171.682019 
L 409.846405 172.800842 
L 413.873672 173.910438 
L 417.90094 175.010883 
L 421.928207 176.102254 
L 425.955475 177.184625 
L 429.982743 178.258069 
L 434.01001 179.322662 
L 438.037278 180.378475 
L 442.064545 181.425582 
" clip-path="url(#pd5699abc9e)" style="fill: none; stroke: #2ca02c; stroke-width: 1.5; stroke-linecap: square"/>
   </g>
   <g id="patch_3">
    <path d="M 23.430079 321.64566 
L 23.430079 7.2 
" style="fill: none; stroke: #000000; stroke-width: 0.8; stroke-linejoin: miter; stroke-linecap: square"/>
   </g>
   <g id="patch_4">
    <path d="M 461.99952 321.64566 
L 461.99952 7.2 
" style="fill: none; stroke: #000000; stroke-width: 0.8; stroke-linejoin: miter; stroke-linecap: square"/>
   </g>
   <g id="patch_5">
    <path d="M 23.430079 321.64566 
L 461.99952 321.64566 
" style="fill: none; stroke: #000000; stroke-width: 0.8; stroke-linejoin: miter; stroke-linecap: square"/>
   </g>
   <g id="patch_6">
    <path d="M 23.430079 7.2 
L 461.99952 7.2 
" style="fill: none; stroke: #000000; stroke-width: 0.8; stroke-linejoin: miter; stroke-linecap: square"/>
   </g>
   <g id="legend_1">
    <g id="patch_7">
     <path d="M 411.281454 57.010121 
L 454.99952 57.010121 
Q 456.99952 57.010121 456.99952 55.010121 
L 456.99952 14.2 
Q 456.99952 12.2 454.99952 12.2 
L 411.281454 12.2 
Q 409.281454 12.2 409.281454 14.2 
L 409.281454 55.010121 
Q 409.281454 57.010121 411.281454 57.010121 
z
" style="fill: #ffffff; opacity: 0.8; stroke: #cccccc; stroke-linejoin: miter"/>
    </g>
    <g id="line2d_40">
     <path d="M 413.281454 19.7 
L 423.281454 19.7 
L 433.281454 19.7 
" style="fill: none; stroke: #1f77b4; stroke-width: 1.5; stroke-linecap: square"/>
    </g>
    <g id="text_14">
     <!-- $\text{O}_2$ -->
     <g transform="translate(441.281454 23.2) scale(0.1 -0.1)">
      <defs>
       <path id="SFRM3583-4f" d="M 2125 4480 
C 928 4338 320 3248 320 2211 
C 320 1141 1018 -64 2240 -64 
C 3424 -64 4134 1134 4134 2204 
C 4134 3300 3411 4480 2208 4480 
L 2125 4480 
z
M 678 2140 
L 678 2236 
C 678 2829 800 3435 1203 3893 
C 1446 4177 1824 4396 2208 4396 
C 3226 4396 3776 3300 3776 2294 
C 3776 1450 3482 316 2522 58 
C 2432 32 2336 19 2240 19 
C 1325 19 819 973 698 1876 
C 691 1966 691 2050 678 2140 
z
" transform="scale(0.015625)"/>
      </defs>
      <use xlink:href="#SFRM3583-4f" transform="scale(0.996264)"/>
      <use xlink:href="#CMR17-32" transform="translate(69.378548 -14.943915) scale(0.697382)"/>
     </g>
    </g>
    <g id="line2d_41">
     <path d="M 413.281454 33.636707 
L 423.281454 33.636707 
L 433.281454 33.636707 
" style="fill: none; stroke: #ff7f0e; stroke-width: 1.5; stroke-linecap: square"/>
    </g>
    <g id="text_15">
     <!-- $\text{N}_2$ -->
     <g transform="translate(441.281454 37.136707) scale(0.1 -0.1)">
      <defs>
       <path id="SFRM3583-4e" d="M 467 4352 
L 467 4211 
L 877 4179 
L 877 624 
C 877 421 864 140 467 140 
L 467 0 
L 1376 0 
L 1376 140 
C 998 140 966 401 966 624 
L 966 4122 
C 1069 4020 1126 3880 1197 3759 
C 1741 2835 2272 1892 2797 949 
L 3219 204 
C 3251 147 3309 0 3373 0 
C 3418 0 3418 38 3418 64 
L 3418 3739 
C 3418 3943 3450 4211 3827 4211 
L 3827 4352 
L 2918 4352 
L 2918 4211 
C 3270 4211 3328 3975 3328 3752 
L 3328 624 
L 1203 4339 
L 1126 4352 
L 467 4352 
z
" transform="scale(0.015625)"/>
      </defs>
      <use xlink:href="#SFRM3583-4e" transform="scale(0.996264)"/>
      <use xlink:href="#CMR17-32" transform="translate(66.840991 -14.943915) scale(0.697382)"/>
     </g>
    </g>
    <g id="line2d_42">
     <path d="M 413.281454 47.573414 
L 423.281454 47.573414 
L 433.281454 47.573414 
" style="fill: none; stroke: #2ca02c; stroke-width: 1.5; stroke-linecap: square"/>
    </g>
    <g id="text_16">
     <!-- $\text{H}_2$ -->
     <g transform="translate(441.281454 51.073414) scale(0.1 -0.1)">
      <defs>
       <path id="SFRM3583-48" d="M 467 4352 
L 467 4211 
L 576 4211 
C 742 4211 877 4191 877 3941 
L 877 406 
C 877 159 768 140 467 140 
L 467 0 
L 1600 0 
L 1600 140 
L 1491 140 
C 1331 140 1190 159 1190 393 
L 1190 2176 
L 3104 2176 
L 3104 393 
C 3104 178 3021 140 2694 140 
L 2694 0 
L 3827 0 
L 3827 140 
L 3718 140 
C 3552 140 3411 159 3411 406 
C 3411 456 3418 501 3418 551 
L 3418 3941 
C 3418 4191 3526 4211 3827 4211 
L 3827 4352 
L 2694 4352 
L 2694 4211 
L 2810 4211 
C 2970 4211 3104 4191 3104 3960 
L 3104 2316 
L 1190 2316 
L 1190 3960 
C 1190 4159 1267 4211 1600 4211 
L 1600 4352 
L 467 4352 
z
" transform="scale(0.015625)"/>
      </defs>
      <use xlink:href="#SFRM3583-48" transform="scale(0.996264)"/>
      <use xlink:href="#CMR17-32" transform="translate(66.840991 -14.943915) scale(0.697382)"/>
     </g>
    </g>
   </g>
  </g>
 </g>
 <defs>
  <clipPath id="pd5699abc9e">
   <rect x="23.430079" y="7.2" width="438.569441" height="314.44566"/>
  </clipPath>
 </defs>
</svg>
