<?xml version="1.0" encoding="utf-8" standalone="no"?>
<!DOCTYPE svg PUBLIC "-//W3C//DTD SVG 1.1//EN"
  "http://www.w3.org/Graphics/SVG/1.1/DTD/svg11.dtd">
<svg xmlns:xlink="http://www.w3.org/1999/xlink" width="469.19952pt" height="353.99952pt" viewBox="0 0 469.19952 353.99952" xmlns="http://www.w3.org/2000/svg" version="1.1">
 <metadata>
  <rdf:RDF xmlns:dc="http://purl.org/dc/elements/1.1/" xmlns:cc="http://creativecommons.org/ns#" xmlns:rdf="http://www.w3.org/1999/02/22-rdf-syntax-ns#">
   <cc:Work>
    <dc:type rdf:resource="http://purl.org/dc/dcmitype/StillImage"/>
    <dc:date>2025-08-04T18:06:39.837422</dc:date>
    <dc:format>image/svg+xml</dc:format>
    <dc:creator>
     <cc:Agent>
      <dc:title>Matplotlib v3.10.3, https://matplotlib.org/</dc:title>
     </cc:Agent>
    </dc:creator>
   </cc:Work>
  </rdf:RDF>
 </metadata>
 <defs>
  <style type="text/css">*{stroke-linejoin: round; stroke-linecap: butt}</style>
 </defs>
 <g id="figure_1">
  <g id="patch_1">
   <path d="M 0 353.99952 
L 469.19952 353.99952 
L 469.19952 0 
L 0 0 
z
" style="fill: #ffffff"/>
  </g>
  <g id="axes_1">
   <g id="patch_2">
    <path d="M 23.430079 334.501336 
L 461.99952 334.501336 
L 461.99952 7.2 
L 23.430079 7.2 
z
" style="fill: #ffffff"/>
   </g>
   <g id="matplotlib.axis_1">
    <g id="xtick_1">
     <g id="line2d_1">
      <path d="M 43.365054 334.501336 
L 43.365054 7.2 
" clip-path="url(#pddce36eac7)" style="fill: none; stroke-dasharray: 1.85,0.8; stroke-dashoffset: 0; stroke: #b0b0b0; stroke-width: 0.5"/>
     </g>
     <g id="line2d_2">
      <defs>
       <path id="me77c3b5b19" d="M 0 0 
L 0 -3.5 
" style="stroke: #000000; stroke-width: 0.8"/>
      </defs>
      <g>
       <use xlink:href="#me77c3b5b19" x="43.365054" y="334.501336" style="stroke: #000000; stroke-width: 0.8"/>
      </g>
     </g>
     <g id="line2d_3">
      <defs>
       <path id="m653c8d0f60" d="M 0 0 
L 0 3.5 
" style="stroke: #000000; stroke-width: 0.8"/>
      </defs>
      <g>
       <use xlink:href="#m653c8d0f60" x="43.365054" y="7.2" style="stroke: #000000; stroke-width: 0.8"/>
      </g>
     </g>
     <g id="text_1">
      <!-- $\mathdefault{−20}$ -->
      <g transform="translate(34.509346 344.862813) scale(0.1 -0.1)">
       <defs>
        <path id="CMSY10-0" d="M 4218 1472 
C 4326 1472 4442 1472 4442 1600 
C 4442 1728 4326 1728 4218 1728 
L 755 1728 
C 646 1728 531 1728 531 1600 
C 531 1472 646 1472 755 1472 
L 4218 1472 
z
" transform="scale(0.015625)"/>
        <path id="CMR17-32" d="M 2669 990 
L 2554 990 
C 2490 537 2438 460 2413 422 
C 2381 371 1920 371 1830 371 
L 602 371 
C 832 620 1280 1073 1824 1596 
C 2214 1966 2669 2400 2669 3033 
C 2669 3788 2067 4224 1395 4224 
C 691 4224 262 3603 262 3027 
C 262 2777 448 2745 525 2745 
C 589 2745 781 2783 781 3007 
C 781 3206 614 3264 525 3264 
C 486 3264 448 3257 422 3244 
C 544 3788 915 4057 1306 4057 
C 1862 4057 2227 3616 2227 3033 
C 2227 2477 1901 1998 1536 1583 
L 262 147 
L 262 0 
L 2515 0 
L 2669 990 
z
" transform="scale(0.015625)"/>
        <path id="CMR17-30" d="M 2688 2038 
C 2688 2430 2682 3099 2413 3613 
C 2176 4063 1798 4224 1466 4224 
C 1158 4224 768 4082 525 3620 
C 269 3137 243 2539 243 2038 
C 243 1671 250 1112 448 623 
C 723 -39 1216 -128 1466 -128 
C 1760 -128 2208 -7 2470 604 
C 2662 1048 2688 1568 2688 2038 
z
M 1466 -26 
C 1056 -26 813 328 723 816 
C 653 1196 653 1749 653 2109 
C 653 2604 653 3015 736 3407 
C 858 3954 1216 4121 1466 4121 
C 1728 4121 2067 3947 2189 3420 
C 2272 3054 2278 2623 2278 2109 
C 2278 1691 2278 1176 2202 797 
C 2067 96 1690 -26 1466 -26 
z
" transform="scale(0.015625)"/>
       </defs>
       <use xlink:href="#CMSY10-0" transform="scale(0.996264)"/>
       <use xlink:href="#CMR17-32" transform="translate(77.487468 0) scale(0.996264)"/>
       <use xlink:href="#CMR17-30" transform="translate(123.177945 0) scale(0.996264)"/>
      </g>
     </g>
    </g>
    <g id="xtick_2">
     <g id="line2d_4">
      <path d="M 93.20249 334.501336 
L 93.20249 7.2 
" clip-path="url(#pddce36eac7)" style="fill: none; stroke-dasharray: 1.85,0.8; stroke-dashoffset: 0; stroke: #b0b0b0; stroke-width: 0.5"/>
     </g>
     <g id="line2d_5">
      <g>
       <use xlink:href="#me77c3b5b19" x="93.20249" y="334.501336" style="stroke: #000000; stroke-width: 0.8"/>
      </g>
     </g>
     <g id="line2d_6">
      <g>
       <use xlink:href="#m653c8d0f60" x="93.20249" y="7.2" style="stroke: #000000; stroke-width: 0.8"/>
      </g>
     </g>
     <g id="text_2">
      <!-- $\mathdefault{−15}$ -->
      <g transform="translate(84.346783 344.862813) scale(0.1 -0.1)">
       <defs>
        <path id="CMR17-31" d="M 1702 4083 
C 1702 4217 1696 4224 1606 4224 
C 1357 3927 979 3833 621 3820 
C 602 3820 570 3820 563 3808 
C 557 3795 557 3782 557 3648 
C 755 3648 1088 3686 1344 3839 
L 1344 467 
C 1344 243 1331 166 781 166 
L 589 166 
L 589 0 
C 896 6 1216 12 1523 12 
C 1830 12 2150 6 2458 0 
L 2458 166 
L 2266 166 
C 1715 166 1702 236 1702 467 
L 1702 4083 
z
" transform="scale(0.015625)"/>
        <path id="CMR17-35" d="M 730 3750 
C 794 3724 1056 3641 1325 3641 
C 1920 3641 2246 3961 2432 4140 
C 2432 4191 2432 4224 2394 4224 
C 2387 4224 2374 4224 2323 4198 
C 2099 4102 1837 4032 1517 4032 
C 1325 4032 1037 4055 723 4191 
C 653 4224 640 4224 634 4224 
C 602 4224 595 4217 595 4090 
L 595 2231 
C 595 2113 595 2080 659 2080 
C 691 2080 704 2093 736 2139 
C 941 2435 1222 2560 1542 2560 
C 1766 2560 2246 2415 2246 1293 
C 2246 1087 2246 716 2054 422 
C 1894 159 1645 25 1370 25 
C 947 25 518 319 403 812 
C 429 806 480 793 506 793 
C 589 793 749 838 749 1036 
C 749 1209 627 1280 506 1280 
C 358 1280 262 1190 262 1011 
C 262 454 704 -128 1382 -128 
C 2042 -128 2669 441 2669 1267 
C 2669 2054 2170 2662 1549 2662 
C 1222 2662 947 2540 730 2304 
L 730 3750 
z
" transform="scale(0.015625)"/>
       </defs>
       <use xlink:href="#CMSY10-0" transform="scale(0.996264)"/>
       <use xlink:href="#CMR17-31" transform="translate(77.487468 0) scale(0.996264)"/>
       <use xlink:href="#CMR17-35" transform="translate(123.177945 0) scale(0.996264)"/>
      </g>
     </g>
    </g>
    <g id="xtick_3">
     <g id="line2d_7">
      <path d="M 143.039927 334.501336 
L 143.039927 7.2 
" clip-path="url(#pddce36eac7)" style="fill: none; stroke-dasharray: 1.85,0.8; stroke-dashoffset: 0; stroke: #b0b0b0; stroke-width: 0.5"/>
     </g>
     <g id="line2d_8">
      <g>
       <use xlink:href="#me77c3b5b19" x="143.039927" y="334.501336" style="stroke: #000000; stroke-width: 0.8"/>
      </g>
     </g>
     <g id="line2d_9">
      <g>
       <use xlink:href="#m653c8d0f60" x="143.039927" y="7.2" style="stroke: #000000; stroke-width: 0.8"/>
      </g>
     </g>
     <g id="text_3">
      <!-- $\mathdefault{−10}$ -->
      <g transform="translate(134.184219 344.862813) scale(0.1 -0.1)">
       <use xlink:href="#CMSY10-0" transform="scale(0.996264)"/>
       <use xlink:href="#CMR17-31" transform="translate(77.487468 0) scale(0.996264)"/>
       <use xlink:href="#CMR17-30" transform="translate(123.177945 0) scale(0.996264)"/>
      </g>
     </g>
    </g>
    <g id="xtick_4">
     <g id="line2d_10">
      <path d="M 192.877363 334.501336 
L 192.877363 7.2 
" clip-path="url(#pddce36eac7)" style="fill: none; stroke-dasharray: 1.85,0.8; stroke-dashoffset: 0; stroke: #b0b0b0; stroke-width: 0.5"/>
     </g>
     <g id="line2d_11">
      <g>
       <use xlink:href="#me77c3b5b19" x="192.877363" y="334.501336" style="stroke: #000000; stroke-width: 0.8"/>
      </g>
     </g>
     <g id="line2d_12">
      <g>
       <use xlink:href="#m653c8d0f60" x="192.877363" y="7.2" style="stroke: #000000; stroke-width: 0.8"/>
      </g>
     </g>
     <g id="text_4">
      <!-- $\mathdefault{−5}$ -->
      <g transform="translate(186.512324 344.862813) scale(0.1 -0.1)">
       <use xlink:href="#CMSY10-0" transform="scale(0.996264)"/>
       <use xlink:href="#CMR17-35" transform="translate(77.487468 0) scale(0.996264)"/>
      </g>
     </g>
    </g>
    <g id="xtick_5">
     <g id="line2d_13">
      <path d="M 242.714799 334.501336 
L 242.714799 7.2 
" clip-path="url(#pddce36eac7)" style="fill: none; stroke-dasharray: 1.85,0.8; stroke-dashoffset: 0; stroke: #b0b0b0; stroke-width: 0.5"/>
     </g>
     <g id="line2d_14">
      <g>
       <use xlink:href="#me77c3b5b19" x="242.714799" y="334.501336" style="stroke: #000000; stroke-width: 0.8"/>
      </g>
     </g>
     <g id="line2d_15">
      <g>
       <use xlink:href="#m653c8d0f60" x="242.714799" y="7.2" style="stroke: #000000; stroke-width: 0.8"/>
      </g>
     </g>
     <g id="text_5">
      <!-- $\mathdefault{0}$ -->
      <g transform="translate(240.224132 344.862813) scale(0.1 -0.1)">
       <use xlink:href="#CMR17-30" transform="scale(0.996264)"/>
      </g>
     </g>
    </g>
    <g id="xtick_6">
     <g id="line2d_16">
      <path d="M 292.552236 334.501336 
L 292.552236 7.2 
" clip-path="url(#pddce36eac7)" style="fill: none; stroke-dasharray: 1.85,0.8; stroke-dashoffset: 0; stroke: #b0b0b0; stroke-width: 0.5"/>
     </g>
     <g id="line2d_17">
      <g>
       <use xlink:href="#me77c3b5b19" x="292.552236" y="334.501336" style="stroke: #000000; stroke-width: 0.8"/>
      </g>
     </g>
     <g id="line2d_18">
      <g>
       <use xlink:href="#m653c8d0f60" x="292.552236" y="7.2" style="stroke: #000000; stroke-width: 0.8"/>
      </g>
     </g>
     <g id="text_6">
      <!-- $\mathdefault{5}$ -->
      <g transform="translate(290.061568 344.862813) scale(0.1 -0.1)">
       <use xlink:href="#CMR17-35" transform="scale(0.996264)"/>
      </g>
     </g>
    </g>
    <g id="xtick_7">
     <g id="line2d_19">
      <path d="M 342.389672 334.501336 
L 342.389672 7.2 
" clip-path="url(#pddce36eac7)" style="fill: none; stroke-dasharray: 1.85,0.8; stroke-dashoffset: 0; stroke: #b0b0b0; stroke-width: 0.5"/>
     </g>
     <g id="line2d_20">
      <g>
       <use xlink:href="#me77c3b5b19" x="342.389672" y="334.501336" style="stroke: #000000; stroke-width: 0.8"/>
      </g>
     </g>
     <g id="line2d_21">
      <g>
       <use xlink:href="#m653c8d0f60" x="342.389672" y="7.2" style="stroke: #000000; stroke-width: 0.8"/>
      </g>
     </g>
     <g id="text_7">
      <!-- $\mathdefault{10}$ -->
      <g transform="translate(337.408337 344.862813) scale(0.1 -0.1)">
       <use xlink:href="#CMR17-31" transform="scale(0.996264)"/>
       <use xlink:href="#CMR17-30" transform="translate(45.690477 0) scale(0.996264)"/>
      </g>
     </g>
    </g>
    <g id="xtick_8">
     <g id="line2d_22">
      <path d="M 392.227109 334.501336 
L 392.227109 7.2 
" clip-path="url(#pddce36eac7)" style="fill: none; stroke-dasharray: 1.85,0.8; stroke-dashoffset: 0; stroke: #b0b0b0; stroke-width: 0.5"/>
     </g>
     <g id="line2d_23">
      <g>
       <use xlink:href="#me77c3b5b19" x="392.227109" y="334.501336" style="stroke: #000000; stroke-width: 0.8"/>
      </g>
     </g>
     <g id="line2d_24">
      <g>
       <use xlink:href="#m653c8d0f60" x="392.227109" y="7.2" style="stroke: #000000; stroke-width: 0.8"/>
      </g>
     </g>
     <g id="text_8">
      <!-- $\mathdefault{15}$ -->
      <g transform="translate(387.245774 344.862813) scale(0.1 -0.1)">
       <use xlink:href="#CMR17-31" transform="scale(0.996264)"/>
       <use xlink:href="#CMR17-35" transform="translate(45.690477 0) scale(0.996264)"/>
      </g>
     </g>
    </g>
    <g id="xtick_9">
     <g id="line2d_25">
      <path d="M 442.064545 334.501336 
L 442.064545 7.2 
" clip-path="url(#pddce36eac7)" style="fill: none; stroke-dasharray: 1.85,0.8; stroke-dashoffset: 0; stroke: #b0b0b0; stroke-width: 0.5"/>
     </g>
     <g id="line2d_26">
      <g>
       <use xlink:href="#me77c3b5b19" x="442.064545" y="334.501336" style="stroke: #000000; stroke-width: 0.8"/>
      </g>
     </g>
     <g id="line2d_27">
      <g>
       <use xlink:href="#m653c8d0f60" x="442.064545" y="7.2" style="stroke: #000000; stroke-width: 0.8"/>
      </g>
     </g>
     <g id="text_9">
      <!-- $\mathdefault{20}$ -->
      <g transform="translate(437.08321 344.862813) scale(0.1 -0.1)">
       <use xlink:href="#CMR17-32" transform="scale(0.996264)"/>
       <use xlink:href="#CMR17-30" transform="translate(45.690477 0) scale(0.996264)"/>
      </g>
     </g>
    </g>
   </g>
   <g id="matplotlib.axis_2">
    <g id="ytick_1">
     <g id="line2d_28">
      <path d="M 23.430079 319.624003 
L 461.99952 319.624003 
" clip-path="url(#pddce36eac7)" style="fill: none; stroke-dasharray: 1.85,0.8; stroke-dashoffset: 0; stroke: #b0b0b0; stroke-width: 0.5"/>
     </g>
     <g id="line2d_29">
      <defs>
       <path id="m8d9e664545" d="M 0 0 
L 3.5 0 
" style="stroke: #000000; stroke-width: 0.8"/>
      </defs>
      <g>
       <use xlink:href="#m8d9e664545" x="23.430079" y="319.624003" style="stroke: #000000; stroke-width: 0.8"/>
      </g>
     </g>
     <g id="line2d_30">
      <defs>
       <path id="me821e4a5e6" d="M 0 0 
L -3.5 0 
" style="stroke: #000000; stroke-width: 0.8"/>
      </defs>
      <g>
       <use xlink:href="#me821e4a5e6" x="461.99952" y="319.624003" style="stroke: #000000; stroke-width: 0.8"/>
      </g>
     </g>
     <g id="text_10">
      <!-- $\mathdefault{0.0}$ -->
      <g transform="translate(7.2 323.054741) scale(0.1 -0.1)">
       <defs>
        <path id="CMMI12-3a" d="M 1178 307 
C 1178 492 1024 620 870 620 
C 685 620 557 467 557 313 
C 557 128 710 0 864 0 
C 1050 0 1178 153 1178 307 
z
" transform="scale(0.015625)"/>
       </defs>
       <use xlink:href="#CMR17-30" transform="scale(0.996264)"/>
       <use xlink:href="#CMMI12-3a" transform="translate(45.690477 0) scale(0.996264)"/>
       <use xlink:href="#CMR17-30" transform="translate(72.787654 0) scale(0.996264)"/>
      </g>
     </g>
    </g>
    <g id="ytick_2">
     <g id="line2d_31">
      <path d="M 23.430079 260.114669 
L 461.99952 260.114669 
" clip-path="url(#pddce36eac7)" style="fill: none; stroke-dasharray: 1.85,0.8; stroke-dashoffset: 0; stroke: #b0b0b0; stroke-width: 0.5"/>
     </g>
     <g id="line2d_32">
      <g>
       <use xlink:href="#m8d9e664545" x="23.430079" y="260.114669" style="stroke: #000000; stroke-width: 0.8"/>
      </g>
     </g>
     <g id="line2d_33">
      <g>
       <use xlink:href="#me821e4a5e6" x="461.99952" y="260.114669" style="stroke: #000000; stroke-width: 0.8"/>
      </g>
     </g>
     <g id="text_11">
      <!-- $\mathdefault{0.2}$ -->
      <g transform="translate(7.2 263.545407) scale(0.1 -0.1)">
       <use xlink:href="#CMR17-30" transform="scale(0.996264)"/>
       <use xlink:href="#CMMI12-3a" transform="translate(45.690477 0) scale(0.996264)"/>
       <use xlink:href="#CMR17-32" transform="translate(72.787654 0) scale(0.996264)"/>
      </g>
     </g>
    </g>
    <g id="ytick_3">
     <g id="line2d_34">
      <path d="M 23.430079 200.605335 
L 461.99952 200.605335 
" clip-path="url(#pddce36eac7)" style="fill: none; stroke-dasharray: 1.85,0.8; stroke-dashoffset: 0; stroke: #b0b0b0; stroke-width: 0.5"/>
     </g>
     <g id="line2d_35">
      <g>
       <use xlink:href="#m8d9e664545" x="23.430079" y="200.605335" style="stroke: #000000; stroke-width: 0.8"/>
      </g>
     </g>
     <g id="line2d_36">
      <g>
       <use xlink:href="#me821e4a5e6" x="461.99952" y="200.605335" style="stroke: #000000; stroke-width: 0.8"/>
      </g>
     </g>
     <g id="text_12">
      <!-- $\mathdefault{0.4}$ -->
      <g transform="translate(7.2 204.036073) scale(0.1 -0.1)">
       <defs>
        <path id="CMR17-34" d="M 2150 4147 
C 2150 4281 2144 4288 2029 4288 
L 128 1254 
L 128 1088 
L 1779 1088 
L 1779 460 
C 1779 230 1766 166 1318 166 
L 1197 166 
L 1197 0 
C 1402 12 1747 12 1965 12 
C 2182 12 2528 12 2733 0 
L 2733 166 
L 2611 166 
C 2163 166 2150 230 2150 460 
L 2150 1088 
L 2803 1088 
L 2803 1254 
L 2150 1254 
L 2150 4147 
z
M 1798 3723 
L 1798 1254 
L 256 1254 
L 1798 3723 
z
" transform="scale(0.015625)"/>
       </defs>
       <use xlink:href="#CMR17-30" transform="scale(0.996264)"/>
       <use xlink:href="#CMMI12-3a" transform="translate(45.690477 0) scale(0.996264)"/>
       <use xlink:href="#CMR17-34" transform="translate(72.787654 0) scale(0.996264)"/>
      </g>
     </g>
    </g>
    <g id="ytick_4">
     <g id="line2d_37">
      <path d="M 23.430079 141.096001 
L 461.99952 141.096001 
" clip-path="url(#pddce36eac7)" style="fill: none; stroke-dasharray: 1.85,0.8; stroke-dashoffset: 0; stroke: #b0b0b0; stroke-width: 0.5"/>
     </g>
     <g id="line2d_38">
      <g>
       <use xlink:href="#m8d9e664545" x="23.430079" y="141.096001" style="stroke: #000000; stroke-width: 0.8"/>
      </g>
     </g>
     <g id="line2d_39">
      <g>
       <use xlink:href="#me821e4a5e6" x="461.99952" y="141.096001" style="stroke: #000000; stroke-width: 0.8"/>
      </g>
     </g>
     <g id="text_13">
      <!-- $\mathdefault{0.6}$ -->
      <g transform="translate(7.2 144.52674) scale(0.1 -0.1)">
       <defs>
        <path id="CMR17-36" d="M 678 2198 
C 678 3712 1395 4076 1811 4076 
C 1946 4076 2272 4049 2400 3782 
C 2298 3782 2106 3782 2106 3558 
C 2106 3385 2246 3328 2336 3328 
C 2394 3328 2566 3353 2566 3571 
C 2566 3987 2246 4224 1805 4224 
C 1043 4224 243 3411 243 2011 
C 243 257 966 -128 1478 -128 
C 2099 -128 2688 431 2688 1295 
C 2688 2101 2170 2688 1517 2688 
C 1126 2688 838 2430 678 1979 
L 678 2198 
z
M 1478 25 
C 691 25 691 1212 691 1450 
C 691 1914 909 2585 1504 2585 
C 1613 2585 1926 2585 2138 2140 
C 2253 1889 2253 1624 2253 1302 
C 2253 954 2253 696 2118 438 
C 1978 173 1773 25 1478 25 
z
" transform="scale(0.015625)"/>
       </defs>
       <use xlink:href="#CMR17-30" transform="scale(0.996264)"/>
       <use xlink:href="#CMMI12-3a" transform="translate(45.690477 0) scale(0.996264)"/>
       <use xlink:href="#CMR17-36" transform="translate(72.787654 0) scale(0.996264)"/>
      </g>
     </g>
    </g>
    <g id="ytick_5">
     <g id="line2d_40">
      <path d="M 23.430079 81.586667 
L 461.99952 81.586667 
" clip-path="url(#pddce36eac7)" style="fill: none; stroke-dasharray: 1.85,0.8; stroke-dashoffset: 0; stroke: #b0b0b0; stroke-width: 0.5"/>
     </g>
     <g id="line2d_41">
      <g>
       <use xlink:href="#m8d9e664545" x="23.430079" y="81.586667" style="stroke: #000000; stroke-width: 0.8"/>
      </g>
     </g>
     <g id="line2d_42">
      <g>
       <use xlink:href="#me821e4a5e6" x="461.99952" y="81.586667" style="stroke: #000000; stroke-width: 0.8"/>
      </g>
     </g>
     <g id="text_14">
      <!-- $\mathdefault{0.8}$ -->
      <g transform="translate(7.2 85.017406) scale(0.1 -0.1)">
       <defs>
        <path id="CMR17-38" d="M 1741 2289 
C 2144 2494 2554 2803 2554 3298 
C 2554 3884 1990 4224 1472 4224 
C 890 4224 378 3800 378 3215 
C 378 3054 416 2777 666 2533 
C 730 2469 998 2276 1171 2154 
C 883 2006 211 1652 211 945 
C 211 282 838 -128 1459 -128 
C 2144 -128 2720 366 2720 1022 
C 2720 1607 2330 1877 2074 2051 
L 1741 2289 
z
M 902 2855 
C 851 2887 595 3086 595 3388 
C 595 3781 998 4076 1459 4076 
C 1965 4076 2336 3716 2336 3298 
C 2336 2700 1670 2359 1638 2359 
C 1632 2359 1626 2359 1574 2398 
L 902 2855 
z
M 2080 1536 
C 2176 1466 2483 1253 2483 861 
C 2483 385 2010 25 1472 25 
C 890 25 448 443 448 951 
C 448 1459 838 1884 1280 2083 
L 2080 1536 
z
" transform="scale(0.015625)"/>
       </defs>
       <use xlink:href="#CMR17-30" transform="scale(0.996264)"/>
       <use xlink:href="#CMMI12-3a" transform="translate(45.690477 0) scale(0.996264)"/>
       <use xlink:href="#CMR17-38" transform="translate(72.787654 0) scale(0.996264)"/>
      </g>
     </g>
    </g>
    <g id="ytick_6">
     <g id="line2d_43">
      <path d="M 23.430079 22.077333 
L 461.99952 22.077333 
" clip-path="url(#pddce36eac7)" style="fill: none; stroke-dasharray: 1.85,0.8; stroke-dashoffset: 0; stroke: #b0b0b0; stroke-width: 0.5"/>
     </g>
     <g id="line2d_44">
      <g>
       <use xlink:href="#m8d9e664545" x="23.430079" y="22.077333" style="stroke: #000000; stroke-width: 0.8"/>
      </g>
     </g>
     <g id="line2d_45">
      <g>
       <use xlink:href="#me821e4a5e6" x="461.99952" y="22.077333" style="stroke: #000000; stroke-width: 0.8"/>
      </g>
     </g>
     <g id="text_15">
      <!-- $\mathdefault{1.0}$ -->
      <g transform="translate(7.2 25.508072) scale(0.1 -0.1)">
       <use xlink:href="#CMR17-31" transform="scale(0.996264)"/>
       <use xlink:href="#CMMI12-3a" transform="translate(45.690477 0) scale(0.996264)"/>
       <use xlink:href="#CMR17-30" transform="translate(72.787654 0) scale(0.996264)"/>
      </g>
     </g>
    </g>
   </g>
   <g id="line2d_46">
    <path d="M 43.365054 319.624003 
L 173.601561 319.558053 
L 175.199555 319.372804 
L 175.998552 319.154561 
L 176.797549 318.771712 
L 177.596546 318.120736 
L 178.395543 317.048119 
L 179.19454 315.335966 
L 179.993537 312.689218 
L 180.792534 308.728442 
L 181.591531 302.993387 
L 182.390528 294.963087 
L 183.189525 284.09752 
L 183.988522 269.903288 
L 184.787519 252.021208 
L 185.586516 230.327577 
L 187.18451 176.767723 
L 189.5815 86.914958 
L 190.380497 61.198414 
L 191.179494 40.819423 
L 191.978491 27.406363 
L 192.777488 22.077333 
L 193.576485 25.286301 
L 194.375482 36.75925 
L 195.174479 55.532814 
L 195.973476 80.087819 
L 198.370467 169.352858 
L 199.968461 224.324801 
L 200.767458 246.953309 
L 201.566455 265.788164 
L 202.365452 280.878099 
L 203.164449 292.533176 
L 203.963446 301.22218 
L 204.762443 307.480567 
L 205.56144 311.838898 
L 206.360437 314.775257 
L 207.159434 316.690162 
L 207.958431 317.899413 
L 208.757428 318.639137 
L 209.556425 319.077603 
L 211.154419 319.469796 
L 213.55141 319.60539 
L 223.938371 319.624003 
L 273.476183 319.545558 
L 275.074177 319.329502 
L 275.873174 319.077603 
L 276.672171 318.639137 
L 277.471168 317.899413 
L 278.270165 316.690162 
L 279.069162 314.775257 
L 279.868159 311.838898 
L 280.667156 307.480567 
L 281.466153 301.22218 
L 282.26515 292.533176 
L 283.064147 280.878099 
L 283.863144 265.788164 
L 284.662141 246.953309 
L 285.461138 224.324801 
L 287.059132 169.352858 
L 289.456123 80.087819 
L 290.25512 55.532814 
L 291.054117 36.75925 
L 291.853114 25.286301 
L 292.652111 22.077333 
L 293.451108 27.406363 
L 294.250105 40.819423 
L 295.049102 61.198414 
L 296.647095 116.044921 
L 299.044086 205.034288 
L 299.843083 230.327577 
L 300.64208 252.021208 
L 301.441077 269.903288 
L 302.240074 284.09752 
L 303.039071 294.963087 
L 303.838068 302.993387 
L 304.637065 308.728442 
L 305.436062 312.689218 
L 306.235059 315.335966 
L 307.034056 317.048119 
L 307.833053 318.120736 
L 308.63205 318.771712 
L 309.431047 319.154561 
L 311.029041 319.493417 
L 313.426032 319.608579 
L 325.410987 319.624003 
L 442.064545 319.624003 
L 442.064545 319.624003 
" clip-path="url(#pddce36eac7)" style="fill: none; stroke: #ff0000; stroke-width: 1.5; stroke-linecap: square"/>
   </g>
   <g id="line2d_47">
    <path d="M 43.365054 319.624003 
L 86.51089 319.52819 
L 90.505875 319.337206 
L 93.701863 318.973302 
L 96.098854 318.460989 
L 97.696848 317.938443 
L 99.294842 317.212309 
L 100.892836 316.217421 
L 102.49083 314.873558 
L 104.088824 313.084143 
L 105.686818 310.73565 
L 107.284812 307.698055 
L 108.882806 303.826689 
L 110.4808 298.965812 
L 112.078794 292.954183 
L 113.676788 285.632796 
L 115.274782 276.854734 
L 116.872776 266.496941 
L 118.470769 254.473392 
L 120.068763 240.748904 
L 121.666757 225.352579 
L 124.063748 199.376682 
L 126.460739 170.61487 
L 133.651712 81.239429 
L 135.249706 64.190719 
L 136.8477 49.417652 
L 138.445694 37.440029 
L 139.244691 32.639949 
L 140.043688 28.694432 
L 140.842685 25.64071 
L 141.641682 23.507838 
L 142.440679 22.31623 
L 143.239676 22.077333 
L 144.038673 22.793447 
L 144.83767 24.457685 
L 145.636667 27.054082 
L 146.435664 30.557858 
L 147.234661 34.9358 
L 148.033658 40.146798 
L 149.631652 52.867951 
L 151.229646 68.261266 
L 152.82764 85.790766 
L 155.22463 114.814845 
L 161.616606 194.750471 
L 164.013597 221.252789 
L 165.611591 237.053829 
L 167.209585 251.201794 
L 168.807579 263.649568 
L 170.405573 274.417484 
L 172.003567 283.580155 
L 173.601561 291.252656 
L 175.199555 297.577105 
L 176.797549 302.710493 
L 178.395543 306.814309 
L 179.993537 310.046276 
L 181.591531 312.554239 
L 183.189525 314.472119 
L 184.787519 315.917657 
L 186.385513 316.991647 
L 187.983507 317.778299 
L 189.5815 318.346394 
L 191.978491 318.905734 
L 194.375482 319.231703 
L 198.370467 319.489748 
L 204.762443 319.603573 
L 227.933355 319.623999 
L 286.260135 319.516701 
L 290.25512 319.305384 
L 293.451108 318.905734 
L 295.848099 318.346394 
L 297.446092 317.778299 
L 299.044086 316.991647 
L 300.64208 315.917657 
L 302.240074 314.472119 
L 303.838068 312.554239 
L 305.436062 310.046276 
L 307.034056 306.814309 
L 308.63205 302.710493 
L 310.230044 297.577105 
L 311.828038 291.252656 
L 313.426032 283.580155 
L 315.024026 274.417484 
L 316.62202 263.649568 
L 318.220014 251.201794 
L 319.818008 237.053829 
L 321.416002 221.252789 
L 323.812993 194.750471 
L 326.209984 165.626068 
L 332.601959 85.790766 
L 334.199953 68.261266 
L 335.797947 52.867951 
L 337.395941 40.146798 
L 338.194938 34.9358 
L 338.993935 30.557858 
L 339.792932 27.054082 
L 340.591929 24.457685 
L 341.390926 22.793447 
L 342.189923 22.077333 
L 342.98892 22.31623 
L 343.787917 23.507838 
L 344.586914 25.64071 
L 345.385911 28.694432 
L 346.184908 32.639949 
L 346.983905 37.440029 
L 348.581899 49.417652 
L 350.179893 64.190719 
L 351.777887 81.239429 
L 354.174878 109.819765 
L 361.365851 199.376682 
L 363.762842 225.352579 
L 365.360836 240.748904 
L 366.95883 254.473392 
L 368.556823 266.496941 
L 370.154817 276.854734 
L 371.752811 285.632796 
L 373.350805 292.954183 
L 374.948799 298.965812 
L 376.546793 303.826689 
L 378.144787 307.698055 
L 379.742781 310.73565 
L 381.340775 313.084143 
L 382.938769 314.873558 
L 384.536763 316.217421 
L 386.134757 317.212309 
L 387.732751 317.938443 
L 389.330745 318.460989 
L 391.727736 318.973302 
L 394.923724 319.337206 
L 398.918709 319.52819 
L 406.908678 319.615599 
L 442.064545 319.624003 
L 442.064545 319.624003 
" clip-path="url(#pddce36eac7)" style="fill: none; stroke: #0000ff; stroke-width: 1.5; stroke-linecap: square"/>
   </g>
   <g id="patch_3">
    <path d="M 23.430079 334.501336 
L 23.430079 7.2 
" style="fill: none; stroke: #000000; stroke-width: 0.8; stroke-linejoin: miter; stroke-linecap: square"/>
   </g>
   <g id="patch_4">
    <path d="M 461.99952 334.501336 
L 461.99952 7.2 
" style="fill: none; stroke: #000000; stroke-width: 0.8; stroke-linejoin: miter; stroke-linecap: square"/>
   </g>
   <g id="patch_5">
    <path d="M 23.430079 334.501336 
L 461.99952 334.501336 
" style="fill: none; stroke: #000000; stroke-width: 0.8; stroke-linejoin: miter; stroke-linecap: square"/>
   </g>
   <g id="patch_6">
    <path d="M 23.430079 7.2 
L 461.99952 7.2 
" style="fill: none; stroke: #000000; stroke-width: 0.8; stroke-linejoin: miter; stroke-linecap: square"/>
   </g>
   <g id="legend_1">
    <g id="patch_7">
     <path d="M 30.430079 45.12528 
L 161.577639 45.12528 
Q 163.577639 45.12528 163.577639 43.12528 
L 163.577639 14.2 
Q 163.577639 12.2 161.577639 12.2 
L 30.430079 12.2 
Q 28.430079 12.2 28.430079 14.2 
L 28.430079 43.12528 
Q 28.430079 45.12528 30.430079 45.12528 
z
" style="fill: #ffffff; opacity: 0.8; stroke: #cccccc; stroke-linejoin: miter"/>
    </g>
    <g id="line2d_48">
     <path d="M 32.430079 20.17198 
L 42.430079 20.17198 
L 52.430079 20.17198 
" style="fill: none; stroke: #ff0000; stroke-width: 1.5; stroke-linecap: square"/>
    </g>
    <g id="text_16">
     <!-- $S(\omega),\,\sigma=1.5,\,\omega_0=5$ -->
     <g transform="translate(60.430079 23.67198) scale(0.1 -0.1)">
      <defs>
       <path id="CMMI12-53" d="M 4064 4422 
C 4064 4480 4019 4480 4006 4480 
C 3981 4480 3974 4473 3898 4377 
C 3859 4332 3597 4002 3590 3996 
C 3379 4409 2957 4480 2688 4480 
C 1875 4480 1139 3742 1139 3024 
C 1139 2547 1427 2268 1741 2160 
C 1811 2134 2189 2033 2381 1988 
C 2707 1899 2790 1874 2925 1734 
C 2950 1702 3078 1556 3078 1258 
C 3078 667 2528 57 1888 57 
C 1363 57 781 279 781 991 
C 781 1112 806 1264 826 1328 
C 826 1347 832 1378 832 1391 
C 832 1417 819 1448 768 1448 
C 710 1448 704 1436 678 1328 
L 352 25 
C 352 19 326 -64 326 -71 
C 326 -128 378 -128 390 -128 
C 416 -128 422 -122 499 -26 
L 794 356 
C 947 127 1280 -128 1875 -128 
C 2701 -128 3456 667 3456 1461 
C 3456 1728 3392 1963 3149 2198 
C 3014 2331 2899 2363 2310 2516 
C 1882 2630 1824 2649 1709 2751 
C 1600 2859 1517 3011 1517 3227 
C 1517 3761 2061 4307 2669 4307 
C 3296 4307 3590 3926 3590 3322 
C 3590 3157 3558 2986 3558 2960 
C 3558 2903 3610 2903 3629 2903 
C 3686 2903 3693 2922 3718 3024 
L 4064 4422 
z
" transform="scale(0.015625)"/>
       <path id="CMR17-28" d="M 1958 -1562 
C 1958 -1556 1958 -1543 1939 -1524 
C 1645 -1223 858 -403 858 1596 
C 858 3595 1632 4408 1946 4729 
C 1946 4735 1958 4748 1958 4767 
C 1958 4787 1939 4800 1914 4800 
C 1843 4800 1299 4325 986 3620 
C 666 2909 576 2218 576 1603 
C 576 1141 621 360 1005 -467 
C 1312 -1133 1837 -1600 1914 -1600 
C 1946 -1600 1958 -1588 1958 -1562 
z
" transform="scale(0.015625)"/>
       <path id="CMMI12-21" d="M 3802 2406 
C 3802 2592 3750 2828 3526 2828 
C 3398 2828 3251 2668 3251 2540 
C 3251 2483 3277 2444 3328 2387 
C 3424 2278 3546 2105 3546 1804 
C 3546 1574 3405 1209 3302 1011 
C 3123 659 2829 358 2496 358 
C 2093 358 1939 614 1869 972 
C 1939 1139 2086 1555 2086 1721 
C 2086 1792 2061 1849 1978 1849 
C 1933 1849 1882 1824 1850 1772 
C 1760 1632 1677 1126 1683 992 
C 1562 755 1216 358 806 358 
C 378 358 262 736 262 1100 
C 262 1766 678 2348 794 2508 
C 858 2604 902 2668 902 2681 
C 902 2726 877 2796 819 2796 
C 717 2796 685 2713 634 2636 
C 307 2131 77 1420 77 806 
C 77 409 224 -64 704 -64 
C 1235 -64 1568 390 1702 633 
C 1754 275 1946 -64 2413 -64 
C 2899 -64 3206 364 3437 883 
C 3603 1254 3802 2054 3802 2406 
z
" transform="scale(0.015625)"/>
       <path id="CMR17-29" d="M 1683 1596 
C 1683 2057 1638 2839 1254 3665 
C 947 4332 422 4800 346 4800 
C 326 4800 301 4793 301 4761 
C 301 4748 307 4742 314 4729 
C 621 4408 1402 3595 1402 1603 
C 1402 -396 627 -1210 314 -1530 
C 307 -1543 301 -1549 301 -1562 
C 301 -1594 326 -1600 346 -1600 
C 416 -1600 960 -1127 1274 -422 
C 1594 289 1683 981 1683 1596 
z
" transform="scale(0.015625)"/>
       <path id="CMMI12-3b" d="M 1248 -26 
C 1248 345 1126 620 864 620 
C 659 620 557 454 557 313 
C 557 172 653 0 870 0 
C 954 0 1024 25 1082 83 
C 1094 96 1101 96 1107 96 
C 1120 96 1120 6 1120 -26 
C 1120 -233 1082 -642 710 -1051 
C 640 -1127 640 -1140 640 -1152 
C 640 -1184 672 -1216 704 -1216 
C 755 -1216 1248 -749 1248 -26 
z
" transform="scale(0.015625)"/>
       <path id="CMMI12-1b" d="M 3251 2406 
C 3334 2406 3546 2406 3546 2611 
C 3546 2752 3424 2752 3309 2752 
L 1894 2752 
C 934 2752 243 1685 243 932 
C 243 389 595 -64 1171 -64 
C 1926 -64 2752 746 2752 1704 
C 2752 1953 2694 2195 2541 2406 
L 3251 2406 
z
M 1178 64 
C 851 64 614 312 614 753 
C 614 1136 845 2406 1786 2406 
C 2061 2406 2368 2272 2368 1780 
C 2368 1557 2266 1021 2042 651 
C 1811 274 1466 64 1178 64 
z
" transform="scale(0.015625)"/>
       <path id="CMR17-3d" d="M 4115 2048 
C 4211 2048 4307 2048 4307 2156 
C 4307 2272 4198 2272 4090 2272 
L 512 2272 
C 403 2272 294 2272 294 2156 
C 294 2048 390 2048 486 2048 
L 4115 2048 
z
M 4090 927 
C 4198 927 4307 927 4307 1043 
C 4307 1152 4211 1152 4115 1152 
L 486 1152 
C 390 1152 294 1152 294 1043 
C 294 927 403 927 512 927 
L 4090 927 
z
" transform="scale(0.015625)"/>
      </defs>
      <use xlink:href="#CMMI12-53" transform="scale(0.996264)"/>
      <use xlink:href="#CMR17-28" transform="translate(65.794439 0) scale(0.996264)"/>
      <use xlink:href="#CMMI12-21" transform="translate(101.075207 0) scale(0.996264)"/>
      <use xlink:href="#CMR17-29" transform="translate(165.393553 0) scale(0.996264)"/>
      <use xlink:href="#CMMI12-3b" transform="translate(200.674321 0) scale(0.996264)"/>
      <use xlink:href="#CMMI12-1b" transform="translate(260.980308 0) scale(0.996264)"/>
      <use xlink:href="#CMR17-3d" transform="translate(347.674371 0) scale(0.996264)"/>
      <use xlink:href="#CMR17-31" transform="translate(447.063168 0) scale(0.996264)"/>
      <use xlink:href="#CMMI12-3a" transform="translate(492.753645 0) scale(0.996264)"/>
      <use xlink:href="#CMR17-35" transform="translate(519.850822 0) scale(0.996264)"/>
      <use xlink:href="#CMMI12-3b" transform="translate(565.541299 0) scale(0.996264)"/>
      <use xlink:href="#CMMI12-21" transform="translate(625.847287 0) scale(0.996264)"/>
      <use xlink:href="#CMR17-30" transform="translate(686.59104 -14.943915) scale(0.697382)"/>
      <use xlink:href="#CMR17-3d" transform="translate(746.746363 0) scale(0.996264)"/>
      <use xlink:href="#CMR17-35" transform="translate(846.13516 0) scale(0.996264)"/>
     </g>
    </g>
    <g id="line2d_49">
     <path d="M 32.430079 35.13462 
L 42.430079 35.13462 
L 52.430079 35.13462 
" style="fill: none; stroke: #0000ff; stroke-width: 1.5; stroke-linecap: square"/>
    </g>
    <g id="text_17">
     <!-- $S(\omega),\,\sigma=0.5,\,\omega_0=10$ -->
     <g transform="translate(60.430079 38.63462) scale(0.1 -0.1)">
      <use xlink:href="#CMMI12-53" transform="scale(0.996264)"/>
      <use xlink:href="#CMR17-28" transform="translate(65.794439 0) scale(0.996264)"/>
      <use xlink:href="#CMMI12-21" transform="translate(101.075207 0) scale(0.996264)"/>
      <use xlink:href="#CMR17-29" transform="translate(165.393553 0) scale(0.996264)"/>
      <use xlink:href="#CMMI12-3b" transform="translate(200.674321 0) scale(0.996264)"/>
      <use xlink:href="#CMMI12-1b" transform="translate(260.980308 0) scale(0.996264)"/>
      <use xlink:href="#CMR17-3d" transform="translate(347.674371 0) scale(0.996264)"/>
      <use xlink:href="#CMR17-30" transform="translate(447.063168 0) scale(0.996264)"/>
      <use xlink:href="#CMMI12-3a" transform="translate(492.753645 0) scale(0.996264)"/>
      <use xlink:href="#CMR17-35" transform="translate(519.850822 0) scale(0.996264)"/>
      <use xlink:href="#CMMI12-3b" transform="translate(565.541299 0) scale(0.996264)"/>
      <use xlink:href="#CMMI12-21" transform="translate(625.847287 0) scale(0.996264)"/>
      <use xlink:href="#CMR17-30" transform="translate(686.59104 -14.943915) scale(0.697382)"/>
      <use xlink:href="#CMR17-3d" transform="translate(746.746363 0) scale(0.996264)"/>
      <use xlink:href="#CMR17-31" transform="translate(846.13516 0) scale(0.996264)"/>
      <use xlink:href="#CMR17-30" transform="translate(891.825637 0) scale(0.996264)"/>
     </g>
    </g>
   </g>
  </g>
 </g>
 <defs>
  <clipPath id="pddce36eac7">
   <rect x="23.430079" y="7.2" width="438.569441" height="327.301336"/>
  </clipPath>
 </defs>
</svg>
